<svg width="249" height="29" viewBox="0 0 249 29" fill="none" xmlns="http://www.w3.org/2000/svg">
<path d="M42.0852 8.454V21H40.4472V15.312H34.0572V21H32.4192V8.454H34.0572V13.962H40.4472V8.454H42.0852ZM49.1841 21.162C48.2601 21.162 47.4201 20.952 46.6641 20.532C45.9201 20.112 45.3321 19.518 44.9001 18.75C44.4801 17.97 44.2701 17.07 44.2701 16.05C44.2701 15.042 44.4861 14.154 44.9181 13.386C45.3621 12.606 45.9621 12.012 46.7181 11.604C47.4741 11.184 48.3201 10.974 49.2561 10.974C50.1921 10.974 51.0381 11.184 51.7941 11.604C52.5501 12.012 53.1441 12.6 53.5761 13.368C54.0201 14.136 54.2421 15.03 54.2421 16.05C54.2421 17.07 54.0141 17.97 53.5581 18.75C53.1141 19.518 52.5081 20.112 51.7401 20.532C50.9721 20.952 50.1201 21.162 49.1841 21.162ZM49.1841 19.722C49.7721 19.722 50.3241 19.584 50.8401 19.308C51.3561 19.032 51.7701 18.618 52.0821 18.066C52.4061 17.514 52.5681 16.842 52.5681 16.05C52.5681 15.258 52.4121 14.586 52.1001 14.034C51.7881 13.482 51.3801 13.074 50.8761 12.81C50.3721 12.534 49.8261 12.396 49.2381 12.396C48.6381 12.396 48.0861 12.534 47.5821 12.81C47.0901 13.074 46.6941 13.482 46.3941 14.034C46.0941 14.586 45.9441 15.258 45.9441 16.05C45.9441 16.854 46.0881 17.532 46.3761 18.084C46.6761 18.636 47.0721 19.05 47.5641 19.326C48.0561 19.59 48.5961 19.722 49.1841 19.722ZM68.2578 10.956C69.0258 10.956 69.7098 11.118 70.3098 11.442C70.9098 11.754 71.3838 12.228 71.7318 12.864C72.0798 13.5 72.2538 14.274 72.2538 15.186V21H70.6338V15.42C70.6338 14.436 70.3878 13.686 69.8958 13.17C69.4158 12.642 68.7618 12.378 67.9338 12.378C67.0818 12.378 66.4038 12.654 65.8998 13.206C65.3958 13.746 65.1438 14.532 65.1438 15.564V21H63.5238V15.42C63.5238 14.436 63.2778 13.686 62.7858 13.17C62.3058 12.642 61.6518 12.378 60.8238 12.378C59.9718 12.378 59.2938 12.654 58.7898 13.206C58.2858 13.746 58.0338 14.532 58.0338 15.564V21H56.3958V11.136H58.0338V12.558C58.3578 12.042 58.7898 11.646 59.3298 11.37C59.8818 11.094 60.4878 10.956 61.1478 10.956C61.9758 10.956 62.7078 11.142 63.3438 11.514C63.9798 11.886 64.4538 12.432 64.7658 13.152C65.0418 12.456 65.4978 11.916 66.1338 11.532C66.7698 11.148 67.4778 10.956 68.2578 10.956ZM76.5787 12.972C76.9147 12.384 77.4067 11.904 78.0547 11.532C78.7027 11.16 79.4407 10.974 80.2687 10.974C81.1567 10.974 81.9547 11.184 82.6627 11.604C83.3707 12.024 83.9287 12.618 84.3367 13.386C84.7447 14.142 84.9487 15.024 84.9487 16.032C84.9487 17.028 84.7447 17.916 84.3367 18.696C83.9287 19.476 83.3647 20.082 82.6447 20.514C81.9367 20.946 81.1447 21.162 80.2687 21.162C79.4167 21.162 78.6667 20.976 78.0187 20.604C77.3827 20.232 76.9027 19.758 76.5787 19.182V21H74.9407V7.68H76.5787V12.972ZM83.2747 16.032C83.2747 15.288 83.1247 14.64 82.8247 14.088C82.5247 13.536 82.1167 13.116 81.6007 12.828C81.0967 12.54 80.5387 12.396 79.9267 12.396C79.3267 12.396 78.7687 12.546 78.2527 12.846C77.7487 13.134 77.3407 13.56 77.0287 14.124C76.7287 14.676 76.5787 15.318 76.5787 16.05C76.5787 16.794 76.7287 17.448 77.0287 18.012C77.3407 18.564 77.7487 18.99 78.2527 19.29C78.7687 19.578 79.3267 19.722 79.9267 19.722C80.5387 19.722 81.0967 19.578 81.6007 19.29C82.1167 18.99 82.5247 18.564 82.8247 18.012C83.1247 17.448 83.2747 16.788 83.2747 16.032ZM88.7428 12.738C89.0308 12.174 89.4388 11.736 89.9668 11.424C90.5068 11.112 91.1608 10.956 91.9288 10.956V12.648H91.4968C89.6608 12.648 88.7428 13.644 88.7428 15.636V21H87.1048V11.136H88.7428V12.738ZM102.82 15.69C102.82 16.002 102.802 16.332 102.766 16.68H94.8816C94.9416 17.652 95.2716 18.414 95.8716 18.966C96.4836 19.506 97.2216 19.776 98.0856 19.776C98.7936 19.776 99.3816 19.614 99.8496 19.29C100.33 18.954 100.666 18.51 100.858 17.958H102.622C102.358 18.906 101.83 19.68 101.038 20.28C100.246 20.868 99.2616 21.162 98.0856 21.162C97.1496 21.162 96.3096 20.952 95.5656 20.532C94.8336 20.112 94.2576 19.518 93.8376 18.75C93.4176 17.97 93.2076 17.07 93.2076 16.05C93.2076 15.03 93.4116 14.136 93.8196 13.368C94.2276 12.6 94.7976 12.012 95.5296 11.604C96.2736 11.184 97.1256 10.974 98.0856 10.974C99.0216 10.974 99.8496 11.178 100.57 11.586C101.29 11.994 101.842 12.558 102.226 13.278C102.622 13.986 102.82 14.79 102.82 15.69ZM101.128 15.348C101.128 14.724 100.99 14.19 100.714 13.746C100.438 13.29 100.06 12.948 99.5796 12.72C99.1116 12.48 98.5896 12.36 98.0136 12.36C97.1856 12.36 96.4776 12.624 95.8896 13.152C95.3136 13.68 94.9836 14.412 94.8996 15.348H101.128ZM108.474 21.162C107.718 21.162 107.04 21.036 106.44 20.784C105.84 20.52 105.366 20.16 105.018 19.704C104.67 19.236 104.478 18.702 104.442 18.102H106.134C106.182 18.594 106.41 18.996 106.818 19.308C107.238 19.62 107.784 19.776 108.456 19.776C109.08 19.776 109.572 19.638 109.932 19.362C110.292 19.086 110.472 18.738 110.472 18.318C110.472 17.886 110.28 17.568 109.896 17.364C109.512 17.148 108.918 16.938 108.114 16.734C107.382 16.542 106.782 16.35 106.314 16.158C105.858 15.954 105.462 15.66 105.126 15.276C104.802 14.88 104.64 14.364 104.64 13.728C104.64 13.224 104.79 12.762 105.09 12.342C105.39 11.922 105.816 11.592 106.368 11.352C106.92 11.1 107.55 10.974 108.258 10.974C109.35 10.974 110.232 11.25 110.904 11.802C111.576 12.354 111.936 13.11 111.984 14.07H110.346C110.31 13.554 110.1 13.14 109.716 12.828C109.344 12.516 108.84 12.36 108.204 12.36C107.616 12.36 107.148 12.486 106.8 12.738C106.452 12.99 106.278 13.32 106.278 13.728C106.278 14.052 106.38 14.322 106.584 14.538C106.8 14.742 107.064 14.91 107.376 15.042C107.7 15.162 108.144 15.3 108.708 15.456C109.416 15.648 109.992 15.84 110.436 16.032C110.88 16.212 111.258 16.488 111.57 16.86C111.894 17.232 112.062 17.718 112.074 18.318C112.074 18.858 111.924 19.344 111.624 19.776C111.324 20.208 110.898 20.55 110.346 20.802C109.806 21.042 109.182 21.162 108.474 21.162Z" fill="#0E2248"/>
<path d="M193.186 8.544V21H191.548V11.712L187.408 21H186.256L182.098 11.694V21H180.46V8.544H182.224L186.832 18.84L191.44 8.544H193.186ZM204.712 11.136V21H203.074V19.542C202.762 20.046 202.324 20.442 201.76 20.73C201.208 21.006 200.596 21.144 199.924 21.144C199.156 21.144 198.466 20.988 197.854 20.676C197.242 20.352 196.756 19.872 196.396 19.236C196.048 18.6 195.874 17.826 195.874 16.914V11.136H197.494V16.698C197.494 17.67 197.74 18.42 198.232 18.948C198.724 19.464 199.396 19.722 200.248 19.722C201.124 19.722 201.814 19.452 202.318 18.912C202.822 18.372 203.074 17.586 203.074 16.554V11.136H204.712ZM208.36 9.534C208.048 9.534 207.784 9.426 207.568 9.21C207.364 8.994 207.262 8.73 207.262 8.418C207.262 8.106 207.364 7.842 207.568 7.626C207.784 7.41 208.048 7.302 208.36 7.302C208.672 7.302 208.93 7.41 209.134 7.626C209.35 7.842 209.458 8.106 209.458 8.418C209.458 8.73 209.35 8.994 209.134 9.21C208.93 9.426 208.672 9.534 208.36 9.534ZM209.17 23.142C209.17 24.018 208.948 24.66 208.504 25.068C208.06 25.476 207.412 25.68 206.56 25.68H205.606V24.294H206.29C206.746 24.294 207.064 24.204 207.244 24.024C207.436 23.844 207.532 23.538 207.532 23.106V11.136H209.17V23.142ZM220.943 15.69C220.943 16.002 220.925 16.332 220.889 16.68H213.005C213.065 17.652 213.395 18.414 213.995 18.966C214.607 19.506 215.345 19.776 216.209 19.776C216.917 19.776 217.505 19.614 217.973 19.29C218.453 18.954 218.789 18.51 218.981 17.958H220.745C220.481 18.906 219.953 19.68 219.161 20.28C218.369 20.868 217.385 21.162 216.209 21.162C215.273 21.162 214.433 20.952 213.689 20.532C212.957 20.112 212.381 19.518 211.961 18.75C211.541 17.97 211.331 17.07 211.331 16.05C211.331 15.03 211.535 14.136 211.943 13.368C212.351 12.6 212.921 12.012 213.653 11.604C214.397 11.184 215.249 10.974 216.209 10.974C217.145 10.974 217.973 11.178 218.693 11.586C219.413 11.994 219.965 12.558 220.349 13.278C220.745 13.986 220.943 14.79 220.943 15.69ZM219.251 15.348C219.251 14.724 219.113 14.19 218.837 13.746C218.561 13.29 218.183 12.948 217.703 12.72C217.235 12.48 216.713 12.36 216.137 12.36C215.309 12.36 214.601 12.624 214.013 13.152C213.437 13.68 213.107 14.412 213.023 15.348H219.251ZM224.743 12.738C225.031 12.174 225.439 11.736 225.967 11.424C226.507 11.112 227.161 10.956 227.929 10.956V12.648H227.497C225.661 12.648 224.743 13.644 224.743 15.636V21H223.105V11.136H224.743V12.738ZM238.82 15.69C238.82 16.002 238.802 16.332 238.766 16.68H230.882C230.942 17.652 231.272 18.414 231.872 18.966C232.484 19.506 233.222 19.776 234.086 19.776C234.794 19.776 235.382 19.614 235.85 19.29C236.33 18.954 236.666 18.51 236.858 17.958H238.622C238.358 18.906 237.83 19.68 237.038 20.28C236.246 20.868 235.262 21.162 234.086 21.162C233.15 21.162 232.31 20.952 231.566 20.532C230.834 20.112 230.258 19.518 229.838 18.75C229.418 17.97 229.208 17.07 229.208 16.05C229.208 15.03 229.412 14.136 229.82 13.368C230.228 12.6 230.798 12.012 231.53 11.604C232.274 11.184 233.126 10.974 234.086 10.974C235.022 10.974 235.85 11.178 236.57 11.586C237.29 11.994 237.842 12.558 238.226 13.278C238.622 13.986 238.82 14.79 238.82 15.69ZM237.128 15.348C237.128 14.724 236.99 14.19 236.714 13.746C236.438 13.29 236.06 12.948 235.58 12.72C235.112 12.48 234.59 12.36 234.014 12.36C233.186 12.36 232.478 12.624 231.89 13.152C231.314 13.68 230.984 14.412 230.9 15.348H237.128ZM244.474 21.162C243.718 21.162 243.04 21.036 242.44 20.784C241.84 20.52 241.366 20.16 241.018 19.704C240.67 19.236 240.478 18.702 240.442 18.102H242.134C242.182 18.594 242.41 18.996 242.818 19.308C243.238 19.62 243.784 19.776 244.456 19.776C245.08 19.776 245.572 19.638 245.932 19.362C246.292 19.086 246.472 18.738 246.472 18.318C246.472 17.886 246.28 17.568 245.896 17.364C245.512 17.148 244.918 16.938 244.114 16.734C243.382 16.542 242.782 16.35 242.314 16.158C241.858 15.954 241.462 15.66 241.126 15.276C240.802 14.88 240.64 14.364 240.64 13.728C240.64 13.224 240.79 12.762 241.09 12.342C241.39 11.922 241.816 11.592 242.368 11.352C242.92 11.1 243.55 10.974 244.258 10.974C245.35 10.974 246.232 11.25 246.904 11.802C247.576 12.354 247.936 13.11 247.984 14.07H246.346C246.31 13.554 246.1 13.14 245.716 12.828C245.344 12.516 244.84 12.36 244.204 12.36C243.616 12.36 243.148 12.486 242.8 12.738C242.452 12.99 242.278 13.32 242.278 13.728C242.278 14.052 242.38 14.322 242.584 14.538C242.8 14.742 243.064 14.91 243.376 15.042C243.7 15.162 244.144 15.3 244.708 15.456C245.416 15.648 245.992 15.84 246.436 16.032C246.88 16.212 247.258 16.488 247.57 16.86C247.894 17.232 248.062 17.718 248.074 18.318C248.074 18.858 247.924 19.344 247.624 19.776C247.324 20.208 246.898 20.55 246.346 20.802C245.806 21.042 245.182 21.162 244.474 21.162Z" fill="#0E2248"/>
<rect y="5" width="20" height="20" fill="black"/>
<rect x="148" y="5" width="20" height="20" fill="#349EFF"/>
</svg>
