<svg width="1180" height="186" viewBox="0 0 1180 186" fill="none" xmlns="http://www.w3.org/2000/svg">
<circle cx="65" cy="65" r="65" fill="#E50914"/>
<circle cx="240" cy="65" r="65" fill="#1DBA2D"/>
<circle cx="415" cy="65" r="65" fill="black"/>
<circle cx="590" cy="65" r="65" fill="#141414"/>
<circle cx="765" cy="65" r="65" fill="#727272"/>
<circle cx="940" cy="65" r="65" fill="#C4C4C4"/>
<circle cx="1115" cy="65" r="64.75" fill="white" stroke="black" stroke-width="0.5"/>
<path d="M34.58 168.8L33.82 172.4H36.58V174H33.48L32.62 178H30.88L31.74 174H27.54L26.68 178H24.94L25.8 174H22.66V172.4H26.14L26.9 168.8H23.8V167.2H27.24L28.1 163.2H29.84L28.98 167.2H33.18L34.04 163.2H35.78L34.92 167.2H37.7V168.8H34.58ZM32.84 168.8H28.64L27.88 172.4H32.08L32.84 168.8ZM42.1569 165.54V170.2H47.2369V171.7H42.1569V176.5H47.8369V178H40.3369V164.04H47.8369V165.54H42.1569ZM59.5108 165.12H52.4908V169.68C52.7974 169.253 53.2508 168.907 53.8508 168.64C54.4508 168.36 55.0974 168.22 55.7908 168.22C56.8974 168.22 57.7974 168.453 58.4908 168.92C59.1841 169.373 59.6774 169.967 59.9708 170.7C60.2774 171.42 60.4308 172.187 60.4308 173C60.4308 173.96 60.2508 174.82 59.8908 175.58C59.5308 176.34 58.9774 176.94 58.2308 177.38C57.4974 177.82 56.5841 178.04 55.4908 178.04C54.0908 178.04 52.9574 177.68 52.0908 176.96C51.2241 176.24 50.6974 175.28 50.5108 174.08H52.2908C52.4641 174.84 52.8308 175.433 53.3908 175.86C53.9508 176.287 54.6574 176.5 55.5108 176.5C56.5641 176.5 57.3574 176.187 57.8908 175.56C58.4241 174.92 58.6908 174.08 58.6908 173.04C58.6908 172 58.4241 171.2 57.8908 170.64C57.3574 170.067 56.5708 169.78 55.5308 169.78C54.8241 169.78 54.2041 169.953 53.6708 170.3C53.1508 170.633 52.7708 171.093 52.5308 171.68H50.8108V163.52H59.5108V165.12ZM62.8494 170.62C62.8494 168.327 63.2227 166.54 63.9694 165.26C64.716 163.967 66.0227 163.32 67.8894 163.32C69.7427 163.32 71.0427 163.967 71.7894 165.26C72.536 166.54 72.9094 168.327 72.9094 170.62C72.9094 172.953 72.536 174.767 71.7894 176.06C71.0427 177.353 69.7427 178 67.8894 178C66.0227 178 64.716 177.353 63.9694 176.06C63.2227 174.767 62.8494 172.953 62.8494 170.62ZM71.1094 170.62C71.1094 169.46 71.0294 168.48 70.8694 167.68C70.7227 166.867 70.4094 166.213 69.9294 165.72C69.4627 165.227 68.7827 164.98 67.8894 164.98C66.9827 164.98 66.2894 165.227 65.8094 165.72C65.3427 166.213 65.0294 166.867 64.8694 167.68C64.7227 168.48 64.6494 169.46 64.6494 170.62C64.6494 171.82 64.7227 172.827 64.8694 173.64C65.0294 174.453 65.3427 175.107 65.8094 175.6C66.2894 176.093 66.9827 176.34 67.8894 176.34C68.7827 176.34 69.4627 176.093 69.9294 175.6C70.4094 175.107 70.7227 174.453 70.8694 173.64C71.0294 172.827 71.1094 171.82 71.1094 170.62ZM77.748 174.12C77.8813 174.88 78.188 175.467 78.668 175.88C79.1613 176.293 79.8213 176.5 80.648 176.5C81.7546 176.5 82.568 176.067 83.088 175.2C83.6213 174.333 83.8746 172.873 83.848 170.82C83.568 171.42 83.1013 171.893 82.448 172.24C81.7946 172.573 81.068 172.74 80.268 172.74C79.3746 172.74 78.5746 172.56 77.868 172.2C77.1746 171.827 76.628 171.287 76.228 170.58C75.828 169.873 75.628 169.02 75.628 168.02C75.628 166.593 76.0413 165.447 76.868 164.58C77.6946 163.7 78.868 163.26 80.388 163.26C82.2546 163.26 83.5613 163.867 84.308 165.08C85.068 166.293 85.448 168.1 85.448 170.5C85.448 172.18 85.2946 173.567 84.988 174.66C84.6946 175.753 84.188 176.587 83.468 177.16C82.7613 177.733 81.788 178.02 80.548 178.02C79.188 178.02 78.128 177.653 77.368 176.92C76.608 176.187 76.1746 175.253 76.068 174.12H77.748ZM80.568 171.2C81.4613 171.2 82.1946 170.927 82.768 170.38C83.3413 169.82 83.628 169.067 83.628 168.12C83.628 167.12 83.348 166.313 82.788 165.7C82.228 165.087 81.4413 164.78 80.428 164.78C79.4946 164.78 78.748 165.073 78.188 165.66C77.6413 166.247 77.368 167.02 77.368 167.98C77.368 168.953 77.6413 169.733 78.188 170.32C78.7346 170.907 79.528 171.2 80.568 171.2ZM87.5256 165.2V163.54H91.2856V178H89.4456V165.2H87.5256ZM93.9719 174.78V173.4L100.992 163.68H103.172V173.2H105.172V174.78H103.172V178H101.372V174.78H93.9719ZM101.452 165.58L96.0719 173.2H101.452V165.58Z" fill="black"/>
<path d="M206.58 168.8L205.82 172.4H208.58V174H205.48L204.62 178H202.88L203.74 174H199.54L198.68 178H196.94L197.8 174H194.66V172.4H198.14L198.9 168.8H195.8V167.2H199.24L200.1 163.2H201.84L200.98 167.2H205.18L206.04 163.2H207.78L206.92 167.2H209.7V168.8H206.58ZM204.84 168.8H200.64L199.88 172.4H204.08L204.84 168.8ZM211.557 165.2V163.54H215.317V178H213.477V165.2H211.557ZM223.083 164.06C224.603 164.06 225.916 164.347 227.023 164.92C228.143 165.48 228.996 166.287 229.583 167.34C230.183 168.393 230.483 169.633 230.483 171.06C230.483 172.487 230.183 173.727 229.583 174.78C228.996 175.82 228.143 176.62 227.023 177.18C225.916 177.727 224.603 178 223.083 178H218.743V164.06H223.083ZM223.083 176.5C224.883 176.5 226.256 176.027 227.203 175.08C228.15 174.12 228.623 172.78 228.623 171.06C228.623 169.327 228.143 167.973 227.183 167C226.236 166.027 224.87 165.54 223.083 165.54H220.563V176.5H223.083ZM239.864 170.82C240.37 170.9 240.83 171.107 241.244 171.44C241.67 171.773 242.004 172.187 242.244 172.68C242.497 173.173 242.624 173.7 242.624 174.26C242.624 174.967 242.444 175.607 242.084 176.18C241.724 176.74 241.197 177.187 240.504 177.52C239.824 177.84 239.017 178 238.084 178H232.884V164.06H237.884C238.83 164.06 239.637 164.22 240.304 164.54C240.97 164.847 241.47 165.267 241.804 165.8C242.137 166.333 242.304 166.933 242.304 167.6C242.304 168.427 242.077 169.113 241.624 169.66C241.184 170.193 240.597 170.58 239.864 170.82ZM234.704 170.08H237.764C238.617 170.08 239.277 169.88 239.744 169.48C240.21 169.08 240.444 168.527 240.444 167.82C240.444 167.113 240.21 166.56 239.744 166.16C239.277 165.76 238.604 165.56 237.724 165.56H234.704V170.08ZM237.924 176.5C238.83 176.5 239.537 176.287 240.044 175.86C240.55 175.433 240.804 174.84 240.804 174.08C240.804 173.307 240.537 172.7 240.004 172.26C239.47 171.807 238.757 171.58 237.864 171.58H234.704V176.5H237.924ZM253.389 174.9H247.309L246.189 178H244.269L249.309 164.14H251.409L256.429 178H254.509L253.389 174.9ZM252.869 173.42L250.349 166.38L247.829 173.42H252.869ZM258.106 176.54C259.799 175.18 261.126 174.067 262.086 173.2C263.046 172.32 263.853 171.407 264.506 170.46C265.173 169.5 265.506 168.56 265.506 167.64C265.506 166.773 265.293 166.093 264.866 165.6C264.453 165.093 263.779 164.84 262.846 164.84C261.939 164.84 261.233 165.127 260.726 165.7C260.233 166.26 259.966 167.013 259.926 167.96H258.166C258.219 166.467 258.673 165.313 259.526 164.5C260.379 163.687 261.479 163.28 262.826 163.28C264.199 163.28 265.286 163.66 266.086 164.42C266.899 165.18 267.306 166.227 267.306 167.56C267.306 168.667 266.973 169.747 266.306 170.8C265.653 171.84 264.906 172.76 264.066 173.56C263.226 174.347 262.153 175.267 260.846 176.32H267.726V177.84H258.106V176.54ZM274.47 164.06C275.99 164.06 277.303 164.347 278.41 164.92C279.53 165.48 280.383 166.287 280.97 167.34C281.57 168.393 281.87 169.633 281.87 171.06C281.87 172.487 281.57 173.727 280.97 174.78C280.383 175.82 279.53 176.62 278.41 177.18C277.303 177.727 275.99 178 274.47 178H270.13V164.06H274.47ZM274.47 176.5C276.27 176.5 277.643 176.027 278.59 175.08C279.537 174.12 280.01 172.78 280.01 171.06C280.01 169.327 279.53 167.973 278.57 167C277.623 166.027 276.257 165.54 274.47 165.54H271.95V176.5H274.47Z" fill="black"/>
<path d="M380.58 168.8L379.82 172.4H382.58V174H379.48L378.62 178H376.88L377.74 174H373.54L372.68 178H370.94L371.8 174H368.66V172.4H372.14L372.9 168.8H369.8V167.2H373.24L374.1 163.2H375.84L374.98 167.2H379.18L380.04 163.2H381.78L380.92 167.2H383.7V168.8H380.58ZM378.84 168.8H374.64L373.88 172.4H378.08L378.84 168.8ZM386.037 170.62C386.037 168.327 386.41 166.54 387.157 165.26C387.904 163.967 389.21 163.32 391.077 163.32C392.93 163.32 394.23 163.967 394.977 165.26C395.724 166.54 396.097 168.327 396.097 170.62C396.097 172.953 395.724 174.767 394.977 176.06C394.23 177.353 392.93 178 391.077 178C389.21 178 387.904 177.353 387.157 176.06C386.41 174.767 386.037 172.953 386.037 170.62ZM394.297 170.62C394.297 169.46 394.217 168.48 394.057 167.68C393.91 166.867 393.597 166.213 393.117 165.72C392.65 165.227 391.97 164.98 391.077 164.98C390.17 164.98 389.477 165.227 388.997 165.72C388.53 166.213 388.217 166.867 388.057 167.68C387.91 168.48 387.837 169.46 387.837 170.62C387.837 171.82 387.91 172.827 388.057 173.64C388.217 174.453 388.53 175.107 388.997 175.6C389.477 176.093 390.17 176.34 391.077 176.34C391.97 176.34 392.65 176.093 393.117 175.6C393.597 175.107 393.91 174.453 394.057 173.64C394.217 172.827 394.297 171.82 394.297 170.62ZM398.595 170.62C398.595 168.327 398.969 166.54 399.715 165.26C400.462 163.967 401.769 163.32 403.635 163.32C405.489 163.32 406.789 163.967 407.535 165.26C408.282 166.54 408.655 168.327 408.655 170.62C408.655 172.953 408.282 174.767 407.535 176.06C406.789 177.353 405.489 178 403.635 178C401.769 178 400.462 177.353 399.715 176.06C398.969 174.767 398.595 172.953 398.595 170.62ZM406.855 170.62C406.855 169.46 406.775 168.48 406.615 167.68C406.469 166.867 406.155 166.213 405.675 165.72C405.209 165.227 404.529 164.98 403.635 164.98C402.729 164.98 402.035 165.227 401.555 165.72C401.089 166.213 400.775 166.867 400.615 167.68C400.469 168.48 400.395 169.46 400.395 170.62C400.395 171.82 400.469 172.827 400.615 173.64C400.775 174.453 401.089 175.107 401.555 175.6C402.035 176.093 402.729 176.34 403.635 176.34C404.529 176.34 405.209 176.093 405.675 175.6C406.155 175.107 406.469 174.453 406.615 173.64C406.775 172.827 406.855 171.82 406.855 170.62ZM411.154 170.62C411.154 168.327 411.527 166.54 412.274 165.26C413.021 163.967 414.327 163.32 416.194 163.32C418.047 163.32 419.347 163.967 420.094 165.26C420.841 166.54 421.214 168.327 421.214 170.62C421.214 172.953 420.841 174.767 420.094 176.06C419.347 177.353 418.047 178 416.194 178C414.327 178 413.021 177.353 412.274 176.06C411.527 174.767 411.154 172.953 411.154 170.62ZM419.414 170.62C419.414 169.46 419.334 168.48 419.174 167.68C419.027 166.867 418.714 166.213 418.234 165.72C417.767 165.227 417.087 164.98 416.194 164.98C415.287 164.98 414.594 165.227 414.114 165.72C413.647 166.213 413.334 166.867 413.174 167.68C413.027 168.48 412.954 169.46 412.954 170.62C412.954 171.82 413.027 172.827 413.174 173.64C413.334 174.453 413.647 175.107 414.114 175.6C414.594 176.093 415.287 176.34 416.194 176.34C417.087 176.34 417.767 176.093 418.234 175.6C418.714 175.107 419.027 174.453 419.174 173.64C419.334 172.827 419.414 171.82 419.414 170.62ZM423.713 170.62C423.713 168.327 424.086 166.54 424.833 165.26C425.579 163.967 426.886 163.32 428.753 163.32C430.606 163.32 431.906 163.967 432.653 165.26C433.399 166.54 433.773 168.327 433.773 170.62C433.773 172.953 433.399 174.767 432.653 176.06C431.906 177.353 430.606 178 428.753 178C426.886 178 425.579 177.353 424.833 176.06C424.086 174.767 423.713 172.953 423.713 170.62ZM431.973 170.62C431.973 169.46 431.893 168.48 431.733 167.68C431.586 166.867 431.273 166.213 430.793 165.72C430.326 165.227 429.646 164.98 428.753 164.98C427.846 164.98 427.153 165.227 426.673 165.72C426.206 166.213 425.893 166.867 425.733 167.68C425.586 168.48 425.513 169.46 425.513 170.62C425.513 171.82 425.586 172.827 425.733 173.64C425.893 174.453 426.206 175.107 426.673 175.6C427.153 176.093 427.846 176.34 428.753 176.34C429.646 176.34 430.326 176.093 430.793 175.6C431.273 175.107 431.586 174.453 431.733 173.64C431.893 172.827 431.973 171.82 431.973 170.62ZM436.271 170.62C436.271 168.327 436.645 166.54 437.391 165.26C438.138 163.967 439.445 163.32 441.311 163.32C443.165 163.32 444.465 163.967 445.211 165.26C445.958 166.54 446.331 168.327 446.331 170.62C446.331 172.953 445.958 174.767 445.211 176.06C444.465 177.353 443.165 178 441.311 178C439.445 178 438.138 177.353 437.391 176.06C436.645 174.767 436.271 172.953 436.271 170.62ZM444.531 170.62C444.531 169.46 444.451 168.48 444.291 167.68C444.145 166.867 443.831 166.213 443.351 165.72C442.885 165.227 442.205 164.98 441.311 164.98C440.405 164.98 439.711 165.227 439.231 165.72C438.765 166.213 438.451 166.867 438.291 167.68C438.145 168.48 438.071 169.46 438.071 170.62C438.071 171.82 438.145 172.827 438.291 173.64C438.451 174.453 438.765 175.107 439.231 175.6C439.711 176.093 440.405 176.34 441.311 176.34C442.205 176.34 442.885 176.093 443.351 175.6C443.831 175.107 444.145 174.453 444.291 173.64C444.451 172.827 444.531 171.82 444.531 170.62ZM448.83 170.62C448.83 168.327 449.203 166.54 449.95 165.26C450.697 163.967 452.003 163.32 453.87 163.32C455.723 163.32 457.023 163.967 457.77 165.26C458.517 166.54 458.89 168.327 458.89 170.62C458.89 172.953 458.517 174.767 457.77 176.06C457.023 177.353 455.723 178 453.87 178C452.003 178 450.697 177.353 449.95 176.06C449.203 174.767 448.83 172.953 448.83 170.62ZM457.09 170.62C457.09 169.46 457.01 168.48 456.85 167.68C456.703 166.867 456.39 166.213 455.91 165.72C455.443 165.227 454.763 164.98 453.87 164.98C452.963 164.98 452.27 165.227 451.79 165.72C451.323 166.213 451.01 166.867 450.85 167.68C450.703 168.48 450.63 169.46 450.63 170.62C450.63 171.82 450.703 172.827 450.85 173.64C451.01 174.453 451.323 175.107 451.79 175.6C452.27 176.093 452.963 176.34 453.87 176.34C454.763 176.34 455.443 176.093 455.91 175.6C456.39 175.107 456.703 174.453 456.85 173.64C457.01 172.827 457.09 171.82 457.09 170.62Z" fill="black"/>
<path d="M559.58 168.8L558.82 172.4H561.58V174H558.48L557.62 178H555.88L556.74 174H552.54L551.68 178H549.94L550.8 174H547.66V172.4H551.14L551.9 168.8H548.8V167.2H552.24L553.1 163.2H554.84L553.98 167.2H558.18L559.04 163.2H560.78L559.92 167.2H562.7V168.8H559.58ZM557.84 168.8H553.64L552.88 172.4H557.08L557.84 168.8ZM564.557 165.2V163.54H568.317V178H566.477V165.2H564.557ZM571.003 174.78V173.4L578.023 163.68H580.203V173.2H582.203V174.78H580.203V178H578.403V174.78H571.003ZM578.483 165.58L573.103 173.2H578.483V165.58ZM583.541 165.2V163.54H587.301V178H585.461V165.2H583.541ZM589.988 174.78V173.4L597.008 163.68H599.188V173.2H601.188V174.78H599.188V178H597.388V174.78H589.988ZM597.468 165.58L592.088 173.2H597.468V165.58ZM602.526 165.2V163.54H606.286V178H604.446V165.2H602.526ZM608.972 174.78V173.4L615.992 163.68H618.172V173.2H620.172V174.78H618.172V178H616.372V174.78H608.972ZM616.452 165.58L611.072 173.2H616.452V165.58Z" fill="black"/>
<path d="M734.58 168.8L733.82 172.4H736.58V174H733.48L732.62 178H730.88L731.74 174H727.54L726.68 178H724.94L725.8 174H722.66V172.4H726.14L726.9 168.8H723.8V167.2H727.24L728.1 163.2H729.84L728.98 167.2H733.18L734.04 163.2H735.78L734.92 167.2H737.7V168.8H734.58ZM732.84 168.8H728.64L727.88 172.4H732.08L732.84 168.8ZM748.937 164.96L743.377 178H741.537L747.177 165.14H739.457V163.58H748.937V164.96ZM750.735 176.54C752.428 175.18 753.755 174.067 754.715 173.2C755.675 172.32 756.482 171.407 757.135 170.46C757.802 169.5 758.135 168.56 758.135 167.64C758.135 166.773 757.922 166.093 757.495 165.6C757.082 165.093 756.408 164.84 755.475 164.84C754.568 164.84 753.862 165.127 753.355 165.7C752.862 166.26 752.595 167.013 752.555 167.96H750.795C750.848 166.467 751.302 165.313 752.155 164.5C753.008 163.687 754.108 163.28 755.455 163.28C756.828 163.28 757.915 163.66 758.715 164.42C759.528 165.18 759.935 166.227 759.935 167.56C759.935 168.667 759.602 169.747 758.935 170.8C758.282 171.84 757.535 172.76 756.695 173.56C755.855 174.347 754.782 175.267 753.475 176.32H760.355V177.84H750.735V176.54ZM771.359 164.96L765.799 178H763.959L769.599 165.14H761.879V163.58H771.359V164.96ZM773.157 176.54C774.85 175.18 776.177 174.067 777.137 173.2C778.097 172.32 778.903 171.407 779.557 170.46C780.223 169.5 780.557 168.56 780.557 167.64C780.557 166.773 780.343 166.093 779.917 165.6C779.503 165.093 778.83 164.84 777.897 164.84C776.99 164.84 776.283 165.127 775.777 165.7C775.283 166.26 775.017 167.013 774.977 167.96H773.217C773.27 166.467 773.723 165.313 774.577 164.5C775.43 163.687 776.53 163.28 777.877 163.28C779.25 163.28 780.337 163.66 781.137 164.42C781.95 165.18 782.357 166.227 782.357 167.56C782.357 168.667 782.023 169.747 781.357 170.8C780.703 171.84 779.957 172.76 779.117 173.56C778.277 174.347 777.203 175.267 775.897 176.32H782.777V177.84H773.157V176.54ZM793.781 164.96L788.221 178H786.381L792.021 165.14H784.301V163.58H793.781V164.96ZM795.579 176.54C797.272 175.18 798.599 174.067 799.559 173.2C800.519 172.32 801.325 171.407 801.979 170.46C802.645 169.5 802.979 168.56 802.979 167.64C802.979 166.773 802.765 166.093 802.339 165.6C801.925 165.093 801.252 164.84 800.319 164.84C799.412 164.84 798.705 165.127 798.199 165.7C797.705 166.26 797.439 167.013 797.399 167.96H795.639C795.692 166.467 796.145 165.313 796.999 164.5C797.852 163.687 798.952 163.28 800.299 163.28C801.672 163.28 802.759 163.66 803.559 164.42C804.372 165.18 804.779 166.227 804.779 167.56C804.779 168.667 804.445 169.747 803.779 170.8C803.125 171.84 802.379 172.76 801.539 173.56C800.699 174.347 799.625 175.267 798.319 176.32H805.199V177.84H795.579V176.54Z" fill="black"/>
<path d="M899.58 168.8L898.82 172.4H901.58V174H898.48L897.62 178H895.88L896.74 174H892.54L891.68 178H889.94L890.8 174H887.66V172.4H891.14L891.9 168.8H888.8V167.2H892.24L893.1 163.2H894.84L893.98 167.2H898.18L899.04 163.2H900.78L899.92 167.2H902.7V168.8H899.58ZM897.84 168.8H893.64L892.88 172.4H897.08L897.84 168.8ZM904.657 171.02C904.657 169.66 904.964 168.44 905.577 167.36C906.19 166.267 907.024 165.413 908.077 164.8C909.144 164.187 910.324 163.88 911.617 163.88C913.137 163.88 914.464 164.247 915.597 164.98C916.73 165.713 917.557 166.753 918.077 168.1H915.897C915.51 167.26 914.95 166.613 914.217 166.16C913.497 165.707 912.63 165.48 911.617 165.48C910.644 165.48 909.77 165.707 908.997 166.16C908.224 166.613 907.617 167.26 907.177 168.1C906.737 168.927 906.517 169.9 906.517 171.02C906.517 172.127 906.737 173.1 907.177 173.94C907.617 174.767 908.224 175.407 908.997 175.86C909.77 176.313 910.644 176.54 911.617 176.54C912.63 176.54 913.497 176.32 914.217 175.88C914.95 175.427 915.51 174.78 915.897 173.94H918.077C917.557 175.273 916.73 176.307 915.597 177.04C914.464 177.76 913.137 178.12 911.617 178.12C910.324 178.12 909.144 177.82 908.077 177.22C907.024 176.607 906.19 175.76 905.577 174.68C904.964 173.6 904.657 172.38 904.657 171.02ZM920.046 174.78V173.4L927.066 163.68H929.246V173.2H931.246V174.78H929.246V178H927.446V174.78H920.046ZM927.526 165.58L922.146 173.2H927.526V165.58ZM932.684 171.02C932.684 169.66 932.991 168.44 933.604 167.36C934.218 166.267 935.051 165.413 936.104 164.8C937.171 164.187 938.351 163.88 939.644 163.88C941.164 163.88 942.491 164.247 943.624 164.98C944.758 165.713 945.584 166.753 946.104 168.1H943.924C943.538 167.26 942.978 166.613 942.244 166.16C941.524 165.707 940.658 165.48 939.644 165.48C938.671 165.48 937.798 165.707 937.024 166.16C936.251 166.613 935.644 167.26 935.204 168.1C934.764 168.927 934.544 169.9 934.544 171.02C934.544 172.127 934.764 173.1 935.204 173.94C935.644 174.767 936.251 175.407 937.024 175.86C937.798 176.313 938.671 176.54 939.644 176.54C940.658 176.54 941.524 176.32 942.244 175.88C942.978 175.427 943.538 174.78 943.924 173.94H946.104C945.584 175.273 944.758 176.307 943.624 177.04C942.491 177.76 941.164 178.12 939.644 178.12C938.351 178.12 937.171 177.82 936.104 177.22C935.051 176.607 934.218 175.76 933.604 174.68C932.991 173.6 932.684 172.38 932.684 171.02ZM948.073 174.78V173.4L955.093 163.68H957.273V173.2H959.273V174.78H957.273V178H955.473V174.78H948.073ZM955.553 165.58L950.173 173.2H955.553V165.58ZM960.712 171.02C960.712 169.66 961.018 168.44 961.632 167.36C962.245 166.267 963.078 165.413 964.132 164.8C965.198 164.187 966.378 163.88 967.672 163.88C969.192 163.88 970.518 164.247 971.652 164.98C972.785 165.713 973.612 166.753 974.132 168.1H971.952C971.565 167.26 971.005 166.613 970.272 166.16C969.552 165.707 968.685 165.48 967.672 165.48C966.698 165.48 965.825 165.707 965.052 166.16C964.278 166.613 963.672 167.26 963.232 168.1C962.792 168.927 962.572 169.9 962.572 171.02C962.572 172.127 962.792 173.1 963.232 173.94C963.672 174.767 964.278 175.407 965.052 175.86C965.825 176.313 966.698 176.54 967.672 176.54C968.685 176.54 969.552 176.32 970.272 175.88C971.005 175.427 971.565 174.78 971.952 173.94H974.132C973.612 175.273 972.785 176.307 971.652 177.04C970.518 177.76 969.192 178.12 967.672 178.12C966.378 178.12 965.198 177.82 964.132 177.22C963.078 176.607 962.245 175.76 961.632 174.68C961.018 173.6 960.712 172.38 960.712 171.02ZM976.101 174.78V173.4L983.121 163.68H985.301V173.2H987.301V174.78H985.301V178H983.501V174.78H976.101ZM983.581 165.58L978.201 173.2H983.581V165.58Z" fill="black"/>
<path d="M1086.58 168.8L1085.82 172.4H1088.58V174H1085.48L1084.62 178H1082.88L1083.74 174H1079.54L1078.68 178H1076.94L1077.8 174H1074.66V172.4H1078.14L1078.9 168.8H1075.8V167.2H1079.24L1080.1 163.2H1081.84L1080.98 167.2H1085.18L1086.04 163.2H1087.78L1086.92 167.2H1089.7V168.8H1086.58ZM1084.84 168.8H1080.64L1079.88 172.4H1084.08L1084.84 168.8ZM1100.22 164.06V165.54H1094.16V170.24H1099.08V171.72H1094.16V178H1092.34V164.06H1100.22ZM1110.3 164.06V165.54H1104.24V170.24H1109.16V171.72H1104.24V178H1102.42V164.06H1110.3ZM1120.37 164.06V165.54H1114.31V170.24H1119.23V171.72H1114.31V178H1112.49V164.06H1120.37ZM1130.45 164.06V165.54H1124.39V170.24H1129.31V171.72H1124.39V178H1122.57V164.06H1130.45ZM1140.53 164.06V165.54H1134.47V170.24H1139.39V171.72H1134.47V178H1132.65V164.06H1140.53ZM1150.61 164.06V165.54H1144.55V170.24H1149.47V171.72H1144.55V178H1142.73V164.06H1150.61Z" fill="black"/>
</svg>
