<svg width="897" height="114" viewBox="0 0 897 114" fill="none" xmlns="http://www.w3.org/2000/svg">
<rect x="740" y="4" width="157" height="24" rx="12" fill="#349EFF" fill-opacity="0.9"/>
<path d="M799.065 21V11.0469H802.319C803.399 11.0469 804.211 11.2702 804.753 11.7168C805.3 12.1634 805.573 12.8242 805.573 13.6992C805.573 14.1641 805.441 14.5765 805.177 14.9365C804.912 15.292 804.552 15.5677 804.097 15.7637C804.634 15.9141 805.058 16.2012 805.368 16.625C805.683 17.0443 805.84 17.5456 805.84 18.1289C805.84 19.0221 805.55 19.724 804.972 20.2344C804.393 20.7448 803.575 21 802.518 21H799.065ZM800.378 16.3447V19.9268H802.545C803.156 19.9268 803.636 19.7695 803.987 19.4551C804.343 19.1361 804.521 18.6986 804.521 18.1426C804.521 16.944 803.869 16.3447 802.565 16.3447H800.378ZM800.378 15.292H802.36C802.935 15.292 803.393 15.1484 803.734 14.8613C804.081 14.5742 804.254 14.1846 804.254 13.6924C804.254 13.1455 804.094 12.749 803.775 12.5029C803.456 12.2523 802.971 12.127 802.319 12.127H800.378V15.292ZM812.156 20.2686C811.664 20.8473 810.942 21.1367 809.989 21.1367C809.201 21.1367 808.599 20.9089 808.185 20.4531C807.774 19.9928 807.567 19.3138 807.562 18.416V13.6035H808.827V18.3818C808.827 19.5029 809.283 20.0635 810.194 20.0635C811.16 20.0635 811.803 19.7035 812.122 18.9834V13.6035H813.387V21H812.184L812.156 20.2686ZM817.03 11.8125V13.6035H818.411V14.5811H817.03V19.168C817.03 19.4642 817.092 19.6875 817.215 19.8379C817.338 19.9837 817.548 20.0566 817.844 20.0566C817.99 20.0566 818.19 20.0293 818.445 19.9746V21C818.113 21.0911 817.789 21.1367 817.475 21.1367C816.91 21.1367 816.483 20.9658 816.196 20.624C815.909 20.2822 815.766 19.7969 815.766 19.168V14.5811H814.419V13.6035H815.766V11.8125H817.03ZM821.61 11.8125V13.6035H822.991V14.5811H821.61V19.168C821.61 19.4642 821.672 19.6875 821.795 19.8379C821.918 19.9837 822.128 20.0566 822.424 20.0566C822.57 20.0566 822.77 20.0293 823.025 19.9746V21C822.693 21.0911 822.369 21.1367 822.055 21.1367C821.49 21.1367 821.063 20.9658 820.776 20.624C820.489 20.2822 820.346 19.7969 820.346 19.168V14.5811H818.999V13.6035H820.346V11.8125H821.61ZM824.003 17.2334C824.003 16.5088 824.144 15.8571 824.427 15.2783C824.714 14.6995 825.11 14.2529 825.616 13.9385C826.127 13.624 826.708 13.4668 827.359 13.4668C828.367 13.4668 829.18 13.8154 829.8 14.5127C830.424 15.21 830.736 16.1374 830.736 17.2949V17.3838C830.736 18.1038 830.597 18.751 830.319 19.3252C830.046 19.8949 829.652 20.3392 829.137 20.6582C828.626 20.9772 828.038 21.1367 827.373 21.1367C826.37 21.1367 825.557 20.7881 824.933 20.0908C824.313 19.3936 824.003 18.4707 824.003 17.3223V17.2334ZM825.274 17.3838C825.274 18.2041 825.464 18.8626 825.842 19.3594C826.225 19.8561 826.735 20.1045 827.373 20.1045C828.016 20.1045 828.526 19.8538 828.904 19.3525C829.283 18.8467 829.472 18.1403 829.472 17.2334C829.472 16.4222 829.278 15.766 828.891 15.2646C828.508 14.7588 827.997 14.5059 827.359 14.5059C826.735 14.5059 826.231 14.7542 825.849 15.251C825.466 15.7477 825.274 16.4587 825.274 17.3838ZM833.519 13.6035L833.56 14.5332C834.125 13.8223 834.863 13.4668 835.774 13.4668C837.338 13.4668 838.126 14.3486 838.14 16.1123V21H836.875V16.1055C836.87 15.5723 836.747 15.1781 836.506 14.9229C836.269 14.6676 835.897 14.54 835.392 14.54C834.981 14.54 834.621 14.6494 834.312 14.8682C834.002 15.0869 833.76 15.374 833.587 15.7295V21H832.322V13.6035H833.519Z" fill="white"/>
<rect x="740" y="88" width="157" height="24" rx="12" fill="#349EFF" fill-opacity="0.5"/>
<path d="M789.037 105V95.0469H791.847C792.713 95.0469 793.478 95.2383 794.144 95.6211C794.809 96.0039 795.322 96.5485 795.682 97.2549C796.046 97.9613 796.231 98.7725 796.235 99.6885V100.324C796.235 101.263 796.053 102.086 795.688 102.792C795.328 103.498 794.811 104.041 794.137 104.419C793.467 104.797 792.685 104.991 791.792 105H789.037ZM790.35 96.127V103.927H791.73C792.742 103.927 793.528 103.612 794.089 102.983C794.654 102.354 794.937 101.459 794.937 100.297V99.7158C794.937 98.5856 794.67 97.7083 794.137 97.084C793.608 96.4551 792.856 96.1361 791.881 96.127H790.35ZM799.4 105H798.136V97.6035H799.4V105ZM798.033 95.6416C798.033 95.4365 798.095 95.2633 798.218 95.1221C798.345 94.9808 798.532 94.9102 798.778 94.9102C799.024 94.9102 799.211 94.9808 799.339 95.1221C799.466 95.2633 799.53 95.4365 799.53 95.6416C799.53 95.8467 799.466 96.0176 799.339 96.1543C799.211 96.291 799.024 96.3594 798.778 96.3594C798.532 96.3594 798.345 96.291 798.218 96.1543C798.095 96.0176 798.033 95.8467 798.033 95.6416ZM805.737 103.038C805.737 102.696 805.607 102.432 805.348 102.245C805.092 102.054 804.644 101.89 804.001 101.753C803.363 101.616 802.855 101.452 802.477 101.261C802.103 101.069 801.825 100.841 801.643 100.577C801.465 100.313 801.376 99.9984 801.376 99.6338C801.376 99.0277 801.631 98.515 802.142 98.0957C802.657 97.6764 803.313 97.4668 804.11 97.4668C804.949 97.4668 805.628 97.6833 806.147 98.1162C806.672 98.5492 806.934 99.1029 806.934 99.7773H805.662C805.662 99.431 805.514 99.1325 805.218 98.8818C804.926 98.6312 804.557 98.5059 804.11 98.5059C803.65 98.5059 803.29 98.6061 803.03 98.8066C802.771 99.0072 802.641 99.2692 802.641 99.5928C802.641 99.8981 802.761 100.128 803.003 100.283C803.244 100.438 803.68 100.586 804.309 100.728C804.942 100.869 805.455 101.037 805.847 101.233C806.239 101.429 806.528 101.666 806.715 101.944C806.906 102.218 807.002 102.553 807.002 102.949C807.002 103.61 806.738 104.141 806.209 104.542C805.68 104.938 804.994 105.137 804.151 105.137C803.559 105.137 803.035 105.032 802.579 104.822C802.123 104.613 801.766 104.321 801.506 103.947C801.251 103.569 801.123 103.161 801.123 102.724H802.388C802.41 103.147 802.579 103.485 802.894 103.735C803.213 103.981 803.632 104.104 804.151 104.104C804.63 104.104 805.013 104.009 805.3 103.817C805.591 103.621 805.737 103.362 805.737 103.038ZM812.956 103.038C812.956 102.696 812.826 102.432 812.566 102.245C812.311 102.054 811.862 101.89 811.22 101.753C810.582 101.616 810.074 101.452 809.695 101.261C809.322 101.069 809.044 100.841 808.861 100.577C808.684 100.313 808.595 99.9984 808.595 99.6338C808.595 99.0277 808.85 98.515 809.36 98.0957C809.875 97.6764 810.532 97.4668 811.329 97.4668C812.168 97.4668 812.847 97.6833 813.366 98.1162C813.89 98.5492 814.152 99.1029 814.152 99.7773H812.881C812.881 99.431 812.733 99.1325 812.437 98.8818C812.145 98.6312 811.776 98.5059 811.329 98.5059C810.869 98.5059 810.509 98.6061 810.249 98.8066C809.989 99.0072 809.859 99.2692 809.859 99.5928C809.859 99.8981 809.98 100.128 810.222 100.283C810.463 100.438 810.898 100.586 811.527 100.728C812.161 100.869 812.674 101.037 813.065 101.233C813.457 101.429 813.747 101.666 813.934 101.944C814.125 102.218 814.221 102.553 814.221 102.949C814.221 103.61 813.956 104.141 813.428 104.542C812.899 104.938 812.213 105.137 811.37 105.137C810.778 105.137 810.254 105.032 809.798 104.822C809.342 104.613 808.984 104.321 808.725 103.947C808.469 103.569 808.342 103.161 808.342 102.724H809.606C809.629 103.147 809.798 103.485 810.112 103.735C810.431 103.981 810.851 104.104 811.37 104.104C811.849 104.104 812.231 104.009 812.519 103.817C812.81 103.621 812.956 103.362 812.956 103.038ZM820.435 105C820.362 104.854 820.302 104.594 820.257 104.221C819.669 104.831 818.967 105.137 818.151 105.137C817.422 105.137 816.823 104.932 816.354 104.521C815.889 104.107 815.656 103.583 815.656 102.949C815.656 102.179 815.948 101.582 816.531 101.158C817.119 100.73 817.944 100.516 819.006 100.516H820.236V99.9346C820.236 99.4925 820.104 99.1416 819.84 98.8818C819.576 98.6175 819.186 98.4854 818.671 98.4854C818.22 98.4854 817.841 98.5993 817.536 98.8271C817.231 99.055 817.078 99.3307 817.078 99.6543H815.807C815.807 99.2852 815.937 98.9297 816.196 98.5879C816.461 98.2415 816.816 97.9681 817.263 97.7676C817.714 97.5671 818.208 97.4668 818.746 97.4668C819.598 97.4668 820.266 97.681 820.749 98.1094C821.232 98.5332 821.483 99.1188 821.501 99.8662V103.271C821.501 103.95 821.588 104.49 821.761 104.891V105H820.435ZM818.336 104.036C818.732 104.036 819.108 103.934 819.464 103.729C819.819 103.523 820.077 103.257 820.236 102.929V101.411H819.245C817.696 101.411 816.921 101.865 816.921 102.771C816.921 103.168 817.053 103.478 817.317 103.701C817.582 103.924 817.921 104.036 818.336 104.036ZM829.745 101.384C829.745 102.514 829.485 103.423 828.966 104.111C828.446 104.795 827.749 105.137 826.874 105.137C825.94 105.137 825.217 104.806 824.707 104.146L824.646 105H823.483V94.5H824.748V98.417C825.258 97.7835 825.963 97.4668 826.86 97.4668C827.758 97.4668 828.462 97.8063 828.973 98.4854C829.488 99.1644 829.745 100.094 829.745 101.274V101.384ZM828.48 101.24C828.48 100.379 828.314 99.7135 827.981 99.2441C827.649 98.7747 827.17 98.54 826.546 98.54C825.712 98.54 825.113 98.9274 824.748 99.7021V102.901C825.135 103.676 825.739 104.063 826.56 104.063C827.166 104.063 827.637 103.829 827.975 103.359C828.312 102.89 828.48 102.184 828.48 101.24ZM832.719 105H831.454V94.5H832.719V105ZM837.818 105.137C836.816 105.137 836 104.809 835.371 104.152C834.742 103.492 834.428 102.61 834.428 101.507V101.274C834.428 100.541 834.567 99.8867 834.845 99.3125C835.127 98.7337 835.519 98.2826 836.021 97.959C836.526 97.6309 837.073 97.4668 837.661 97.4668C838.623 97.4668 839.37 97.7835 839.903 98.417C840.437 99.0505 840.703 99.9574 840.703 101.138V101.664H835.692C835.711 102.393 835.923 102.983 836.328 103.435C836.738 103.881 837.258 104.104 837.887 104.104C838.333 104.104 838.712 104.013 839.021 103.831C839.331 103.649 839.603 103.407 839.835 103.106L840.607 103.708C839.988 104.66 839.058 105.137 837.818 105.137ZM837.661 98.5059C837.151 98.5059 836.722 98.6927 836.376 99.0664C836.03 99.4355 835.815 99.9551 835.733 100.625H839.438V100.529C839.402 99.8867 839.229 99.39 838.919 99.0391C838.609 98.6836 838.19 98.5059 837.661 98.5059ZM841.865 101.24C841.865 100.105 842.134 99.194 842.672 98.5059C843.21 97.8132 843.914 97.4668 844.784 97.4668C845.65 97.4668 846.336 97.763 846.842 98.3555V94.5H848.106V105H846.944L846.883 104.207C846.377 104.827 845.673 105.137 844.771 105.137C843.914 105.137 843.214 104.786 842.672 104.084C842.134 103.382 841.865 102.466 841.865 101.336V101.24ZM843.13 101.384C843.13 102.222 843.303 102.879 843.649 103.353C843.996 103.826 844.474 104.063 845.085 104.063C845.887 104.063 846.473 103.703 846.842 102.983V99.5859C846.464 98.8887 845.882 98.54 845.099 98.54C844.479 98.54 843.996 98.7793 843.649 99.2578C843.303 99.7363 843.13 100.445 843.13 101.384Z" fill="white" fill-opacity="0.5"/>
<rect x="740" y="32" width="157" height="24" rx="12" fill="#349EFF"/>
<path d="M795.654 45.1035V49H794.342V39.0469H798.013C799.102 39.0469 799.954 39.3249 800.569 39.8809C801.189 40.4368 801.499 41.1729 801.499 42.0889C801.499 43.055 801.196 43.8001 800.59 44.3242C799.988 44.8438 799.125 45.1035 797.999 45.1035H795.654ZM795.654 44.0303H798.013C798.715 44.0303 799.252 43.8662 799.626 43.5381C800 43.2054 800.187 42.7269 800.187 42.1025C800.187 41.5101 800 41.0361 799.626 40.6807C799.252 40.3252 798.74 40.1406 798.088 40.127H795.654V44.0303ZM806.551 42.7383C806.359 42.7064 806.152 42.6904 805.929 42.6904C805.099 42.6904 804.536 43.0436 804.24 43.75V49H802.976V41.6035H804.206L804.227 42.458C804.641 41.7972 805.229 41.4668 805.99 41.4668C806.236 41.4668 806.423 41.4987 806.551 41.5625V42.7383ZM810.652 49.1367C809.65 49.1367 808.834 48.8086 808.205 48.1523C807.576 47.4915 807.262 46.6097 807.262 45.5068V45.2744C807.262 44.5407 807.401 43.8867 807.679 43.3125C807.961 42.7337 808.353 42.2826 808.854 41.959C809.36 41.6309 809.907 41.4668 810.495 41.4668C811.457 41.4668 812.204 41.7835 812.737 42.417C813.271 43.0505 813.537 43.9574 813.537 45.1377V45.6641H808.526C808.545 46.3932 808.757 46.9834 809.162 47.4346C809.572 47.8812 810.092 48.1045 810.721 48.1045C811.167 48.1045 811.546 48.0133 811.855 47.8311C812.165 47.6488 812.437 47.4072 812.669 47.1064L813.441 47.708C812.822 48.6605 811.892 49.1367 810.652 49.1367ZM810.495 42.5059C809.985 42.5059 809.556 42.6927 809.21 43.0664C808.864 43.4355 808.649 43.9551 808.567 44.625H812.272V44.5293C812.236 43.8867 812.063 43.39 811.753 43.0391C811.443 42.6836 811.024 42.5059 810.495 42.5059ZM819.313 47.0381C819.313 46.6963 819.184 46.432 818.924 46.2451C818.669 46.0537 818.22 45.8896 817.577 45.7529C816.939 45.6162 816.431 45.4521 816.053 45.2607C815.679 45.0693 815.401 44.8415 815.219 44.5771C815.041 44.3128 814.952 43.9984 814.952 43.6338C814.952 43.0277 815.207 42.515 815.718 42.0957C816.233 41.6764 816.889 41.4668 817.687 41.4668C818.525 41.4668 819.204 41.6833 819.724 42.1162C820.248 42.5492 820.51 43.1029 820.51 43.7773H819.238C819.238 43.431 819.09 43.1325 818.794 42.8818C818.502 42.6312 818.133 42.5059 817.687 42.5059C817.226 42.5059 816.866 42.6061 816.606 42.8066C816.347 43.0072 816.217 43.2692 816.217 43.5928C816.217 43.8981 816.338 44.1283 816.579 44.2832C816.821 44.4382 817.256 44.5863 817.885 44.7275C818.518 44.8688 819.031 45.0374 819.423 45.2334C819.815 45.4294 820.104 45.6663 820.291 45.9443C820.482 46.2178 820.578 46.5527 820.578 46.9492C820.578 47.61 820.314 48.141 819.785 48.542C819.257 48.9385 818.571 49.1367 817.728 49.1367C817.135 49.1367 816.611 49.0319 816.155 48.8223C815.7 48.6126 815.342 48.321 815.082 47.9473C814.827 47.569 814.699 47.1611 814.699 46.7236H815.964C815.987 47.1475 816.155 47.4847 816.47 47.7354C816.789 47.9814 817.208 48.1045 817.728 48.1045C818.206 48.1045 818.589 48.0088 818.876 47.8174C819.168 47.6214 819.313 47.3617 819.313 47.0381ZM826.532 47.0381C826.532 46.6963 826.402 46.432 826.143 46.2451C825.887 46.0537 825.438 45.8896 824.796 45.7529C824.158 45.6162 823.65 45.4521 823.271 45.2607C822.898 45.0693 822.62 44.8415 822.438 44.5771C822.26 44.3128 822.171 43.9984 822.171 43.6338C822.171 43.0277 822.426 42.515 822.937 42.0957C823.451 41.6764 824.108 41.4668 824.905 41.4668C825.744 41.4668 826.423 41.6833 826.942 42.1162C827.466 42.5492 827.729 43.1029 827.729 43.7773H826.457C826.457 43.431 826.309 43.1325 826.013 42.8818C825.721 42.6312 825.352 42.5059 824.905 42.5059C824.445 42.5059 824.085 42.6061 823.825 42.8066C823.565 43.0072 823.436 43.2692 823.436 43.5928C823.436 43.8981 823.556 44.1283 823.798 44.2832C824.039 44.4382 824.475 44.5863 825.104 44.7275C825.737 44.8688 826.25 45.0374 826.642 45.2334C827.034 45.4294 827.323 45.6663 827.51 45.9443C827.701 46.2178 827.797 46.5527 827.797 46.9492C827.797 47.61 827.533 48.141 827.004 48.542C826.475 48.9385 825.789 49.1367 824.946 49.1367C824.354 49.1367 823.83 49.0319 823.374 48.8223C822.918 48.6126 822.561 48.321 822.301 47.9473C822.046 47.569 821.918 47.1611 821.918 46.7236H823.183C823.205 47.1475 823.374 47.4847 823.688 47.7354C824.007 47.9814 824.427 48.1045 824.946 48.1045C825.425 48.1045 825.808 48.0088 826.095 47.8174C826.386 47.6214 826.532 47.3617 826.532 47.0381ZM832.514 49.1367C831.511 49.1367 830.695 48.8086 830.066 48.1523C829.438 47.4915 829.123 46.6097 829.123 45.5068V45.2744C829.123 44.5407 829.262 43.8867 829.54 43.3125C829.823 42.7337 830.215 42.2826 830.716 41.959C831.222 41.6309 831.769 41.4668 832.356 41.4668C833.318 41.4668 834.065 41.7835 834.599 42.417C835.132 43.0505 835.398 43.9574 835.398 45.1377V45.6641H830.388C830.406 46.3932 830.618 46.9834 831.023 47.4346C831.434 47.8812 831.953 48.1045 832.582 48.1045C833.029 48.1045 833.407 48.0133 833.717 47.8311C834.027 47.6488 834.298 47.4072 834.53 47.1064L835.303 47.708C834.683 48.6605 833.753 49.1367 832.514 49.1367ZM832.356 42.5059C831.846 42.5059 831.418 42.6927 831.071 43.0664C830.725 43.4355 830.511 43.9551 830.429 44.625H834.134V44.5293C834.097 43.8867 833.924 43.39 833.614 43.0391C833.304 42.6836 832.885 42.5059 832.356 42.5059ZM836.561 45.2402C836.561 44.1055 836.829 43.194 837.367 42.5059C837.905 41.8132 838.609 41.4668 839.479 41.4668C840.345 41.4668 841.031 41.763 841.537 42.3555V38.5H842.802V49H841.64L841.578 48.207C841.072 48.8268 840.368 49.1367 839.466 49.1367C838.609 49.1367 837.91 48.7858 837.367 48.084C836.829 47.3822 836.561 46.4661 836.561 45.3359V45.2402ZM837.825 45.3838C837.825 46.2223 837.998 46.8786 838.345 47.3525C838.691 47.8265 839.17 48.0635 839.78 48.0635C840.582 48.0635 841.168 47.7035 841.537 46.9834V43.5859C841.159 42.8887 840.578 42.54 839.794 42.54C839.174 42.54 838.691 42.7793 838.345 43.2578C837.998 43.7363 837.825 44.445 837.825 45.3838Z" fill="white"/>
<rect x="740" y="60" width="157" height="24" rx="12" fill="#349EFF" fill-opacity="0.7"/>
<path d="M808.95 77H807.631V72.3994H802.613V77H801.301V67.0469H802.613V71.3262H807.631V67.0469H808.95V77ZM810.748 73.2334C810.748 72.5088 810.889 71.8571 811.172 71.2783C811.459 70.6995 811.855 70.2529 812.361 69.9385C812.872 69.624 813.453 69.4668 814.104 69.4668C815.112 69.4668 815.925 69.8154 816.545 70.5127C817.169 71.21 817.481 72.1374 817.481 73.2949V73.3838C817.481 74.1038 817.342 74.751 817.064 75.3252C816.791 75.8949 816.397 76.3392 815.882 76.6582C815.371 76.9772 814.784 77.1367 814.118 77.1367C813.116 77.1367 812.302 76.7881 811.678 76.0908C811.058 75.3936 810.748 74.4707 810.748 73.3223V73.2334ZM812.02 73.3838C812.02 74.2041 812.209 74.8626 812.587 75.3594C812.97 75.8561 813.48 76.1045 814.118 76.1045C814.761 76.1045 815.271 75.8538 815.649 75.3525C816.028 74.8467 816.217 74.1403 816.217 73.2334C816.217 72.4222 816.023 71.766 815.636 71.2646C815.253 70.7588 814.743 70.5059 814.104 70.5059C813.48 70.5059 812.977 70.7542 812.594 71.251C812.211 71.7477 812.02 72.4587 812.02 73.3838ZM821.398 75.2842L823.23 69.6035H824.522L821.87 77H820.906L818.227 69.6035H819.519L821.398 75.2842ZM828.713 77.1367C827.71 77.1367 826.895 76.8086 826.266 76.1523C825.637 75.4915 825.322 74.6097 825.322 73.5068V73.2744C825.322 72.5407 825.461 71.8867 825.739 71.3125C826.022 70.7337 826.414 70.2826 826.915 69.959C827.421 69.6309 827.968 69.4668 828.556 69.4668C829.517 69.4668 830.265 69.7835 830.798 70.417C831.331 71.0505 831.598 71.9574 831.598 73.1377V73.6641H826.587C826.605 74.3932 826.817 74.9834 827.223 75.4346C827.633 75.8812 828.152 76.1045 828.781 76.1045C829.228 76.1045 829.606 76.0133 829.916 75.8311C830.226 75.6488 830.497 75.4072 830.729 75.1064L831.502 75.708C830.882 76.6605 829.952 77.1367 828.713 77.1367ZM828.556 70.5059C828.045 70.5059 827.617 70.6927 827.271 71.0664C826.924 71.4355 826.71 71.9551 826.628 72.625H830.333V72.5293C830.297 71.8867 830.123 71.39 829.813 71.0391C829.504 70.6836 829.084 70.5059 828.556 70.5059ZM836.643 70.7383C836.451 70.7064 836.244 70.6904 836.021 70.6904C835.191 70.6904 834.628 71.0436 834.332 71.75V77H833.067V69.6035H834.298L834.318 70.458C834.733 69.7972 835.321 69.4668 836.082 69.4668C836.328 69.4668 836.515 69.4987 836.643 69.5625V70.7383Z" fill="white"/>
<rect width="331" height="45" rx="22.5" fill="#349EFF" fill-opacity="0.9"/>
<path d="M145.443 22.176C146.083 22.3787 146.584 22.72 146.947 23.2C147.309 23.6693 147.491 24.2507 147.491 24.944C147.491 25.9253 147.107 26.6827 146.339 27.216C145.581 27.7387 144.472 28 143.011 28H137.219V16.8H142.691C144.056 16.8 145.101 17.0613 145.827 17.584C146.563 18.1067 146.931 18.816 146.931 19.712C146.931 20.256 146.797 20.7413 146.531 21.168C146.275 21.5947 145.912 21.9307 145.443 22.176ZM139.795 18.752V21.392H142.371C143.011 21.392 143.496 21.28 143.827 21.056C144.157 20.832 144.323 20.5013 144.323 20.064C144.323 19.6267 144.157 19.3013 143.827 19.088C143.496 18.864 143.011 18.752 142.371 18.752H139.795ZM142.819 26.048C143.501 26.048 144.013 25.936 144.355 25.712C144.707 25.488 144.883 25.1413 144.883 24.672C144.883 23.744 144.195 23.28 142.819 23.28H139.795V26.048H142.819ZM157.949 19.392V28H155.581V26.976C155.25 27.3493 154.856 27.6373 154.397 27.84C153.938 28.032 153.442 28.128 152.909 28.128C151.778 28.128 150.882 27.8027 150.221 27.152C149.56 26.5013 149.229 25.536 149.229 24.256V19.392H151.725V23.888C151.725 25.2747 152.306 25.968 153.469 25.968C154.066 25.968 154.546 25.776 154.909 25.392C155.272 24.9973 155.453 24.416 155.453 23.648V19.392H157.949ZM165.813 27.584C165.568 27.7653 165.264 27.904 164.901 28C164.549 28.0853 164.176 28.128 163.781 28.128C162.757 28.128 161.963 27.8667 161.397 27.344C160.843 26.8213 160.565 26.0533 160.565 25.04V21.504H159.237V19.584H160.565V17.488H163.061V19.584H165.205V21.504H163.061V25.008C163.061 25.3707 163.152 25.6533 163.333 25.856C163.525 26.048 163.792 26.144 164.133 26.144C164.528 26.144 164.864 26.0373 165.141 25.824L165.813 27.584ZM172.579 27.584C172.334 27.7653 172.03 27.904 171.667 28C171.315 28.0853 170.942 28.128 170.547 28.128C169.523 28.128 168.728 27.8667 168.163 27.344C167.608 26.8213 167.331 26.0533 167.331 25.04V21.504H166.003V19.584H167.331V17.488H169.827V19.584H171.971V21.504H169.827V25.008C169.827 25.3707 169.918 25.6533 170.099 25.856C170.291 26.048 170.558 26.144 170.899 26.144C171.294 26.144 171.63 26.0373 171.907 25.824L172.579 27.584ZM177.811 28.128C176.904 28.128 176.088 27.9413 175.363 27.568C174.648 27.184 174.088 26.656 173.683 25.984C173.277 25.312 173.075 24.5493 173.075 23.696C173.075 22.8427 173.277 22.08 173.683 21.408C174.088 20.736 174.648 20.2133 175.363 19.84C176.088 19.456 176.904 19.264 177.811 19.264C178.717 19.264 179.528 19.456 180.243 19.84C180.957 20.2133 181.517 20.736 181.923 21.408C182.328 22.08 182.531 22.8427 182.531 23.696C182.531 24.5493 182.328 25.312 181.923 25.984C181.517 26.656 180.957 27.184 180.243 27.568C179.528 27.9413 178.717 28.128 177.811 28.128ZM177.811 26.08C178.451 26.08 178.973 25.8667 179.379 25.44C179.795 25.0027 180.003 24.4213 180.003 23.696C180.003 22.9707 179.795 22.3947 179.379 21.968C178.973 21.5307 178.451 21.312 177.811 21.312C177.171 21.312 176.643 21.5307 176.227 21.968C175.811 22.3947 175.603 22.9707 175.603 23.696C175.603 24.4213 175.811 25.0027 176.227 25.44C176.643 25.8667 177.171 26.08 177.811 26.08ZM189.431 19.264C190.498 19.264 191.356 19.584 192.007 20.224C192.668 20.864 192.999 21.8133 192.999 23.072V28H190.503V23.456C190.503 22.7733 190.354 22.2667 190.055 21.936C189.756 21.5947 189.324 21.424 188.759 21.424C188.13 21.424 187.628 21.6213 187.255 22.016C186.882 22.4 186.695 22.976 186.695 23.744V28H184.199V19.392H186.583V20.4C186.914 20.0373 187.324 19.76 187.815 19.568C188.306 19.3653 188.844 19.264 189.431 19.264Z" fill="white"/>
<rect y="69" width="331" height="45" rx="22.5" fill="#349EFF" fill-opacity="0.7"/>
<path d="M151.858 85.8V97H149.266V92.408H144.178V97H141.586V85.8H144.178V90.216H149.266V85.8H151.858ZM158.428 97.128C157.521 97.128 156.705 96.9413 155.98 96.568C155.265 96.184 154.705 95.656 154.3 94.984C153.894 94.312 153.692 93.5493 153.692 92.696C153.692 91.8427 153.894 91.08 154.3 90.408C154.705 89.736 155.265 89.2133 155.98 88.84C156.705 88.456 157.521 88.264 158.428 88.264C159.334 88.264 160.145 88.456 160.86 88.84C161.574 89.2133 162.134 89.736 162.54 90.408C162.945 91.08 163.148 91.8427 163.148 92.696C163.148 93.5493 162.945 94.312 162.54 94.984C162.134 95.656 161.574 96.184 160.86 96.568C160.145 96.9413 159.334 97.128 158.428 97.128ZM158.428 95.08C159.068 95.08 159.59 94.8667 159.996 94.44C160.412 94.0027 160.62 93.4213 160.62 92.696C160.62 91.9707 160.412 91.3947 159.996 90.968C159.59 90.5307 159.068 90.312 158.428 90.312C157.788 90.312 157.26 90.5307 156.844 90.968C156.428 91.3947 156.22 91.9707 156.22 92.696C156.22 93.4213 156.428 94.0027 156.844 94.44C157.26 94.8667 157.788 95.08 158.428 95.08ZM173.126 88.392L169.494 97H166.918L163.302 88.392H165.878L168.262 94.248L170.726 88.392H173.126ZM182.342 92.728C182.342 92.76 182.326 92.984 182.294 93.4H175.782C175.899 93.9333 176.176 94.3547 176.614 94.664C177.051 94.9733 177.595 95.128 178.246 95.128C178.694 95.128 179.088 95.064 179.43 94.936C179.782 94.7973 180.107 94.584 180.406 94.296L181.734 95.736C180.923 96.664 179.739 97.128 178.182 97.128C177.211 97.128 176.352 96.9413 175.606 96.568C174.859 96.184 174.283 95.656 173.878 94.984C173.472 94.312 173.27 93.5493 173.27 92.696C173.27 91.8533 173.467 91.096 173.862 90.424C174.267 89.7413 174.816 89.2133 175.51 88.84C176.214 88.456 176.998 88.264 177.862 88.264C178.704 88.264 179.467 88.4453 180.15 88.808C180.832 89.1707 181.366 89.6933 181.75 90.376C182.144 91.048 182.342 91.832 182.342 92.728ZM177.878 90.152C177.312 90.152 176.838 90.312 176.454 90.632C176.07 90.952 175.835 91.3893 175.75 91.944H179.99C179.904 91.4 179.67 90.968 179.286 90.648C178.902 90.3173 178.432 90.152 177.878 90.152ZM186.388 89.528C186.686 89.112 187.086 88.7973 187.588 88.584C188.1 88.3707 188.686 88.264 189.348 88.264V90.568C189.07 90.5467 188.884 90.536 188.788 90.536C188.073 90.536 187.513 90.7387 187.108 91.144C186.702 91.5387 186.5 92.136 186.5 92.936V97H184.004V88.392H186.388V89.528Z" fill="white"/>
<rect x="353" y="69" width="331" height="45" rx="22.5" fill="#349EFF" fill-opacity="0.5"/>
<path d="M478.359 85.8H483.447C484.663 85.8 485.735 86.0347 486.663 86.504C487.602 86.9627 488.327 87.6133 488.839 88.456C489.362 89.2987 489.623 90.28 489.623 91.4C489.623 92.52 489.362 93.5013 488.839 94.344C488.327 95.1867 487.602 95.8427 486.663 96.312C485.735 96.7707 484.663 97 483.447 97H478.359V85.8ZM483.319 94.872C484.439 94.872 485.33 94.5627 485.991 93.944C486.663 93.3147 486.999 92.4667 486.999 91.4C486.999 90.3333 486.663 89.4907 485.991 88.872C485.33 88.2427 484.439 87.928 483.319 87.928H480.951V94.872H483.319ZM491.402 88.392H493.898V97H491.402V88.392ZM492.65 87.192C492.191 87.192 491.818 87.0587 491.53 86.792C491.242 86.5253 491.098 86.1947 491.098 85.8C491.098 85.4053 491.242 85.0747 491.53 84.808C491.818 84.5413 492.191 84.408 492.65 84.408C493.109 84.408 493.482 84.536 493.77 84.792C494.058 85.048 494.202 85.368 494.202 85.752C494.202 86.168 494.058 86.5147 493.77 86.792C493.482 87.0587 493.109 87.192 492.65 87.192ZM499.111 97.128C498.396 97.128 497.697 97.0427 497.015 96.872C496.332 96.6907 495.788 96.4667 495.383 96.2L496.215 94.408C496.599 94.6533 497.063 94.856 497.607 95.016C498.151 95.1653 498.684 95.24 499.207 95.24C500.263 95.24 500.791 94.9787 500.791 94.456C500.791 94.2107 500.647 94.0347 500.359 93.928C500.071 93.8213 499.628 93.7307 499.031 93.656C498.327 93.5493 497.745 93.4267 497.287 93.288C496.828 93.1493 496.428 92.904 496.087 92.552C495.756 92.2 495.59 91.6987 495.59 91.048C495.59 90.504 495.745 90.024 496.055 89.608C496.375 89.1813 496.833 88.8507 497.431 88.616C498.039 88.3813 498.753 88.264 499.575 88.264C500.183 88.264 500.785 88.3333 501.383 88.472C501.991 88.6 502.492 88.7813 502.887 89.016L502.055 90.792C501.297 90.3653 500.471 90.152 499.575 90.152C499.041 90.152 498.641 90.2267 498.375 90.376C498.108 90.5253 497.975 90.7173 497.975 90.952C497.975 91.2187 498.119 91.4053 498.407 91.512C498.695 91.6187 499.153 91.72 499.783 91.816C500.487 91.9333 501.063 92.0613 501.511 92.2C501.959 92.328 502.348 92.568 502.679 92.92C503.009 93.272 503.175 93.7627 503.175 94.392C503.175 94.9253 503.015 95.4 502.695 95.816C502.375 96.232 501.905 96.5573 501.287 96.792C500.679 97.016 499.953 97.128 499.111 97.128ZM507.611 97.128C506.896 97.128 506.197 97.0427 505.515 96.872C504.832 96.6907 504.288 96.4667 503.883 96.2L504.715 94.408C505.099 94.6533 505.563 94.856 506.107 95.016C506.651 95.1653 507.184 95.24 507.707 95.24C508.763 95.24 509.291 94.9787 509.291 94.456C509.291 94.2107 509.147 94.0347 508.859 93.928C508.571 93.8213 508.128 93.7307 507.531 93.656C506.827 93.5493 506.245 93.4267 505.787 93.288C505.328 93.1493 504.928 92.904 504.587 92.552C504.256 92.2 504.09 91.6987 504.09 91.048C504.09 90.504 504.245 90.024 504.555 89.608C504.875 89.1813 505.333 88.8507 505.931 88.616C506.539 88.3813 507.253 88.264 508.075 88.264C508.683 88.264 509.285 88.3333 509.883 88.472C510.491 88.6 510.992 88.7813 511.387 89.016L510.555 90.792C509.797 90.3653 508.971 90.152 508.075 90.152C507.541 90.152 507.141 90.2267 506.875 90.376C506.608 90.5253 506.475 90.7173 506.475 90.952C506.475 91.2187 506.619 91.4053 506.907 91.512C507.195 91.6187 507.653 91.72 508.283 91.816C508.987 91.9333 509.563 92.0613 510.011 92.2C510.459 92.328 510.848 92.568 511.179 92.92C511.509 93.272 511.675 93.7627 511.675 94.392C511.675 94.9253 511.515 95.4 511.195 95.816C510.875 96.232 510.405 96.5573 509.787 96.792C509.179 97.016 508.453 97.128 507.611 97.128ZM516.687 88.264C518.02 88.264 519.044 88.584 519.759 89.224C520.473 89.8533 520.831 90.808 520.831 92.088V97H518.495V95.928C518.025 96.728 517.151 97.128 515.871 97.128C515.209 97.128 514.633 97.016 514.143 96.792C513.663 96.568 513.295 96.2587 513.039 95.864C512.783 95.4693 512.655 95.0213 512.655 94.52C512.655 93.72 512.953 93.0907 513.551 92.632C514.159 92.1733 515.092 91.944 516.351 91.944H518.335C518.335 91.4 518.169 90.984 517.839 90.696C517.508 90.3973 517.012 90.248 516.351 90.248C515.892 90.248 515.439 90.3227 514.991 90.472C514.553 90.6107 514.18 90.8027 513.871 91.048L512.975 89.304C513.444 88.9733 514.004 88.7173 514.655 88.536C515.316 88.3547 515.993 88.264 516.687 88.264ZM516.495 95.448C516.921 95.448 517.3 95.352 517.631 95.16C517.961 94.9573 518.196 94.664 518.335 94.28V93.4H516.623C515.599 93.4 515.087 93.736 515.087 94.408C515.087 94.728 515.209 94.984 515.455 95.176C515.711 95.3573 516.057 95.448 516.495 95.448ZM528.178 88.264C528.978 88.264 529.703 88.4507 530.354 88.824C531.015 89.1867 531.532 89.704 531.906 90.376C532.279 91.0373 532.466 91.8107 532.466 92.696C532.466 93.5813 532.279 94.36 531.906 95.032C531.532 95.6933 531.015 96.2107 530.354 96.584C529.703 96.9467 528.978 97.128 528.178 97.128C526.994 97.128 526.092 96.7547 525.474 96.008V97H523.09V85.128H525.586V89.304C526.215 88.6107 527.079 88.264 528.178 88.264ZM527.746 95.08C528.386 95.08 528.908 94.8667 529.314 94.44C529.73 94.0027 529.938 93.4213 529.938 92.696C529.938 91.9707 529.73 91.3947 529.314 90.968C528.908 90.5307 528.386 90.312 527.746 90.312C527.106 90.312 526.578 90.5307 526.161 90.968C525.756 91.3947 525.554 91.9707 525.554 92.696C525.554 93.4213 525.756 94.0027 526.161 94.44C526.578 94.8667 527.106 95.08 527.746 95.08ZM534.136 85.128H536.632V97H534.136V85.128ZM547.381 92.728C547.381 92.76 547.365 92.984 547.333 93.4H540.821C540.938 93.9333 541.216 94.3547 541.653 94.664C542.09 94.9733 542.634 95.128 543.285 95.128C543.733 95.128 544.128 95.064 544.469 94.936C544.821 94.7973 545.146 94.584 545.445 94.296L546.773 95.736C545.962 96.664 544.778 97.128 543.221 97.128C542.25 97.128 541.392 96.9413 540.645 96.568C539.898 96.184 539.322 95.656 538.917 94.984C538.512 94.312 538.309 93.5493 538.309 92.696C538.309 91.8533 538.506 91.096 538.901 90.424C539.306 89.7413 539.856 89.2133 540.549 88.84C541.253 88.456 542.037 88.264 542.901 88.264C543.744 88.264 544.506 88.4453 545.189 88.808C545.872 89.1707 546.405 89.6933 546.789 90.376C547.184 91.048 547.381 91.832 547.381 92.728ZM542.917 90.152C542.352 90.152 541.877 90.312 541.493 90.632C541.109 90.952 540.874 91.3893 540.789 91.944H545.029C544.944 91.4 544.709 90.968 544.325 90.648C543.941 90.3173 543.472 90.152 542.917 90.152ZM557.811 85.128V97H555.427V96.008C554.808 96.7547 553.912 97.128 552.739 97.128C551.928 97.128 551.192 96.9467 550.531 96.584C549.88 96.2213 549.368 95.704 548.995 95.032C548.621 94.36 548.435 93.5813 548.435 92.696C548.435 91.8107 548.621 91.032 548.995 90.36C549.368 89.688 549.88 89.1707 550.531 88.808C551.192 88.4453 551.928 88.264 552.739 88.264C553.837 88.264 554.696 88.6107 555.315 89.304V85.128H557.811ZM553.171 95.08C553.8 95.08 554.323 94.8667 554.739 94.44C555.155 94.0027 555.363 93.4213 555.363 92.696C555.363 91.9707 555.155 91.3947 554.739 90.968C554.323 90.5307 553.8 90.312 553.171 90.312C552.531 90.312 552.003 90.5307 551.587 90.968C551.171 91.3947 550.963 91.9707 550.963 92.696C550.963 93.4213 551.171 94.0027 551.587 94.44C552.003 94.8667 552.531 95.08 553.171 95.08Z" fill="white" fill-opacity="0.5"/>
<rect x="353" width="331" height="45" rx="22.5" fill="#349EFF"/>
<path d="M490.887 16.8C491.879 16.8 492.738 16.9653 493.463 17.296C494.199 17.6267 494.764 18.096 495.159 18.704C495.554 19.312 495.751 20.032 495.751 20.864C495.751 21.6853 495.554 22.4053 495.159 23.024C494.764 23.632 494.199 24.1013 493.463 24.432C492.738 24.752 491.879 24.912 490.887 24.912H488.631V28H486.039V16.8H490.887ZM490.743 22.8C491.522 22.8 492.114 22.6347 492.519 22.304C492.924 21.9627 493.127 21.4827 493.127 20.864C493.127 20.2347 492.924 19.7547 492.519 19.424C492.114 19.0827 491.522 18.912 490.743 18.912H488.631V22.8H490.743ZM499.809 20.528C500.108 20.112 500.508 19.7973 501.009 19.584C501.521 19.3707 502.108 19.264 502.769 19.264V21.568C502.492 21.5467 502.305 21.536 502.209 21.536C501.495 21.536 500.935 21.7387 500.529 22.144C500.124 22.5387 499.921 23.136 499.921 23.936V28H497.425V19.392H499.809V20.528ZM512.607 23.728C512.607 23.76 512.591 23.984 512.559 24.4H506.047C506.165 24.9333 506.442 25.3547 506.879 25.664C507.317 25.9733 507.861 26.128 508.511 26.128C508.959 26.128 509.354 26.064 509.695 25.936C510.047 25.7973 510.373 25.584 510.671 25.296L511.999 26.736C511.189 27.664 510.005 28.128 508.447 28.128C507.477 28.128 506.618 27.9413 505.871 27.568C505.125 27.184 504.549 26.656 504.143 25.984C503.738 25.312 503.535 24.5493 503.535 23.696C503.535 22.8533 503.733 22.096 504.127 21.424C504.533 20.7413 505.082 20.2133 505.775 19.84C506.479 19.456 507.263 19.264 508.127 19.264C508.97 19.264 509.733 19.4453 510.415 19.808C511.098 20.1707 511.631 20.6933 512.015 21.376C512.41 22.048 512.607 22.832 512.607 23.728ZM508.143 21.152C507.578 21.152 507.103 21.312 506.719 21.632C506.335 21.952 506.101 22.3893 506.015 22.944H510.255C510.17 22.4 509.935 21.968 509.551 21.648C509.167 21.3173 508.698 21.152 508.143 21.152ZM517.165 28.128C516.451 28.128 515.752 28.0427 515.069 27.872C514.387 27.6907 513.843 27.4667 513.437 27.2L514.269 25.408C514.653 25.6533 515.117 25.856 515.661 26.016C516.205 26.1653 516.739 26.24 517.261 26.24C518.317 26.24 518.845 25.9787 518.845 25.456C518.845 25.2107 518.701 25.0347 518.413 24.928C518.125 24.8213 517.683 24.7307 517.085 24.656C516.381 24.5493 515.8 24.4267 515.341 24.288C514.883 24.1493 514.483 23.904 514.141 23.552C513.811 23.2 513.645 22.6987 513.645 22.048C513.645 21.504 513.8 21.024 514.109 20.608C514.429 20.1813 514.888 19.8507 515.485 19.616C516.093 19.3813 516.808 19.264 517.629 19.264C518.237 19.264 518.84 19.3333 519.437 19.472C520.045 19.6 520.547 19.7813 520.941 20.016L520.109 21.792C519.352 21.3653 518.525 21.152 517.629 21.152C517.096 21.152 516.696 21.2267 516.429 21.376C516.163 21.5253 516.029 21.7173 516.029 21.952C516.029 22.2187 516.173 22.4053 516.461 22.512C516.749 22.6187 517.208 22.72 517.837 22.816C518.541 22.9333 519.117 23.0613 519.565 23.2C520.013 23.328 520.403 23.568 520.733 23.92C521.064 24.272 521.229 24.7627 521.229 25.392C521.229 25.9253 521.069 26.4 520.749 26.816C520.429 27.232 519.96 27.5573 519.341 27.792C518.733 28.016 518.008 28.128 517.165 28.128ZM525.665 28.128C524.951 28.128 524.252 28.0427 523.569 27.872C522.887 27.6907 522.343 27.4667 521.937 27.2L522.769 25.408C523.153 25.6533 523.617 25.856 524.161 26.016C524.705 26.1653 525.239 26.24 525.761 26.24C526.817 26.24 527.345 25.9787 527.345 25.456C527.345 25.2107 527.201 25.0347 526.913 24.928C526.625 24.8213 526.183 24.7307 525.585 24.656C524.881 24.5493 524.3 24.4267 523.841 24.288C523.383 24.1493 522.983 23.904 522.641 23.552C522.311 23.2 522.145 22.6987 522.145 22.048C522.145 21.504 522.3 21.024 522.609 20.608C522.929 20.1813 523.388 19.8507 523.985 19.616C524.593 19.3813 525.308 19.264 526.129 19.264C526.737 19.264 527.34 19.3333 527.937 19.472C528.545 19.6 529.047 19.7813 529.441 20.016L528.609 21.792C527.852 21.3653 527.025 21.152 526.129 21.152C525.596 21.152 525.196 21.2267 524.929 21.376C524.663 21.5253 524.529 21.7173 524.529 21.952C524.529 22.2187 524.673 22.4053 524.961 22.512C525.249 22.6187 525.708 22.72 526.337 22.816C527.041 22.9333 527.617 23.0613 528.065 23.2C528.513 23.328 528.903 23.568 529.233 23.92C529.564 24.272 529.729 24.7627 529.729 25.392C529.729 25.9253 529.569 26.4 529.249 26.816C528.929 27.232 528.46 27.5573 527.841 27.792C527.233 28.016 526.508 28.128 525.665 28.128ZM539.701 23.728C539.701 23.76 539.685 23.984 539.653 24.4H533.141C533.259 24.9333 533.536 25.3547 533.973 25.664C534.411 25.9733 534.955 26.128 535.605 26.128C536.053 26.128 536.448 26.064 536.789 25.936C537.141 25.7973 537.467 25.584 537.765 25.296L539.093 26.736C538.283 27.664 537.099 28.128 535.541 28.128C534.571 28.128 533.712 27.9413 532.965 27.568C532.219 27.184 531.643 26.656 531.237 25.984C530.832 25.312 530.629 24.5493 530.629 23.696C530.629 22.8533 530.827 22.096 531.221 21.424C531.627 20.7413 532.176 20.2133 532.869 19.84C533.573 19.456 534.357 19.264 535.221 19.264C536.064 19.264 536.827 19.4453 537.509 19.808C538.192 20.1707 538.725 20.6933 539.109 21.376C539.504 22.048 539.701 22.832 539.701 23.728ZM535.237 21.152C534.672 21.152 534.197 21.312 533.813 21.632C533.429 21.952 533.195 22.3893 533.109 22.944H537.349C537.264 22.4 537.029 21.968 536.645 21.648C536.261 21.3173 535.792 21.152 535.237 21.152ZM550.131 16.128V28H547.747V27.008C547.128 27.7547 546.232 28.128 545.059 28.128C544.248 28.128 543.512 27.9467 542.851 27.584C542.2 27.2213 541.688 26.704 541.315 26.032C540.942 25.36 540.755 24.5813 540.755 23.696C540.755 22.8107 540.942 22.032 541.315 21.36C541.688 20.688 542.2 20.1707 542.851 19.808C543.512 19.4453 544.248 19.264 545.059 19.264C546.158 19.264 547.016 19.6107 547.635 20.304V16.128H550.131ZM545.491 26.08C546.12 26.08 546.643 25.8667 547.059 25.44C547.475 25.0027 547.683 24.4213 547.683 23.696C547.683 22.9707 547.475 22.3947 547.059 21.968C546.643 21.5307 546.12 21.312 545.491 21.312C544.851 21.312 544.323 21.5307 543.907 21.968C543.491 22.3947 543.283 22.9707 543.283 23.696C543.283 24.4213 543.491 25.0027 543.907 25.44C544.323 25.8667 544.851 26.08 545.491 26.08Z" fill="white"/>
</svg>
