<svg width="200" height="30" viewBox="0 0 200 30" fill="none" xmlns="http://www.w3.org/2000/svg">
<path d="M28.3333 0H1.66667C1.22464 0 0.800716 0.175595 0.488155 0.488155C0.175595 0.800716 0 1.22464 0 1.66667V28.3333C0 28.7754 0.175595 29.1993 0.488155 29.5118C0.800716 29.8244 1.22464 30 1.66667 30H28.3333C28.7754 30 29.1993 29.8244 29.5118 29.5118C29.8244 29.1993 30 28.7754 30 28.3333V1.66667C30 1.22464 29.8244 0.800716 29.5118 0.488155C29.1993 0.175595 28.7754 0 28.3333 0V0ZM24.9233 7.10833L23.3133 8.65C23.2453 8.70187 23.1929 8.77143 23.1617 8.85108C23.1306 8.93074 23.1219 9.01742 23.1367 9.10167V20.4367C23.1219 20.5209 23.1306 20.6076 23.1617 20.6873C23.1929 20.7669 23.2453 20.8365 23.3133 20.8883L24.8833 22.4317V22.7717H16.9817V22.4317L18.61 20.8517C18.7717 20.6917 18.7717 20.6433 18.7717 20.4V11.2367L14.245 22.73H13.6317L8.36333 11.2367V18.94C8.34253 19.1001 8.3581 19.2628 8.40889 19.416C8.45967 19.5692 8.54437 19.709 8.65667 19.825L10.775 22.3933V22.7317H4.76833V22.3933L6.88667 19.825C6.99816 19.7091 7.08096 19.5686 7.12843 19.415C7.17589 19.2613 7.1867 19.0986 7.16 18.94V10.0333C7.17246 9.91141 7.15602 9.78827 7.112 9.67389C7.06799 9.55951 6.99764 9.45712 6.90667 9.375L5.02333 7.10833V6.77H10.8667L15.3833 16.675L19.3533 6.77H24.925V7.10833H24.9233Z" fill="black"/>
<g clip-path="url(#clip0)">
<path d="M110.556 25.5666H106.119V18.6037C106.119 16.9434 106.084 14.8097 103.799 14.8097C101.485 14.8097 101.133 16.6106 101.133 18.4809V25.5656H96.6897V11.2491H100.957V13.2019H101.014C101.611 12.0741 103.061 10.8881 105.225 10.8881C109.726 10.8881 110.561 13.8516 110.561 17.7047V25.5656L110.556 25.5666ZM91.6703 9.2925C91.3312 9.29262 90.9954 9.22584 90.6821 9.09598C90.3688 8.96613 90.0843 8.77574 89.8447 8.53573C89.6051 8.29572 89.4153 8.0108 89.286 7.6973C89.1567 7.3838 89.0905 7.04787 89.0912 6.70875C89.0918 6.19833 89.2437 5.69953 89.5277 5.27543C89.8117 4.85133 90.2151 4.52096 90.6869 4.3261C91.1586 4.13124 91.6776 4.08064 92.1781 4.1807C92.6786 4.28075 93.1382 4.52697 93.4988 4.88822C93.8594 5.24947 94.1048 5.70953 94.204 6.21023C94.3031 6.71093 94.2516 7.22978 94.0559 7.70119C93.8601 8.1726 93.529 8.57539 93.1044 8.85864C92.6798 9.14189 92.1807 9.29287 91.6703 9.2925V9.2925ZM93.8959 25.5666H89.4437V11.25H93.8959V25.5666ZM112.784 0H87.2125C85.9909 0 85 0.966562 85 2.16281V27.8381C85 29.0344 85.9909 30.0009 87.2125 30.0009H112.779C113.999 30.0009 115 29.0344 115 27.8381V2.16281C115 0.966562 113.999 0 112.779 0H112.784Z" fill="black"/>
</g>
<path fill-rule="evenodd" clip-rule="evenodd" d="M170.017 2.09439C170.017 1.53892 170.192 1.00621 170.505 0.613432C170.817 0.220658 171.241 0 171.683 0H198.333C198.775 0 199.199 0.220658 199.512 0.613432C199.824 1.00621 200 1.53892 200 2.09439V25.8112C200 26.9222 199.649 27.9876 199.024 28.7731C198.399 29.5587 197.551 30 196.667 30H173.333C172.449 30 171.601 29.5587 170.976 28.7731C170.351 27.9876 170 26.9222 170 25.8112V2.77297C170 2.67244 170.005 2.5761 170.017 2.47975V2.09439V2.09439ZM173.333 6.7523V25.8112H196.667V6.7523L188.535 16.9708C187.597 18.1487 186.326 18.8104 185 18.8104C183.674 18.8104 182.403 18.1487 181.465 16.9708L173.333 6.74812V6.7523ZM175.953 4.12175H194.047L186.18 14.0073C186.025 14.202 185.841 14.3565 185.639 14.4619C185.437 14.5673 185.22 14.6215 185.001 14.6215C184.782 14.6215 184.565 14.5673 184.363 14.4619C184.16 14.3565 183.976 14.202 183.822 14.0073L175.955 4.12175H175.953Z" fill="black"/>
<defs>
<clipPath id="clip0">
<rect width="30" height="30" fill="white" transform="translate(85)"/>
</clipPath>
</defs>
</svg>
