<svg width="947" height="339" viewBox="0 0 947 339" fill="none" xmlns="http://www.w3.org/2000/svg">
<path d="M33.5169 75.868C33.5169 74.644 33.7929 73.546 34.3449 72.574C34.8969 71.59 35.6469 70.822 36.5949 70.27C37.5549 69.718 38.6169 69.442 39.7809 69.442C41.1489 69.442 42.3429 69.772 43.3629 70.432C44.3829 71.092 45.1269 72.028 45.5949 73.24H43.6329C43.2849 72.484 42.7809 71.902 42.1209 71.494C41.4729 71.086 40.6929 70.882 39.7809 70.882C38.9049 70.882 38.1189 71.086 37.4229 71.494C36.7269 71.902 36.1809 72.484 35.7849 73.24C35.3889 73.984 35.1909 74.86 35.1909 75.868C35.1909 76.864 35.3889 77.74 35.7849 78.496C36.1809 79.24 36.7269 79.816 37.4229 80.224C38.1189 80.632 38.9049 80.836 39.7809 80.836C40.6929 80.836 41.4729 80.638 42.1209 80.242C42.7809 79.834 43.2849 79.252 43.6329 78.496H45.5949C45.1269 79.696 44.3829 80.626 43.3629 81.286C42.3429 81.934 41.1489 82.258 39.7809 82.258C38.6169 82.258 37.5549 81.988 36.5949 81.448C35.6469 80.896 34.8969 80.134 34.3449 79.162C33.7929 78.19 33.5169 77.092 33.5169 75.868ZM52.9291 72.106C53.6731 72.106 54.3451 72.268 54.9451 72.592C55.5451 72.904 56.0131 73.378 56.3491 74.014C56.6971 74.65 56.8711 75.424 56.8711 76.336V82.15H55.2511V76.57C55.2511 75.586 55.0051 74.836 54.5131 74.32C54.0211 73.792 53.3491 73.528 52.4971 73.528C51.6331 73.528 50.9431 73.798 50.4271 74.338C49.9231 74.878 49.6711 75.664 49.6711 76.696V82.15H48.0331V68.83H49.6711V73.69C49.9951 73.186 50.4391 72.796 51.0031 72.52C51.5791 72.244 52.2211 72.106 52.9291 72.106ZM61.1848 73.888C61.4728 73.324 61.8808 72.886 62.4088 72.574C62.9488 72.262 63.6028 72.106 64.3708 72.106V73.798H63.9388C62.1028 73.798 61.1848 74.794 61.1848 76.786V82.15H59.5468V72.286H61.1848V73.888ZM70.5637 82.312C69.6397 82.312 68.7997 82.102 68.0437 81.682C67.2997 81.262 66.7117 80.668 66.2797 79.9C65.8597 79.12 65.6497 78.22 65.6497 77.2C65.6497 76.192 65.8657 75.304 66.2977 74.536C66.7417 73.756 67.3417 73.162 68.0977 72.754C68.8537 72.334 69.6997 72.124 70.6357 72.124C71.5717 72.124 72.4177 72.334 73.1737 72.754C73.9297 73.162 74.5237 73.75 74.9557 74.518C75.3997 75.286 75.6217 76.18 75.6217 77.2C75.6217 78.22 75.3937 79.12 74.9377 79.9C74.4937 80.668 73.8877 81.262 73.1197 81.682C72.3517 82.102 71.4997 82.312 70.5637 82.312ZM70.5637 80.872C71.1517 80.872 71.7037 80.734 72.2197 80.458C72.7357 80.182 73.1497 79.768 73.4617 79.216C73.7857 78.664 73.9477 77.992 73.9477 77.2C73.9477 76.408 73.7917 75.736 73.4797 75.184C73.1677 74.632 72.7597 74.224 72.2557 73.96C71.7517 73.684 71.2057 73.546 70.6177 73.546C70.0177 73.546 69.4657 73.684 68.9617 73.96C68.4697 74.224 68.0737 74.632 67.7737 75.184C67.4737 75.736 67.3237 76.408 67.3237 77.2C67.3237 78.004 67.4677 78.682 67.7557 79.234C68.0557 79.786 68.4517 80.2 68.9437 80.476C69.4357 80.74 69.9757 80.872 70.5637 80.872ZM82.5813 72.106C83.7813 72.106 84.7533 72.472 85.4973 73.204C86.2413 73.924 86.6133 74.968 86.6133 76.336V82.15H84.9933V76.57C84.9933 75.586 84.7473 74.836 84.2553 74.32C83.7633 73.792 83.0913 73.528 82.2393 73.528C81.3753 73.528 80.6853 73.798 80.1693 74.338C79.6653 74.878 79.4133 75.664 79.4133 76.696V82.15H77.7753V72.286H79.4133V73.69C79.7373 73.186 80.1753 72.796 80.7273 72.52C81.2913 72.244 81.9093 72.106 82.5813 72.106ZM90.135 70.684C89.823 70.684 89.559 70.576 89.343 70.36C89.127 70.144 89.019 69.88 89.019 69.568C89.019 69.256 89.127 68.992 89.343 68.776C89.559 68.56 89.823 68.452 90.135 68.452C90.435 68.452 90.687 68.56 90.891 68.776C91.107 68.992 91.215 69.256 91.215 69.568C91.215 69.88 91.107 70.144 90.891 70.36C90.687 70.576 90.435 70.684 90.135 70.684ZM90.927 72.286V82.15H89.289V72.286H90.927ZM93.1067 77.2C93.1067 76.18 93.3107 75.292 93.7187 74.536C94.1267 73.768 94.6907 73.174 95.4107 72.754C96.1427 72.334 96.9767 72.124 97.9127 72.124C99.1247 72.124 100.121 72.418 100.901 73.006C101.693 73.594 102.215 74.41 102.467 75.454H100.703C100.535 74.854 100.205 74.38 99.7127 74.032C99.2327 73.684 98.6327 73.51 97.9127 73.51C96.9767 73.51 96.2207 73.834 95.6447 74.482C95.0687 75.118 94.7807 76.024 94.7807 77.2C94.7807 78.388 95.0687 79.306 95.6447 79.954C96.2207 80.602 96.9767 80.926 97.9127 80.926C98.6327 80.926 99.2327 80.758 99.7127 80.422C100.193 80.086 100.523 79.606 100.703 78.982H102.467C102.203 79.99 101.675 80.8 100.883 81.412C100.091 82.012 99.1007 82.312 97.9127 82.312C96.9767 82.312 96.1427 82.102 95.4107 81.682C94.6907 81.262 94.1267 80.668 93.7187 79.9C93.3107 79.132 93.1067 78.232 93.1067 77.2ZM108.839 77.182C108.839 76.174 109.043 75.292 109.451 74.536C109.859 73.768 110.417 73.174 111.125 72.754C111.845 72.334 112.643 72.124 113.519 72.124C114.383 72.124 115.133 72.31 115.769 72.682C116.405 73.054 116.879 73.522 117.191 74.086V72.286H118.847V82.15H117.191V80.314C116.867 80.89 116.381 81.37 115.733 81.754C115.097 82.126 114.353 82.312 113.501 82.312C112.625 82.312 111.833 82.096 111.125 81.664C110.417 81.232 109.859 80.626 109.451 79.846C109.043 79.066 108.839 78.178 108.839 77.182ZM117.191 77.2C117.191 76.456 117.041 75.808 116.741 75.256C116.441 74.704 116.033 74.284 115.517 73.996C115.013 73.696 114.455 73.546 113.843 73.546C113.231 73.546 112.673 73.69 112.169 73.978C111.665 74.266 111.263 74.686 110.963 75.238C110.663 75.79 110.513 76.438 110.513 77.182C110.513 77.938 110.663 78.598 110.963 79.162C111.263 79.714 111.665 80.14 112.169 80.44C112.673 80.728 113.231 80.872 113.843 80.872C114.455 80.872 115.013 80.728 115.517 80.44C116.033 80.14 116.441 79.714 116.741 79.162C117.041 78.598 117.191 77.944 117.191 77.2ZM126.421 72.106C127.621 72.106 128.593 72.472 129.337 73.204C130.081 73.924 130.453 74.968 130.453 76.336V82.15H128.833V76.57C128.833 75.586 128.587 74.836 128.095 74.32C127.603 73.792 126.931 73.528 126.079 73.528C125.215 73.528 124.525 73.798 124.009 74.338C123.505 74.878 123.253 75.664 123.253 76.696V82.15H121.615V72.286H123.253V73.69C123.577 73.186 124.015 72.796 124.567 72.52C125.131 72.244 125.749 72.106 126.421 72.106ZM138.277 82.15L135.937 78.478L133.687 82.15H131.977L135.163 77.254L131.977 72.286H133.831L136.171 75.94L138.403 72.286H140.113L136.945 77.164L140.131 82.15H138.277ZM142.588 70.684C142.276 70.684 142.012 70.576 141.796 70.36C141.58 70.144 141.472 69.88 141.472 69.568C141.472 69.256 141.58 68.992 141.796 68.776C142.012 68.56 142.276 68.452 142.588 68.452C142.888 68.452 143.14 68.56 143.344 68.776C143.56 68.992 143.668 69.256 143.668 69.568C143.668 69.88 143.56 70.144 143.344 70.36C143.14 70.576 142.888 70.684 142.588 70.684ZM143.38 72.286V82.15H141.742V72.286H143.38ZM155.172 76.84C155.172 77.152 155.154 77.482 155.118 77.83H147.234C147.294 78.802 147.624 79.564 148.224 80.116C148.836 80.656 149.574 80.926 150.438 80.926C151.146 80.926 151.734 80.764 152.202 80.44C152.682 80.104 153.018 79.66 153.21 79.108H154.974C154.71 80.056 154.182 80.83 153.39 81.43C152.598 82.018 151.614 82.312 150.438 82.312C149.502 82.312 148.662 82.102 147.918 81.682C147.186 81.262 146.61 80.668 146.19 79.9C145.77 79.12 145.56 78.22 145.56 77.2C145.56 76.18 145.764 75.286 146.172 74.518C146.58 73.75 147.15 73.162 147.882 72.754C148.626 72.334 149.478 72.124 150.438 72.124C151.374 72.124 152.202 72.328 152.922 72.736C153.642 73.144 154.194 73.708 154.578 74.428C154.974 75.136 155.172 75.94 155.172 76.84ZM153.48 76.498C153.48 75.874 153.342 75.34 153.066 74.896C152.79 74.44 152.412 74.098 151.932 73.87C151.464 73.63 150.942 73.51 150.366 73.51C149.538 73.51 148.83 73.774 148.242 74.302C147.666 74.83 147.336 75.562 147.252 76.498H153.48ZM159.332 73.636V79.45C159.332 79.93 159.434 80.272 159.638 80.476C159.842 80.668 160.196 80.764 160.7 80.764H161.906V82.15H160.43C159.518 82.15 158.834 81.94 158.378 81.52C157.922 81.1 157.694 80.41 157.694 79.45V73.636H156.416V72.286H157.694V69.802H159.332V72.286H161.906V73.636H159.332ZM172.387 72.286L166.447 86.794H164.755L166.699 82.042L162.721 72.286H164.539L167.635 80.278L170.695 72.286H172.387Z" fill="#0E2248"/>
<path d="M57.8893 267.354C59.2573 267.354 60.4393 267.612 61.4353 268.128C62.4433 268.632 63.2113 269.358 63.7393 270.306C64.2793 271.254 64.5493 272.37 64.5493 273.654C64.5493 274.938 64.2793 276.054 63.7393 277.002C63.2113 277.938 62.4433 278.658 61.4353 279.162C60.4393 279.654 59.2573 279.9 57.8893 279.9H53.9833V267.354H57.8893ZM57.8893 278.55C59.5093 278.55 60.7453 278.124 61.5973 277.272C62.4493 276.408 62.8753 275.202 62.8753 273.654C62.8753 272.094 62.4433 270.876 61.5793 270C60.7273 269.124 59.4973 268.686 57.8893 268.686H55.6213V278.55H57.8893ZM75.7099 274.59C75.7099 274.902 75.6919 275.232 75.6559 275.58H67.7719C67.8319 276.552 68.1619 277.314 68.7619 277.866C69.3739 278.406 70.1119 278.676 70.9759 278.676C71.6839 278.676 72.2719 278.514 72.7399 278.19C73.2199 277.854 73.5559 277.41 73.7479 276.858H75.5119C75.2479 277.806 74.7199 278.58 73.9279 279.18C73.1359 279.768 72.1519 280.062 70.9759 280.062C70.0399 280.062 69.1999 279.852 68.4559 279.432C67.7239 279.012 67.1479 278.418 66.7279 277.65C66.3079 276.87 66.0979 275.97 66.0979 274.95C66.0979 273.93 66.3019 273.036 66.7099 272.268C67.1179 271.5 67.6879 270.912 68.4199 270.504C69.1639 270.084 70.0159 269.874 70.9759 269.874C71.9119 269.874 72.7399 270.078 73.4599 270.486C74.1799 270.894 74.7319 271.458 75.1159 272.178C75.5119 272.886 75.7099 273.69 75.7099 274.59ZM74.0179 274.248C74.0179 273.624 73.8799 273.09 73.6039 272.646C73.3279 272.19 72.9499 271.848 72.4699 271.62C72.0019 271.38 71.4799 271.26 70.9039 271.26C70.0759 271.26 69.3679 271.524 68.7799 272.052C68.2039 272.58 67.8739 273.312 67.7899 274.248H74.0179ZM79.51 271.854C79.834 271.29 80.314 270.822 80.95 270.45C81.598 270.066 82.348 269.874 83.2 269.874C84.076 269.874 84.868 270.084 85.576 270.504C86.296 270.924 86.86 271.518 87.268 272.286C87.676 273.042 87.88 273.924 87.88 274.932C87.88 275.928 87.676 276.816 87.268 277.596C86.86 278.376 86.296 278.982 85.576 279.414C84.868 279.846 84.076 280.062 83.2 280.062C82.36 280.062 81.616 279.876 80.968 279.504C80.332 279.12 79.846 278.646 79.51 278.082V284.58H77.872V270.036H79.51V271.854ZM86.206 274.932C86.206 274.188 86.056 273.54 85.756 272.988C85.456 272.436 85.048 272.016 84.532 271.728C84.028 271.44 83.47 271.296 82.858 271.296C82.258 271.296 81.7 271.446 81.184 271.746C80.68 272.034 80.272 272.46 79.96 273.024C79.66 273.576 79.51 274.218 79.51 274.95C79.51 275.694 79.66 276.348 79.96 276.912C80.272 277.464 80.68 277.89 81.184 278.19C81.7 278.478 82.258 278.622 82.858 278.622C83.47 278.622 84.028 278.478 84.532 278.19C85.048 277.89 85.456 277.464 85.756 276.912C86.056 276.348 86.206 275.688 86.206 274.932ZM91.6741 271.638C91.9621 271.074 92.3701 270.636 92.8981 270.324C93.4381 270.012 94.0921 269.856 94.8601 269.856V271.548H94.4281C92.5921 271.548 91.6741 272.544 91.6741 274.536V279.9H90.0361V270.036H91.6741V271.638ZM105.751 274.59C105.751 274.902 105.733 275.232 105.697 275.58H97.8129C97.8729 276.552 98.2029 277.314 98.8029 277.866C99.4149 278.406 100.153 278.676 101.017 278.676C101.725 278.676 102.313 278.514 102.781 278.19C103.261 277.854 103.597 277.41 103.789 276.858H105.553C105.289 277.806 104.761 278.58 103.969 279.18C103.177 279.768 102.193 280.062 101.017 280.062C100.081 280.062 99.2409 279.852 98.4969 279.432C97.7649 279.012 97.1889 278.418 96.7689 277.65C96.3489 276.87 96.1389 275.97 96.1389 274.95C96.1389 273.93 96.3429 273.036 96.7509 272.268C97.1589 271.5 97.7289 270.912 98.4609 270.504C99.2049 270.084 100.057 269.874 101.017 269.874C101.953 269.874 102.781 270.078 103.501 270.486C104.221 270.894 104.773 271.458 105.157 272.178C105.553 272.886 105.751 273.69 105.751 274.59ZM104.059 274.248C104.059 273.624 103.921 273.09 103.645 272.646C103.369 272.19 102.991 271.848 102.511 271.62C102.043 271.38 101.521 271.26 100.945 271.26C100.117 271.26 99.4089 271.524 98.8209 272.052C98.2449 272.58 97.9149 273.312 97.8309 274.248H104.059ZM111.405 280.062C110.649 280.062 109.971 279.936 109.371 279.684C108.771 279.42 108.297 279.06 107.949 278.604C107.601 278.136 107.409 277.602 107.373 277.002H109.065C109.113 277.494 109.341 277.896 109.749 278.208C110.169 278.52 110.715 278.676 111.387 278.676C112.011 278.676 112.503 278.538 112.863 278.262C113.223 277.986 113.403 277.638 113.403 277.218C113.403 276.786 113.211 276.468 112.827 276.264C112.443 276.048 111.849 275.838 111.045 275.634C110.313 275.442 109.713 275.25 109.245 275.058C108.789 274.854 108.393 274.56 108.057 274.176C107.733 273.78 107.571 273.264 107.571 272.628C107.571 272.124 107.721 271.662 108.021 271.242C108.321 270.822 108.747 270.492 109.299 270.252C109.851 270 110.481 269.874 111.189 269.874C112.281 269.874 113.163 270.15 113.835 270.702C114.507 271.254 114.867 272.01 114.915 272.97H113.277C113.241 272.454 113.031 272.04 112.647 271.728C112.275 271.416 111.771 271.26 111.135 271.26C110.547 271.26 110.079 271.386 109.731 271.638C109.383 271.89 109.209 272.22 109.209 272.628C109.209 272.952 109.311 273.222 109.515 273.438C109.731 273.642 109.995 273.81 110.307 273.942C110.631 274.062 111.075 274.2 111.639 274.356C112.347 274.548 112.923 274.74 113.367 274.932C113.811 275.112 114.189 275.388 114.501 275.76C114.825 276.132 114.993 276.618 115.005 277.218C115.005 277.758 114.855 278.244 114.555 278.676C114.255 279.108 113.829 279.45 113.277 279.702C112.737 279.942 112.113 280.062 111.405 280.062ZM120.809 280.062C120.053 280.062 119.375 279.936 118.775 279.684C118.175 279.42 117.701 279.06 117.353 278.604C117.005 278.136 116.813 277.602 116.777 277.002H118.469C118.517 277.494 118.745 277.896 119.153 278.208C119.573 278.52 120.119 278.676 120.791 278.676C121.415 278.676 121.907 278.538 122.267 278.262C122.627 277.986 122.807 277.638 122.807 277.218C122.807 276.786 122.615 276.468 122.231 276.264C121.847 276.048 121.253 275.838 120.449 275.634C119.717 275.442 119.117 275.25 118.649 275.058C118.193 274.854 117.797 274.56 117.461 274.176C117.137 273.78 116.975 273.264 116.975 272.628C116.975 272.124 117.125 271.662 117.425 271.242C117.725 270.822 118.151 270.492 118.703 270.252C119.255 270 119.885 269.874 120.593 269.874C121.685 269.874 122.567 270.15 123.239 270.702C123.911 271.254 124.271 272.01 124.319 272.97H122.681C122.645 272.454 122.435 272.04 122.051 271.728C121.679 271.416 121.175 271.26 120.539 271.26C119.951 271.26 119.483 271.386 119.135 271.638C118.787 271.89 118.613 272.22 118.613 272.628C118.613 272.952 118.715 273.222 118.919 273.438C119.135 273.642 119.399 273.81 119.711 273.942C120.035 274.062 120.479 274.2 121.043 274.356C121.751 274.548 122.327 274.74 122.771 274.932C123.215 275.112 123.593 275.388 123.905 275.76C124.229 276.132 124.397 276.618 124.409 277.218C124.409 277.758 124.259 278.244 123.959 278.676C123.659 279.108 123.233 279.45 122.681 279.702C122.141 279.942 121.517 280.062 120.809 280.062ZM127.568 268.434C127.256 268.434 126.992 268.326 126.776 268.11C126.56 267.894 126.452 267.63 126.452 267.318C126.452 267.006 126.56 266.742 126.776 266.526C126.992 266.31 127.256 266.202 127.568 266.202C127.868 266.202 128.12 266.31 128.324 266.526C128.54 266.742 128.648 267.006 128.648 267.318C128.648 267.63 128.54 267.894 128.324 268.11C128.12 268.326 127.868 268.434 127.568 268.434ZM128.36 270.036V279.9H126.722V270.036H128.36ZM135.453 280.062C134.529 280.062 133.689 279.852 132.933 279.432C132.189 279.012 131.601 278.418 131.169 277.65C130.749 276.87 130.539 275.97 130.539 274.95C130.539 273.942 130.755 273.054 131.187 272.286C131.631 271.506 132.231 270.912 132.987 270.504C133.743 270.084 134.589 269.874 135.525 269.874C136.461 269.874 137.307 270.084 138.063 270.504C138.819 270.912 139.413 271.5 139.845 272.268C140.289 273.036 140.511 273.93 140.511 274.95C140.511 275.97 140.283 276.87 139.827 277.65C139.383 278.418 138.777 279.012 138.009 279.432C137.241 279.852 136.389 280.062 135.453 280.062ZM135.453 278.622C136.041 278.622 136.593 278.484 137.109 278.208C137.625 277.932 138.039 277.518 138.351 276.966C138.675 276.414 138.837 275.742 138.837 274.95C138.837 274.158 138.681 273.486 138.369 272.934C138.057 272.382 137.649 271.974 137.145 271.71C136.641 271.434 136.095 271.296 135.507 271.296C134.907 271.296 134.355 271.434 133.851 271.71C133.359 271.974 132.963 272.382 132.663 272.934C132.363 273.486 132.213 274.158 132.213 274.95C132.213 275.754 132.357 276.432 132.645 276.984C132.945 277.536 133.341 277.95 133.833 278.226C134.325 278.49 134.865 278.622 135.453 278.622ZM147.471 269.856C148.671 269.856 149.643 270.222 150.387 270.954C151.131 271.674 151.503 272.718 151.503 274.086V279.9H149.883V274.32C149.883 273.336 149.637 272.586 149.145 272.07C148.653 271.542 147.981 271.278 147.129 271.278C146.265 271.278 145.575 271.548 145.059 272.088C144.555 272.628 144.303 273.414 144.303 274.446V279.9H142.665V270.036H144.303V271.44C144.627 270.936 145.065 270.546 145.617 270.27C146.181 269.994 146.799 269.856 147.471 269.856Z" fill="#0E2248"/>
<rect x="254.505" width="8.93" height="339" fill="#0E2248"/>
<rect x="263.435" y="19.775" width="308.085" height="47.0833" fill="#0E2248"/>
<rect x="263.435" y="217.525" width="334.875" height="47.0833" fill="#0E2248"/>
<rect x="263.435" y="76.275" width="629.565" height="47.0833" fill="#349EFF"/>
<rect x="263.435" y="274.025" width="616.17" height="47.0833" fill="#349EFF"/>
<path d="M591.519 47.102V45.86L597.837 37.112H599.799V45.68H601.599V47.102H599.799V50H598.179V47.102H591.519ZM598.251 38.822L593.409 45.68H598.251V38.822ZM604.027 50.108C603.715 50.108 603.451 50 603.235 49.784C603.019 49.568 602.911 49.304 602.911 48.992C602.911 48.68 603.019 48.416 603.235 48.2C603.451 47.984 603.715 47.876 604.027 47.876C604.327 47.876 604.579 47.984 604.783 48.2C604.999 48.416 605.107 48.68 605.107 48.992C605.107 49.304 604.999 49.568 604.783 49.784C604.579 50 604.327 50.108 604.027 50.108ZM607.014 43.358C607.014 41.294 607.35 39.686 608.022 38.534C608.694 37.37 609.87 36.788 611.55 36.788C613.218 36.788 614.388 37.37 615.06 38.534C615.732 39.686 616.068 41.294 616.068 43.358C616.068 45.458 615.732 47.09 615.06 48.254C614.388 49.418 613.218 50 611.55 50C609.87 50 608.694 49.418 608.022 48.254C607.35 47.09 607.014 45.458 607.014 43.358ZM614.448 43.358C614.448 42.314 614.376 41.432 614.232 40.712C614.1 39.98 613.818 39.392 613.386 38.948C612.966 38.504 612.354 38.282 611.55 38.282C610.734 38.282 610.11 38.504 609.678 38.948C609.258 39.392 608.976 39.98 608.832 40.712C608.7 41.432 608.634 42.314 608.634 43.358C608.634 44.438 608.7 45.344 608.832 46.076C608.976 46.808 609.258 47.396 609.678 47.84C610.11 48.284 610.734 48.506 611.55 48.506C612.354 48.506 612.966 48.284 613.386 47.84C613.818 47.396 614.1 46.808 614.232 46.076C614.376 45.344 614.448 44.438 614.448 43.358Z" fill="black"/>
<path d="M903.781 300.508C903.901 301.192 904.177 301.72 904.609 302.092C905.053 302.464 905.647 302.65 906.391 302.65C907.387 302.65 908.119 302.26 908.587 301.48C909.067 300.7 909.295 299.386 909.271 297.538C909.019 298.078 908.599 298.504 908.011 298.816C907.423 299.116 906.769 299.266 906.049 299.266C905.245 299.266 904.525 299.104 903.889 298.78C903.265 298.444 902.773 297.958 902.413 297.322C902.053 296.686 901.873 295.918 901.873 295.018C901.873 293.734 902.245 292.702 902.989 291.922C903.733 291.13 904.789 290.734 906.157 290.734C907.837 290.734 909.013 291.28 909.685 292.372C910.369 293.464 910.711 295.09 910.711 297.25C910.711 298.762 910.573 300.01 910.297 300.994C910.033 301.978 909.577 302.728 908.929 303.244C908.293 303.76 907.417 304.018 906.301 304.018C905.077 304.018 904.123 303.688 903.439 303.028C902.755 302.368 902.365 301.528 902.269 300.508H903.781ZM906.319 297.88C907.123 297.88 907.783 297.634 908.299 297.142C908.815 296.638 909.073 295.96 909.073 295.108C909.073 294.208 908.821 293.482 908.317 292.93C907.813 292.378 907.105 292.102 906.193 292.102C905.353 292.102 904.681 292.366 904.177 292.894C903.685 293.422 903.439 294.118 903.439 294.982C903.439 295.858 903.685 296.56 904.177 297.088C904.669 297.616 905.383 297.88 906.319 297.88ZM913.804 304.108C913.492 304.108 913.228 304 913.012 303.784C912.796 303.568 912.688 303.304 912.688 302.992C912.688 302.68 912.796 302.416 913.012 302.2C913.228 301.984 913.492 301.876 913.804 301.876C914.104 301.876 914.356 301.984 914.56 302.2C914.776 302.416 914.884 302.68 914.884 302.992C914.884 303.304 914.776 303.568 914.56 303.784C914.356 304 914.104 304.108 913.804 304.108ZM916.36 292.48V290.986H919.744V304H918.088V292.48H916.36Z" fill="black"/>
<path d="M915.487 102.508C915.607 103.192 915.883 103.72 916.315 104.092C916.759 104.464 917.353 104.65 918.097 104.65C919.093 104.65 919.825 104.26 920.293 103.48C920.773 102.7 921.001 101.386 920.977 99.538C920.725 100.078 920.305 100.504 919.717 100.816C919.129 101.116 918.475 101.266 917.755 101.266C916.951 101.266 916.231 101.104 915.595 100.78C914.971 100.444 914.479 99.958 914.119 99.322C913.759 98.686 913.579 97.918 913.579 97.018C913.579 95.734 913.951 94.702 914.695 93.922C915.439 93.13 916.495 92.734 917.863 92.734C919.543 92.734 920.719 93.28 921.391 94.372C922.075 95.464 922.417 97.09 922.417 99.25C922.417 100.762 922.279 102.01 922.003 102.994C921.739 103.978 921.283 104.728 920.635 105.244C919.999 105.76 919.123 106.018 918.007 106.018C916.783 106.018 915.829 105.688 915.145 105.028C914.461 104.368 914.071 103.528 913.975 102.508H915.487ZM918.025 99.88C918.829 99.88 919.489 99.634 920.005 99.142C920.521 98.638 920.779 97.96 920.779 97.108C920.779 96.208 920.527 95.482 920.023 94.93C919.519 94.378 918.811 94.102 917.899 94.102C917.059 94.102 916.387 94.366 915.883 94.894C915.391 95.422 915.145 96.118 915.145 96.982C915.145 97.858 915.391 98.56 915.883 99.088C916.375 99.616 917.089 99.88 918.025 99.88ZM925.511 106.108C925.199 106.108 924.935 106 924.719 105.784C924.503 105.568 924.395 105.304 924.395 104.992C924.395 104.68 924.503 104.416 924.719 104.2C924.935 103.984 925.199 103.876 925.511 103.876C925.811 103.876 926.063 103.984 926.267 104.2C926.483 104.416 926.591 104.68 926.591 104.992C926.591 105.304 926.483 105.568 926.267 105.784C926.063 106 925.811 106.108 925.511 106.108ZM928.3 104.686C929.824 103.462 931.018 102.46 931.882 101.68C932.746 100.888 933.472 100.066 934.06 99.214C934.66 98.35 934.96 97.504 934.96 96.676C934.96 95.896 934.768 95.284 934.384 94.84C934.012 94.384 933.406 94.156 932.566 94.156C931.75 94.156 931.114 94.414 930.658 94.93C930.214 95.434 929.974 96.112 929.938 96.964H928.354C928.402 95.62 928.81 94.582 929.578 93.85C930.346 93.118 931.336 92.752 932.548 92.752C933.784 92.752 934.762 93.094 935.482 93.778C936.214 94.462 936.58 95.404 936.58 96.604C936.58 97.6 936.28 98.572 935.68 99.52C935.092 100.456 934.42 101.284 933.664 102.004C932.908 102.712 931.942 103.54 930.766 104.488H936.958V105.856H928.3V104.686Z" fill="black"/>
<path d="M617.87 245.102V243.86L624.188 235.112H626.15V243.68H627.95V245.102H626.15V248H624.53V245.102H617.87ZM624.602 236.822L619.76 243.68H624.602V236.822ZM630.379 248.108C630.067 248.108 629.803 248 629.587 247.784C629.371 247.568 629.263 247.304 629.263 246.992C629.263 246.68 629.371 246.416 629.587 246.2C629.803 245.984 630.067 245.876 630.379 245.876C630.679 245.876 630.931 245.984 631.135 246.2C631.351 246.416 631.459 246.68 631.459 246.992C631.459 247.304 631.351 247.568 631.135 247.784C630.931 248 630.679 248.108 630.379 248.108ZM633.33 238.262C633.414 237.158 633.84 236.294 634.608 235.67C635.376 235.046 636.372 234.734 637.596 234.734C638.412 234.734 639.114 234.884 639.702 235.184C640.302 235.472 640.752 235.868 641.052 236.372C641.364 236.876 641.52 237.446 641.52 238.082C641.52 238.826 641.304 239.468 640.872 240.008C640.452 240.548 639.9 240.896 639.216 241.052V241.142C639.996 241.334 640.614 241.712 641.07 242.276C641.526 242.84 641.754 243.578 641.754 244.49C641.754 245.174 641.598 245.792 641.286 246.344C640.974 246.884 640.506 247.31 639.882 247.622C639.258 247.934 638.508 248.09 637.632 248.09C636.36 248.09 635.316 247.76 634.5 247.1C633.684 246.428 633.228 245.48 633.132 244.256H634.716C634.8 244.976 635.094 245.564 635.598 246.02C636.102 246.476 636.774 246.704 637.614 246.704C638.454 246.704 639.09 246.488 639.522 246.056C639.966 245.612 640.188 245.042 640.188 244.346C640.188 243.446 639.888 242.798 639.288 242.402C638.688 242.006 637.782 241.808 636.57 241.808H636.156V240.44H636.588C637.692 240.428 638.526 240.248 639.09 239.9C639.654 239.54 639.936 238.988 639.936 238.244C639.936 237.608 639.726 237.098 639.306 236.714C638.898 236.33 638.31 236.138 637.542 236.138C636.798 236.138 636.198 236.33 635.742 236.714C635.286 237.098 635.016 237.614 634.932 238.262H633.33Z" fill="black"/>
</svg>
