<svg width="43" height="40" viewBox="0 0 43 40" fill="none" xmlns="http://www.w3.org/2000/svg">
<path d="M10.8173 30.3125C10.4813 30.25 10.2126 30.1875 9.87666 30.0625C9.54072 29.9375 9.27197 29.875 9.00322 29.75C8.39853 29.5 7.86103 29.1875 7.32353 28.8125C6.24853 28.125 5.3751 27.1875 4.70322 26.0625C4.03135 25 3.62822 23.75 3.56103 22.5625C3.49385 21.9375 3.56103 21.375 3.62822 20.75C3.69541 20.4375 3.7626 20.1875 3.82978 19.875C3.89697 19.5625 4.03135 19.3125 4.09853 19L4.16572 19.875C4.16572 20.1875 4.23291 20.4375 4.3001 20.75C4.36728 21.3125 4.50166 21.875 4.63603 22.375C4.90478 23.4375 5.30791 24.4375 5.9126 25.375C6.51728 26.3125 7.18916 27.1875 8.06259 28C8.46572 28.375 8.93603 28.75 9.40634 29.125C9.60791 29.3125 9.87666 29.5 10.1454 29.6875L10.8173 30.3125Z" fill="#42ADE2"/>
<path d="M10.6156 32.5625C10.4141 32.6875 10.1453 32.75 9.87656 32.8125C9.60781 32.875 9.40625 32.9375 9.1375 32.9375C8.66719 33 8.12969 33.0625 7.59219 33C6.58438 32.9375 5.50938 32.6875 4.63594 32.25C3.69531 31.8125 2.88906 31.125 2.35156 30.3125C2.08281 29.9375 1.81406 29.5 1.6125 29.0625C1.54531 28.875 1.47812 28.625 1.41094 28.375C1.41094 28.1875 1.34375 28 1.34375 27.75C1.54531 27.9375 1.67969 28.0625 1.81406 28.25C2.01563 28.4375 2.15 28.625 2.28438 28.75C2.62031 29.0625 2.88906 29.375 3.225 29.625C3.89688 30.1875 4.56875 30.6875 5.375 31.0625C6.11406 31.4375 6.9875 31.75 7.79375 32C8.19688 32.125 8.66719 32.1875 9.1375 32.3125C9.33906 32.375 9.60781 32.375 9.80938 32.4375C10.1453 32.5 10.3469 32.5 10.6156 32.5625" fill="#42ADE2"/>
<path d="M25.8 2.1875C26.136 2.25 26.4047 2.375 26.7407 2.5C27.0766 2.625 27.3454 2.75 27.6141 2.875C28.2188 3.1875 28.7563 3.5 29.2938 3.875C30.3688 4.625 31.2422 5.625 31.8469 6.75C32.4516 7.875 32.7875 9.125 32.7875 10.3125C32.7875 10.9375 32.7204 11.5 32.586 12.125C32.5188 12.4375 32.4516 12.6875 32.3172 13C32.1829 13.3125 32.1157 13.5625 31.9813 13.8125L31.9141 12.9375C31.9141 12.625 31.9141 12.375 31.8469 12.0625L31.6454 10.375C31.4438 9.3125 31.0407 8.25 30.5032 7.25C29.9657 6.25 29.2938 5.375 28.4875 4.5625C28.0844 4.125 27.6141 3.75 27.211 3.3125C27.0094 3.125 26.7407 2.9375 26.4719 2.75L25.8 2.1875" fill="#42ADE2"/>
<path d="M31.6453 1.9375C31.914 2 32.1156 2.0625 32.3171 2.1875C32.5187 2.25 32.7875 2.375 32.989 2.5C33.3921 2.75 33.7953 3 34.1984 3.3125C34.9375 3.9375 35.5421 4.6875 35.8781 5.5625C36.2812 6.4375 36.4156 7.375 36.2812 8.3125C36.214 8.75 36.0796 9.1875 35.9453 9.625C35.8781 9.8125 35.7437 10.0625 35.6765 10.25C35.5421 10.4375 35.475 10.625 35.2734 10.8125V10.1875V9.5625C35.2734 9.125 35.2062 8.75 35.2062 8.375C35.0718 7.5625 34.9375 6.8125 34.6015 6.125C34.2656 5.375 33.8625 4.75 33.3921 4.0625C33.1234 3.75 32.8546 3.375 32.5859 3.0625C32.4515 2.875 32.3171 2.75 32.1156 2.5625C31.9812 2.25 31.7796 2.0625 31.6453 1.9375" fill="#42ADE2"/>
<path d="M6.71866 11.25C5.37491 11.8125 4.9046 13.3125 5.50929 14.5625L13.9749 31L18.678 28.9375L10.2124 12.4375C9.60772 11.1875 8.06241 10.625 6.71866 11.25" fill="#FFE1BD"/>
<path d="M28.9578 24.3125L33.9296 22.125L24.2546 3.37499C23.5828 2.12499 21.9703 1.56249 20.5593 2.18749C19.2156 2.81249 18.6109 4.31249 19.2828 5.62499L28.9578 24.3125Z" fill="#FFE1BD"/>
<path d="M20.6265 2.12499C20.4921 2.18749 20.3578 2.24999 20.2234 2.37499C21.5 2.06249 22.8437 2.62499 23.4484 3.74999L33.1234 22.5L33.9968 22.125L24.3218 3.37499C23.65 2.06249 22.0375 1.49999 20.6265 2.12499" fill="#E6B796"/>
<path d="M18.6781 28.875L23.8516 26.5625L13.975 7.43751C13.3031 6.12501 11.5563 5.50001 10.1453 6.12501C8.73439 6.75001 8.1297 8.37501 8.80158 9.68751L18.6781 28.875Z" fill="#FFE1BD"/>
<path d="M10.1453 6.18751C10.0109 6.25001 9.87656 6.31251 9.74219 6.43751C11.0188 6.12501 12.4969 6.68751 13.1016 7.87501L19.2156 19.8125L20.6938 20.625L13.975 7.50001C13.3031 6.12501 11.6234 5.56251 10.1453 6.18751" fill="#E6B796"/>
<path d="M23.0453 25.0625L28.2188 22.75L18.3422 3.62499C17.6703 2.31249 15.9235 1.68749 14.5125 2.37499C13.1016 2.99999 12.4969 4.62499 13.1688 5.93749L23.0453 25.0625Z" fill="#FFE1BD"/>
<path d="M14.5125 2.31251C14.3781 2.37501 14.2438 2.50001 14.1094 2.56251C15.3859 2.25001 16.8641 2.81251 17.4688 4.00001L24.3891 17.5L25.8672 18.3125L18.3422 3.62501C17.6703 2.25001 15.9234 1.68751 14.5125 2.31251" fill="#E6B796"/>
<path d="M6.7188 11.25C6.58442 11.3125 6.45005 11.375 6.31567 11.5C7.52505 11.1875 8.80161 11.75 9.33911 12.875L14.3782 22.6875L15.8563 23.5L10.2125 12.5C9.60786 11.1875 8.06255 10.625 6.7188 11.25Z" fill="#E6B796"/>
<path d="M40.8499 9.37498C39.0359 8.06248 36.0796 9.49999 34.6015 14C33.5937 17.125 33.4593 18.0625 31.3093 19L30.0999 16.6875C30.0999 16.6875 11.0187 25.25 11.7577 26.625C11.7577 26.625 14.0421 33.25 17.939 36.3125C23.7171 40.9375 37.2218 36 37.8265 24.0625C38.1624 17.125 42.7984 10.8125 40.8499 9.37498Z" fill="#FFE1BD"/>
<path d="M40.85 9.375C40.5141 9.125 40.111 9 39.7079 8.9375C39.775 9 39.9094 9 39.9766 9.0625C41.9922 10.5 39.9094 13.8125 38.7672 16.8125C37.8266 19.1875 37.0204 21.625 37.1547 24C37.6922 34.375 26.4719 39.3125 19.7532 37.4375C26.3375 40 38.5657 35.125 38.0282 24.3125C37.8938 21.9375 38.6329 19.625 39.6407 17.125C40.7157 14.125 42.7985 10.8125 40.85 9.375" fill="#E6B796"/>
<path d="M31.9141 18.75C27.7485 19.1875 21.6344 24.75 25.9344 30.8125C22.7766 24.6875 27.95 20.5625 31.2422 19.125C31.5782 18.875 31.9141 18.75 31.9141 18.75" fill="#E6B796"/>
</svg>
