<svg width="1070" height="50" viewBox="0 0 1070 50" fill="none" xmlns="http://www.w3.org/2000/svg">
<path fill-rule="evenodd" clip-rule="evenodd" d="M127 50C113.193 50 102 38.8071 102 25C102 11.1929 113.193 0 127 0C140.807 0 152 11.1929 152 25C152 38.8071 140.807 50 127 50ZM143.817 36.6469C146.11 33.3416 147.455 29.3278 147.455 25C147.455 13.7033 138.297 4.54545 127 4.54545C115.703 4.54545 106.545 13.7033 106.545 25C106.545 29.3278 107.89 33.3416 110.183 36.6469C112.741 33.2683 118.751 31.8182 127 31.8182C135.249 31.8182 141.259 33.2683 143.817 36.6469ZM140.556 40.3176C139.891 37.9258 135.112 36.3636 127 36.3636C118.888 36.3636 114.109 37.9258 113.444 40.3176C117.053 43.514 121.8 45.4545 127 45.4545C132.2 45.4545 136.947 43.514 140.556 40.3176ZM127 11.3636C121.498 11.3636 117.909 15.354 117.909 20.4545C117.909 28.244 121.911 31.8182 127 31.8182C132.041 31.8182 136.091 28.3628 136.091 20.9091C136.091 15.7309 132.487 11.3636 127 11.3636ZM122.455 20.4545C122.455 25.6119 124.314 27.2727 127 27.2727C129.677 27.2727 131.545 25.6782 131.545 20.9091C131.545 18.0691 129.763 15.9091 127 15.9091C124.122 15.9091 122.455 17.7632 122.455 20.4545Z" fill="black"/>
<path fill-rule="evenodd" clip-rule="evenodd" d="M208.545 0H249.455C251.965 0 254 2.48731 254 5.55556V44.4444C254 47.5127 251.965 50 249.455 50H208.545C206.035 50 204 47.5127 204 44.4444V5.55556C204 2.48731 206.035 0 208.545 0ZM208.545 5.55556V44.4444H249.455V5.55556H208.545ZM217.636 38.8889H222.182V22.2222H217.636V38.8889ZM231.273 38.8889H226.727V11.1111H231.273V38.8889ZM235.818 38.8889H240.364V19.4444H235.818V38.8889Z" fill="black"/>
<path fill-rule="evenodd" clip-rule="evenodd" d="M316 50L331.217 40.3954H351C353.761 40.3954 356 38.1347 356 35.346V5.04942C356 2.2607 353.761 0 351 0H311C308.239 0 306 2.2607 306 5.04942V35.346C306 38.1347 308.239 40.3954 311 40.3954H316V50ZM329.783 35.346L321 40.8896V35.346H311V5.04942H351V35.346H329.783ZM318.5 27.7718V22.7224H336V27.7718H318.5ZM318.5 12.6236V17.673H341V12.6236H318.5Z" fill="black"/>
<circle cx="25" cy="25" r="25" fill="#BEE0FF"/>
<circle cx="25" cy="25.0002" r="18.4783" fill="#97CDFF"/>
<circle cx="24.9999" cy="24.9999" r="9.78261" fill="#349EFF"/>
<circle cx="841" cy="25" r="23" fill="#FFECAA"/>
<path d="M841 1.5625C828.056 1.5625 817.562 12.0562 817.562 25C817.562 37.9438 828.056 48.4375 841 48.4375C853.944 48.4375 864.438 37.9438 864.438 25C864.438 12.0562 853.944 1.5625 841 1.5625ZM841 46.4844C829.153 46.4844 819.516 36.8469 819.516 25C819.516 13.1531 829.153 3.51562 841 3.51562C852.846 3.51562 862.484 13.1531 862.484 25C862.484 36.8469 852.846 46.4844 841 46.4844Z" fill="black"/>
<path d="M835.954 22.1501C835.28 20.7032 825.282 25.3649 825.956 26.8118C827.019 29.0899 830.119 29.8938 832.879 28.6063C835.639 27.3181 837.016 24.4282 835.954 22.1501Z" fill="black"/>
<path d="M846.046 22.1501C844.984 24.4282 846.361 27.3165 849.121 28.6063C851.881 29.8923 854.98 29.0899 856.044 26.8118C856.718 25.3649 846.72 20.7032 846.046 22.1501Z" fill="black"/>
<path d="M835.084 16.5736C835.436 16.1408 834.058 15.1197 833.768 15.4791C831.649 18.0197 826.552 20.397 823.241 20.3869C822.781 20.3767 822.677 22.0908 823.238 22.097C827.054 22.1103 832.636 19.508 835.084 16.5736Z" fill="black"/>
<path d="M858.758 20.3868C855.449 20.397 850.35 18.0196 848.232 15.479C847.942 15.1196 846.564 16.1415 846.917 16.5736C849.364 19.5079 854.946 22.1103 858.762 22.097C859.323 22.09 859.219 20.3767 858.758 20.3868Z" fill="black"/>
<path d="M847.704 36.2716C843.483 34.2888 838.495 34.2872 834.269 36.2622C833.223 36.7661 834.526 39.5044 835.568 38.9966C838.358 37.6958 842.518 37.195 846.408 39.0044C847.45 39.488 848.812 36.8067 847.704 36.2716Z" fill="black"/>
<circle cx="739" cy="25" r="23" fill="#FFECAA"/>
<path d="M739 1.5625C726.056 1.5625 715.562 12.0562 715.562 25C715.562 37.9438 726.056 48.4375 739 48.4375C751.944 48.4375 762.438 37.9438 762.438 25C762.438 12.0562 751.944 1.5625 739 1.5625ZM739 46.4844C727.153 46.4844 717.516 36.8469 717.516 25C717.516 13.1531 727.153 3.51562 739 3.51562C750.847 3.51562 760.484 13.1531 760.484 25C760.484 36.8469 750.847 46.4844 739 46.4844Z" fill="black"/>
<path d="M730.016 23.1187C732.173 23.1187 733.922 21.3698 733.922 19.2124C733.922 17.055 732.173 15.3062 730.016 15.3062C727.858 15.3062 726.109 17.055 726.109 19.2124C726.109 21.3698 727.858 23.1187 730.016 23.1187Z" fill="black"/>
<path d="M747.984 23.1187C750.142 23.1187 751.891 21.3698 751.891 19.2124C751.891 17.055 750.142 15.3062 747.984 15.3062C745.827 15.3062 744.078 17.055 744.078 19.2124C744.078 21.3698 745.827 23.1187 747.984 23.1187Z" fill="black"/>
<path d="M739 28.5718C734.036 28.5718 730.161 31.3874 728.241 34.5483C727.727 35.3937 728.411 36.3093 729.169 35.7812C735.504 31.3624 742.534 31.3882 748.832 35.7812C749.59 36.3093 750.274 35.3937 749.76 34.5483C747.839 31.3874 743.964 28.5718 739 28.5718Z" fill="black"/>
<circle cx="637" cy="25" r="23" fill="#FFECAA"/>
<path d="M637 1.5625C624.056 1.5625 613.562 12.0562 613.562 25C613.562 37.9438 624.056 48.4375 637 48.4375C649.942 48.4375 660.438 37.9438 660.438 25C660.438 12.0562 649.942 1.5625 637 1.5625ZM637 46.4844C625.153 46.4844 615.516 36.8469 615.516 25C615.516 13.1531 625.153 3.51562 637 3.51562C648.846 3.51562 658.484 13.1531 658.484 25C658.484 36.8469 648.846 46.4844 637 46.4844Z" fill="black"/>
<path d="M643.25 34.375H630.75C629.575 34.375 629.575 37.5 630.75 37.5H643.25C644.425 37.5 644.425 34.375 643.25 34.375Z" fill="black"/>
<path d="M633.194 21.875H620.694C619.519 21.875 619.519 25 620.694 25H633.194C634.369 25 634.369 21.875 633.194 21.875Z" fill="black"/>
<path d="M653.306 21.875H640.806C639.631 21.875 639.631 25 640.806 25H653.306C654.481 25 654.481 21.875 653.306 21.875Z" fill="black"/>
<circle cx="433" cy="25" r="23" fill="#FFECAA"/>
<rect x="422" y="29" width="23" height="4" fill="white"/>
<path d="M433.002 1.5625C420.055 1.5625 409.562 12.0547 409.562 25C409.562 37.9453 420.055 48.4375 433.001 48.4375C445.945 48.4375 456.438 37.9453 456.438 25C456.438 12.0547 445.945 1.5625 433.002 1.5625ZM433.002 46.4844C421.154 46.4844 411.516 36.8469 411.516 25C411.516 13.1531 421.154 3.51562 433.002 3.51562C444.847 3.51562 454.484 13.1531 454.484 25C454.484 36.8469 444.847 46.4844 433.002 46.4844Z" fill="black"/>
<path d="M429.305 21.7138C429.68 22.1091 430.429 21.3825 430.285 20.9809C428.833 16.988 426.645 14.9888 424.456 14.9888C422.269 14.9888 420.08 16.988 418.629 20.9809C418.485 21.3825 419.234 22.1083 419.609 21.7138C421.016 20.2294 422.701 19.6372 424.457 19.6372C426.214 19.6372 427.899 20.2294 429.305 21.7138Z" fill="black"/>
<path d="M441.542 14.9893C439.354 14.9893 437.166 16.9885 435.713 20.9814C435.57 21.383 436.319 22.1088 436.693 21.7143C438.102 20.2299 439.784 19.6377 441.542 19.6377C443.3 19.6377 444.983 20.2299 446.392 21.7143C446.766 22.1096 447.515 21.383 447.371 20.9814C445.918 16.9877 443.73 14.9893 441.542 14.9893Z" fill="black"/>
<path d="M444.858 28.112C442.152 27.5948 438.153 27.062 433 27.062H432.998C427.847 27.062 423.848 27.5948 421.142 28.112C420.088 28.3136 419.719 29.0995 419.719 29.7269C419.719 35.4073 424.103 41.1253 432.999 41.1253H433C441.898 41.1253 446.281 35.4081 446.281 29.7269C446.281 29.0995 445.912 28.3136 444.858 28.112ZM443.918 31.0698C443.875 31.4159 443.811 31.8315 443.71 32.2831C443.6 32.7839 443.505 33.0144 442.721 32.9206C441.221 32.7417 424.778 32.7417 423.278 32.9206C422.494 33.0136 422.401 32.7831 422.289 32.2831C422.201 31.8822 422.132 31.4773 422.082 31.0698C422.012 30.4901 422.073 30.0792 423.084 29.9089C424.799 29.6222 428.427 29.1183 432.999 29.1183C437.572 29.1183 441.199 29.6222 442.914 29.9089C443.925 30.0792 443.987 30.4894 443.918 31.0698Z" fill="black"/>
<circle cx="535" cy="25" r="23" fill="#FFECAA"/>
<path d="M535 1.5625C522.056 1.5625 511.562 12.0562 511.562 25C511.562 37.9438 522.056 48.4375 535 48.4375C547.944 48.4375 558.438 37.9438 558.438 25C558.438 12.0562 547.944 1.5625 535 1.5625ZM535 46.4844C523.153 46.4844 513.516 36.8469 513.516 25C513.516 13.1531 523.153 3.51562 535 3.51562C546.846 3.51562 556.484 13.1531 556.484 25C556.484 36.8469 546.846 46.4844 535 46.4844Z" fill="black"/>
<path d="M526.016 24.6812C528.173 24.6812 529.922 22.9323 529.922 20.7749C529.922 18.6175 528.173 16.8687 526.016 16.8687C523.858 16.8687 522.109 18.6175 522.109 20.7749C522.109 22.9323 523.858 24.6812 526.016 24.6812Z" fill="black"/>
<path d="M543.984 24.6812C546.142 24.6812 547.891 22.9323 547.891 20.7749C547.891 18.6175 546.142 16.8687 543.984 16.8687C541.827 16.8687 540.078 18.6175 540.078 20.7749C540.078 22.9323 541.827 24.6812 543.984 24.6812Z" fill="black"/>
<path d="M544.831 31.4682C538.495 35.887 531.467 35.8612 525.169 31.4682C524.411 30.9393 523.727 31.8549 524.241 32.701C526.162 35.8627 530.036 38.6776 535 38.6776C539.964 38.6776 543.838 35.862 545.758 32.701C546.272 31.8549 545.589 30.9401 544.831 31.4682Z" fill="black"/>
<path d="M947.153 3.54982C947.41 3.69496 947.624 3.90566 947.773 4.16041C947.921 4.41516 948 4.70482 948 4.99982V44.9998C948 45.2947 947.922 45.5843 947.773 45.8391C947.625 46.0939 947.412 46.3048 947.155 46.4502C946.899 46.5956 946.608 46.6703 946.313 46.6667C946.018 46.6631 945.73 46.5814 945.477 46.4298L929.207 36.6665H923C921.674 36.6665 920.402 36.1397 919.464 35.202C918.527 34.2643 918 32.9926 918 31.6665V18.3232C918 15.5598 920.24 13.3265 923 13.3265H929.207L945.473 3.56982C945.727 3.418 946.015 3.33615 946.311 3.33264C946.606 3.32912 946.897 3.40407 947.153 3.54982Z" fill="black"/>
<path d="M964.18 13.8134L963 12.6367L960.643 14.9934L961.813 16.1667L961.823 16.1734L961.89 16.2467C962.392 16.8601 962.823 17.5276 963.177 18.2367C963.91 19.7001 964.667 21.9434 964.667 24.9867C964.667 28.0301 963.907 30.2734 963.177 31.7367C962.81 32.4701 962.447 33.0101 962.187 33.3567C962.071 33.5097 961.949 33.6577 961.82 33.8001L961.813 33.8101L960.643 34.9767L963 37.3367L964.18 36.1601L963 34.9801L964.18 36.1601L964.183 36.1534L964.19 36.1467L964.207 36.1301L964.253 36.0834L964.397 35.9234C964.513 35.7901 964.67 35.6001 964.853 35.3567C965.22 34.8701 965.69 34.1567 966.157 33.2267C967.09 31.3601 968 28.6067 968 24.9867C968 21.3667 967.093 18.6167 966.157 16.7467C965.788 15.9994 965.353 15.2865 964.857 14.6167C964.667 14.3659 964.466 14.1245 964.253 13.8934L964.207 13.8434L964.19 13.8267L964.183 13.8201C964.183 13.8167 964.177 13.8134 963 14.9934L964.18 13.8134Z" fill="black"/>
<path fill-rule="evenodd" clip-rule="evenodd" d="M1043.33 10.7465C1043.33 9.22264 1043.02 7.71616 1042.41 6.32707C1041.79 4.93798 1040.9 3.69804 1039.78 2.68958C1038.67 1.68111 1037.36 0.927169 1035.93 0.477806C1034.51 0.0284427 1033.01 -0.106066 1031.54 0.0832068L1030.47 0.219741C1028.65 0.452781 1026.91 1.16932 1025.44 2.29847L1020 6.47982V15.0132L1025.44 19.1945C1026.91 20.3209 1028.64 21.0377 1030.47 21.2733L1031.54 21.4098C1032.14 21.4883 1032.74 21.5122 1033.33 21.4849V50H1043.33V10.7465ZM1033.33 12.4532H1026.67V9.03983H1033.33V12.4532Z" fill="black"/>
<path fill-rule="evenodd" clip-rule="evenodd" d="M1046.67 10.7465C1046.67 9.22264 1046.98 7.71616 1047.59 6.32707C1048.21 4.93798 1049.1 3.69804 1050.22 2.68958C1051.33 1.68111 1052.64 0.927169 1054.07 0.477806C1055.49 0.0284427 1056.99 -0.106066 1058.46 0.0832068L1059.53 0.219741C1061.35 0.452781 1063.09 1.16932 1064.56 2.29847L1070 6.47982V15.0132L1064.56 19.1945C1063.09 20.3209 1061.36 21.0377 1059.53 21.2733L1058.46 21.4098C1057.87 21.4869 1057.27 21.512 1056.67 21.4849V50H1046.67V10.7465ZM1056.67 12.4532H1063.33V9.03983H1056.67V12.4532Z" fill="black"/>
</svg>
