<svg width="1166" height="176" viewBox="0 0 1166 176" fill="none" xmlns="http://www.w3.org/2000/svg">
<path d="M691.5 20L681.425 35L671.5 20H691.5Z" fill="black"/>
<rect x="552.5" y="0.5" width="49" height="49" fill="white" stroke="black"/>
<path d="M795.583 32.3042V24.8334C795.583 18.1313 791.031 12.4855 784.865 10.7876C784.254 9.25008 782.762 8.16675 781 8.16675C779.237 8.16675 777.746 9.25008 777.135 10.7876C770.969 12.4876 766.417 18.1313 766.417 24.8334V32.3042L762.86 35.8605C762.667 36.0536 762.513 36.2832 762.408 36.536C762.303 36.7888 762.25 37.0598 762.25 37.3334V41.5001C762.25 42.0526 762.469 42.5825 762.86 42.9732C763.251 43.3639 763.781 43.5834 764.333 43.5834H797.667C798.219 43.5834 798.749 43.3639 799.14 42.9732C799.531 42.5825 799.75 42.0526 799.75 41.5001V37.3334C799.75 37.0598 799.697 36.7888 799.592 36.536C799.487 36.2832 799.333 36.0536 799.14 35.8605L795.583 32.3042ZM795.583 39.4167H766.417V38.1959L769.973 34.6397C770.167 34.4465 770.32 34.217 770.425 33.9642C770.53 33.7114 770.584 33.4404 770.583 33.1667V24.8334C770.583 19.0897 775.256 14.4167 781 14.4167C786.744 14.4167 791.417 19.0897 791.417 24.8334V33.1667C791.417 33.7209 791.635 34.2501 792.027 34.6397L795.583 38.1959V39.4167ZM781 49.8334C782.29 49.835 783.549 49.4347 784.601 48.6879C785.653 47.9412 786.447 46.8852 786.871 45.6667H775.129C775.553 46.8852 776.347 47.9412 777.399 48.6879C778.451 49.4347 779.71 49.835 781 49.8334Z" fill="black"/>
<circle cx="796.625" cy="13.375" r="7.5625" fill="black" stroke="black" stroke-width="0.5"/>
<path d="M489.583 28.3042V20.8334C489.583 14.1313 485.031 8.4855 478.865 6.78758C478.254 5.25008 476.762 4.16675 475 4.16675C473.237 4.16675 471.746 5.25008 471.135 6.78758C464.969 8.48758 460.417 14.1313 460.417 20.8334V28.3042L456.86 31.8605C456.667 32.0536 456.513 32.2832 456.408 32.536C456.303 32.7888 456.25 33.0598 456.25 33.3334V37.5001C456.25 38.0526 456.469 38.5825 456.86 38.9732C457.251 39.3639 457.781 39.5834 458.333 39.5834H491.667C492.219 39.5834 492.749 39.3639 493.14 38.9732C493.531 38.5825 493.75 38.0526 493.75 37.5001V33.3334C493.75 33.0598 493.697 32.7888 493.592 32.536C493.487 32.2832 493.333 32.0536 493.14 31.8605L489.583 28.3042ZM489.583 35.4167H460.417V34.1959L463.973 30.6397C464.167 30.4465 464.32 30.217 464.425 29.9642C464.53 29.7114 464.584 29.4404 464.583 29.1667V20.8334C464.583 15.0897 469.256 10.4167 475 10.4167C480.744 10.4167 485.417 15.0897 485.417 20.8334V29.1667C485.417 29.7209 485.635 30.2501 486.027 30.6397L489.583 34.1959V35.4167ZM475 45.8334C476.29 45.835 477.549 45.4347 478.601 44.6879C479.653 43.9412 480.447 42.8852 480.871 41.6667H469.129C469.553 42.8852 470.347 43.9412 471.399 44.6879C472.451 45.4347 473.71 45.835 475 45.8334Z" fill="black"/>
<path d="M390.969 15.1367H383.762C384.426 14.0918 384.816 12.8516 384.816 11.5234C384.816 7.80762 381.794 4.78516 378.078 4.78516C376.057 4.78516 374.235 5.68359 373 7.09961C371.765 5.68359 369.943 4.78516 367.922 4.78516C364.206 4.78516 361.184 7.80762 361.184 11.5234C361.184 12.8516 361.569 14.0918 362.238 15.1367H355.031C354.167 15.1367 353.469 15.835 353.469 16.6992V26.4648C353.469 26.6797 353.645 26.8555 353.859 26.8555H355.812V43.6523C355.812 44.5166 356.511 45.2148 357.375 45.2148H388.625C389.489 45.2148 390.188 44.5166 390.188 43.6523V26.8555H392.141C392.355 26.8555 392.531 26.6797 392.531 26.4648V16.6992C392.531 15.835 391.833 15.1367 390.969 15.1367ZM374.66 11.5234C374.66 9.63867 376.193 8.10547 378.078 8.10547C379.963 8.10547 381.496 9.63867 381.496 11.5234C381.496 13.4082 379.963 14.9414 378.078 14.9414H374.66V11.5234ZM367.922 8.10547C369.807 8.10547 371.34 9.63867 371.34 11.5234V14.9414H367.922C366.037 14.9414 364.504 13.4082 364.504 11.5234C364.504 9.63867 366.037 8.10547 367.922 8.10547ZM356.789 23.5352V18.457H371.34V23.5352H356.789ZM359.133 26.8555H371.34V41.8945H359.133V26.8555ZM386.867 41.8945H374.66V26.8555H386.867V41.8945ZM389.211 23.5352H374.66V18.457H389.211V23.5352Z" fill="black"/>
<path d="M289.25 18.5V24.75V18.5ZM289.25 24.75V31V24.75ZM289.25 24.75H295.5H289.25ZM289.25 24.75H283H289.25ZM278.833 14.3333C278.833 16.5435 277.955 18.6631 276.393 20.2259C274.83 21.7887 272.71 22.6667 270.5 22.6667C268.29 22.6667 266.17 21.7887 264.607 20.2259C263.045 18.6631 262.167 16.5435 262.167 14.3333C262.167 12.1232 263.045 10.0036 264.607 8.44078C266.17 6.87797 268.29 6 270.5 6C272.71 6 274.83 6.87797 276.393 8.44078C277.955 10.0036 278.833 12.1232 278.833 14.3333V14.3333ZM258 41.4167C258 38.1015 259.317 34.922 261.661 32.5778C264.005 30.2336 267.185 28.9167 270.5 28.9167C273.815 28.9167 276.995 30.2336 279.339 32.5778C281.683 34.922 283 38.1015 283 41.4167V43.5H258V41.4167Z" stroke="black" stroke-width="2" stroke-linecap="round" stroke-linejoin="round"/>
<path d="M162.25 24.9999C157.562 18.7499 159.125 9.37489 166.938 6.24989C174.75 3.12489 179.438 9.37489 181 12.4999C182.562 9.37489 188.812 3.12489 196.625 6.24989C204.438 9.37489 204.438 18.7499 199.75 24.9999C195.062 31.2499 181 43.7499 181 43.7499C181 43.7499 166.938 31.2499 162.25 24.9999Z" stroke="black" stroke-width="2" stroke-linecap="round" stroke-linejoin="round"/>
<path fill-rule="evenodd" clip-rule="evenodd" d="M74 9.99996C71.3478 9.99996 68.8043 11.0535 66.9289 12.9289C65.0536 14.8043 64 17.3478 64 20C64 22.6521 65.0536 25.1957 66.9289 27.071C68.8043 28.9464 71.3478 30 74 30C76.6522 30 79.1957 28.9464 81.0711 27.071C82.9464 25.1957 84 22.6521 84 20C84 17.3478 82.9464 14.8043 81.0711 12.9289C79.1957 11.0535 76.6522 9.99996 74 9.99996ZM59 20C58.9997 17.6392 59.5566 15.3117 60.6254 13.2068C61.6943 11.1019 63.2448 9.27896 65.151 7.88628C67.0572 6.4936 69.2652 5.57049 71.5954 5.19205C73.9256 4.8136 76.3122 4.99049 78.5612 5.70834C80.8101 6.42619 82.8579 7.66472 84.5379 9.3232C86.218 10.9817 87.4828 13.0133 88.2296 15.2528C88.9765 17.4923 89.1842 19.8764 88.8358 22.2113C88.4875 24.5462 87.593 26.766 86.225 28.69L98.2675 40.7325C98.7229 41.204 98.9749 41.8355 98.9692 42.491C98.9635 43.1465 98.7006 43.7735 98.237 44.237C97.7735 44.7005 97.1465 44.9635 96.491 44.9692C95.8355 44.9748 95.204 44.7229 94.7325 44.2675L82.6925 32.2275C80.4484 33.8232 77.8084 34.7704 75.0617 34.9653C72.315 35.1602 69.5677 34.5952 67.1208 33.3324C64.6738 32.0696 62.6217 30.1575 61.1893 27.8058C59.7569 25.4542 58.9995 22.7535 59 20Z" fill="black"/>
<circle cx="883" cy="29" r="25" fill="black"/>
<path d="M877.788 38.4446C877.55 38.4446 877.321 38.3616 877.152 38.214C876.983 38.0664 876.889 37.8662 876.889 37.6575V20.3424C876.889 20.2042 876.93 20.0684 877.009 19.9488C877.089 19.8291 877.202 19.7298 877.339 19.6608C877.476 19.5918 877.631 19.5555 877.789 19.5557C877.947 19.5558 878.102 19.5923 878.239 19.6616L895.329 28.3191C895.466 28.3883 895.579 28.4876 895.658 28.6071C895.736 28.7266 895.778 28.8621 895.778 28.9999C895.778 29.1378 895.736 29.2733 895.658 29.3928C895.579 29.5122 895.466 29.6115 895.329 29.6807L878.239 38.3383C878.102 38.4079 877.946 38.4445 877.788 38.4446Z" fill="black"/>
<rect x="961.5" y="5.5" width="47" height="47" stroke="black" stroke-width="3"/>
<path d="M975.384 19.016V26H977.268V19.016H979.836V17.432H972.816V19.016H975.384ZM982.336 21.752C982.336 21.376 982.376 21.012 982.456 20.66C982.544 20.308 982.68 19.996 982.864 19.724C983.048 19.444 983.288 19.224 983.584 19.064C983.88 18.896 984.24 18.812 984.664 18.812C985.088 18.812 985.448 18.896 985.744 19.064C986.04 19.224 986.28 19.444 986.464 19.724C986.648 19.996 986.78 20.308 986.86 20.66C986.948 21.012 986.992 21.376 986.992 21.752C986.992 22.112 986.948 22.464 986.86 22.808C986.78 23.144 986.648 23.448 986.464 23.72C986.28 23.992 986.04 24.212 985.744 24.38C985.448 24.54 985.088 24.62 984.664 24.62C984.24 24.62 983.88 24.54 983.584 24.38C983.288 24.212 983.048 23.992 982.864 23.72C982.68 23.448 982.544 23.144 982.456 22.808C982.376 22.464 982.336 22.112 982.336 21.752ZM980.452 21.752C980.452 22.376 980.548 22.96 980.74 23.504C980.932 24.04 981.208 24.508 981.568 24.908C981.928 25.308 982.368 25.624 982.888 25.856C983.416 26.08 984.008 26.192 984.664 26.192C985.328 26.192 985.92 26.08 986.44 25.856C986.96 25.624 987.4 25.308 987.76 24.908C988.12 24.508 988.396 24.04 988.588 23.504C988.78 22.96 988.876 22.376 988.876 21.752C988.876 21.112 988.78 20.52 988.588 19.976C988.396 19.424 988.12 18.944 987.76 18.536C987.4 18.128 986.96 17.808 986.44 17.576C985.92 17.344 985.328 17.228 984.664 17.228C984.008 17.228 983.416 17.344 982.888 17.576C982.368 17.808 981.928 18.128 981.568 18.536C981.208 18.944 980.932 19.424 980.74 19.976C980.548 20.52 980.452 21.112 980.452 21.752ZM992.048 21.464V18.896H993.512C993.728 18.896 993.936 18.912 994.136 18.944C994.336 18.976 994.512 19.04 994.664 19.136C994.816 19.224 994.936 19.352 995.024 19.52C995.12 19.688 995.168 19.908 995.168 20.18C995.168 20.452 995.12 20.672 995.024 20.84C994.936 21.008 994.816 21.14 994.664 21.236C994.512 21.324 994.336 21.384 994.136 21.416C993.936 21.448 993.728 21.464 993.512 21.464H992.048ZM990.164 17.432V26H992.048V22.928H994.028C994.564 22.928 995.02 22.852 995.396 22.7C995.772 22.54 996.076 22.332 996.308 22.076C996.548 21.82 996.72 21.528 996.824 21.2C996.936 20.864 996.992 20.524 996.992 20.18C996.992 19.828 996.936 19.488 996.824 19.16C996.72 18.832 996.548 18.54 996.308 18.284C996.076 18.028 995.772 17.824 995.396 17.672C995.02 17.512 994.564 17.432 994.028 17.432H990.164ZM983.036 41V32.6H981.68C981.632 32.92 981.532 33.188 981.38 33.404C981.228 33.62 981.04 33.796 980.816 33.932C980.6 34.06 980.352 34.152 980.072 34.208C979.8 34.256 979.516 34.276 979.22 34.268V35.552H981.332V41H983.036ZM986.956 36.764C986.956 36.62 986.956 36.448 986.956 36.248C986.964 36.04 986.98 35.828 987.004 35.612C987.028 35.396 987.068 35.184 987.124 34.976C987.18 34.76 987.256 34.568 987.352 34.4C987.456 34.232 987.584 34.096 987.736 33.992C987.896 33.888 988.092 33.836 988.324 33.836C988.556 33.836 988.752 33.888 988.912 33.992C989.072 34.096 989.204 34.232 989.308 34.4C989.412 34.568 989.488 34.76 989.536 34.976C989.592 35.184 989.632 35.396 989.656 35.612C989.688 35.828 989.704 36.04 989.704 36.248C989.712 36.448 989.716 36.62 989.716 36.764C989.716 37.004 989.708 37.296 989.692 37.64C989.676 37.976 989.624 38.304 989.536 38.624C989.456 38.936 989.32 39.204 989.128 39.428C988.944 39.652 988.676 39.764 988.324 39.764C987.98 39.764 987.716 39.652 987.532 39.428C987.348 39.204 987.212 38.936 987.124 38.624C987.044 38.304 986.996 37.976 986.98 37.64C986.964 37.296 986.956 37.004 986.956 36.764ZM985.252 36.764C985.252 37.604 985.332 38.308 985.492 38.876C985.66 39.436 985.884 39.884 986.164 40.22C986.444 40.556 986.768 40.796 987.136 40.94C987.512 41.084 987.908 41.156 988.324 41.156C988.748 41.156 989.144 41.084 989.512 40.94C989.888 40.796 990.216 40.556 990.496 40.22C990.784 39.884 991.008 39.436 991.168 38.876C991.336 38.308 991.42 37.604 991.42 36.764C991.42 35.948 991.336 35.264 991.168 34.712C991.008 34.152 990.784 33.704 990.496 33.368C990.216 33.032 989.888 32.792 989.512 32.648C989.144 32.504 988.748 32.432 988.324 32.432C987.908 32.432 987.512 32.504 987.136 32.648C986.768 32.792 986.444 33.032 986.164 33.368C985.884 33.704 985.66 34.152 985.492 34.712C985.332 35.264 985.252 35.948 985.252 36.764Z" fill="black"/>
<path d="M1087.02 13.2966L1082.41 22.6375L1072.1 24.1365L1079.56 31.4119L1077.8 41.6804L1087.02 36.8318L1096.25 41.6755L1094.48 31.407L1101.95 24.1365L1091.63 22.6375L1087.02 13.2966Z" fill="#EAE336" fill-opacity="0.3"/>
<path d="M1106.37 21.2266L1093.97 19.4248L1088.43 8.18947C1088.27 7.88185 1088.03 7.63283 1087.72 7.48146C1086.95 7.1006 1086.01 7.41799 1085.62 8.18947L1080.08 19.4248L1067.68 21.2266C1067.34 21.2754 1067.03 21.4365 1066.79 21.6807C1066.5 21.978 1066.34 22.3779 1066.35 22.7927C1066.35 23.2075 1066.52 23.6031 1066.82 23.8926L1075.79 32.6377L1073.67 44.9863C1073.62 45.2736 1073.65 45.569 1073.76 45.8391C1073.87 46.1092 1074.05 46.3432 1074.29 46.5145C1074.53 46.6859 1074.81 46.7877 1075.1 46.8084C1075.39 46.8291 1075.68 46.768 1075.94 46.6319L1087.02 40.8018L1098.11 46.6319C1098.42 46.793 1098.77 46.8467 1099.1 46.7881C1099.95 46.6416 1100.53 45.836 1100.38 44.9863L1098.26 32.6377L1107.23 23.8926C1107.47 23.6533 1107.64 23.3408 1107.68 22.999C1107.82 22.1445 1107.22 21.3535 1106.37 21.2266ZM1094.49 31.4072L1096.25 41.6758L1087.02 36.832L1077.8 41.6807L1079.56 31.4121L1072.1 24.1367L1082.42 22.6377L1087.02 13.2969L1091.63 22.6377L1101.95 24.1367L1094.49 31.4072Z" fill="black"/>
<path d="M10.9375 169.75C10.5231 169.75 10.1257 169.585 9.83265 169.292C9.53962 168.999 9.375 168.602 9.375 168.188V133.813C9.37512 133.538 9.44749 133.269 9.58482 133.031C9.72216 132.794 9.91961 132.596 10.1573 132.459C10.3951 132.322 10.6647 132.25 10.939 132.251C11.2134 132.251 11.4829 132.324 11.7203 132.461L41.4078 149.648C41.6446 149.786 41.8411 149.983 41.9778 150.22C42.1144 150.457 42.1863 150.726 42.1863 151C42.1863 151.274 42.1144 151.543 41.9778 151.78C41.8411 152.017 41.6446 152.214 41.4078 152.352L11.7203 169.539C11.4825 169.677 11.2125 169.75 10.9375 169.75Z" fill="black"/>
<path d="M129.083 144.75H124.917V140.583H129.083V144.75ZM129.083 148.917H124.917V161.417H129.083V148.917ZM127 134.333C117.813 134.333 110.333 141.813 110.333 151C110.333 160.188 117.813 167.667 127 167.667C136.188 167.667 143.667 160.188 143.667 151C143.667 141.813 136.188 134.333 127 134.333ZM127 130.167C138.506 130.167 147.833 139.494 147.833 151C147.833 162.506 138.506 171.833 127 171.833C115.494 171.833 106.167 162.506 106.167 151C106.167 139.494 115.494 130.167 127 130.167Z" fill="black"/>
<path d="M204.333 142.667H237.667V169.75C237.667 170.303 237.447 170.833 237.057 171.223C236.666 171.614 236.136 171.833 235.583 171.833H206.417C205.864 171.833 205.334 171.614 204.944 171.223C204.553 170.833 204.333 170.303 204.333 169.75V142.667ZM208.5 146.833V167.667H233.5V146.833H208.5ZM214.75 151H218.917V163.5H214.75V151ZM223.083 151H227.25V163.5H223.083V151ZM210.583 136.417V132.25C210.583 131.698 210.803 131.168 211.194 130.777C211.584 130.386 212.114 130.167 212.667 130.167H229.333C229.886 130.167 230.416 130.386 230.807 130.777C231.197 131.168 231.417 131.698 231.417 132.25V136.417H241.833V140.583H200.167V136.417H210.583ZM214.75 134.333V136.417H227.25V134.333H214.75Z" fill="black"/>
<path d="M323 129.125C310.92 129.125 301.125 138.92 301.125 151C301.125 163.08 310.92 172.875 323 172.875C335.08 172.875 344.875 163.08 344.875 151C344.875 138.92 335.08 129.125 323 129.125ZM332.448 143.856L322.165 158.114C322.021 158.315 321.832 158.478 321.612 158.591C321.393 158.704 321.15 158.763 320.903 158.763C320.656 158.763 320.413 158.704 320.193 158.591C319.974 158.478 319.784 158.315 319.641 158.114L313.552 149.677C313.366 149.418 313.552 149.057 313.869 149.057H316.159C316.657 149.057 317.131 149.296 317.424 149.706L320.9 154.53L328.576 143.886C328.869 143.48 329.338 143.236 329.841 143.236H332.131C332.448 143.236 332.634 143.598 332.448 143.856Z" fill="#1DBA2D"/>
<path d="M439.792 136.208C431.667 128.083 418.333 128.083 410.208 136.208C402.083 144.333 402.083 157.667 410.208 165.792C418.333 173.917 431.458 173.917 439.583 165.792C447.708 157.667 447.917 144.333 439.792 136.208ZM430.833 159.75L425 153.917L419.167 159.75L416.25 156.833L422.083 151L416.25 145.167L419.167 142.25L425 148.083L430.833 142.25L433.75 145.167L427.917 151L433.75 156.833L430.833 159.75Z" fill="#E50914"/>
<circle cx="625" cy="151" r="24.5" fill="black" stroke="#C4C4C4"/>
<g clip-path="url(#clip0)">
<path d="M618.691 147.967H615.475C615.231 147.966 614.995 148.049 614.805 148.201C614.614 148.353 614.482 148.567 614.431 148.805C613.774 151.732 613.752 154.766 614.367 157.703L614.432 158.013C614.483 158.253 614.615 158.469 614.805 158.624C614.996 158.779 615.234 158.864 615.48 158.865H618.691C618.975 158.864 619.247 158.752 619.448 158.551C619.648 158.35 619.761 158.078 619.762 157.795V149.037C619.761 148.754 619.648 148.482 619.448 148.281C619.247 148.08 618.975 147.968 618.691 147.967ZM618.383 157.486H615.73L615.717 157.422C615.159 154.759 615.161 152.008 615.724 149.346H618.383V157.486Z" fill="white"/>
<path d="M634.539 151.182L633.587 148.644C633.512 148.446 633.378 148.275 633.204 148.154C633.03 148.033 632.823 147.968 632.611 147.967H627.539V146.695L627.952 145.782C628.158 145.324 628.272 144.831 628.287 144.33C628.301 143.828 628.216 143.329 628.037 142.861C627.857 142.392 627.587 141.964 627.241 141.601C626.895 141.238 626.481 140.947 626.022 140.745C625.771 140.635 625.487 140.629 625.231 140.726C624.975 140.823 624.768 141.017 624.653 141.266L621.193 148.84V149.92H622.215L625.76 142.16C626.26 142.469 626.631 142.949 626.804 143.511C626.976 144.073 626.937 144.678 626.695 145.214L626.222 146.263L626.161 146.546V148.657L626.85 149.346H632.378L633.226 151.609V152.009L630.297 157.157H624.914L621.193 154.974V156.572L624.295 158.392C624.455 158.486 624.637 158.535 624.823 158.535H630.493C630.677 158.535 630.858 158.486 631.017 158.394C631.176 158.301 631.308 158.168 631.399 158.008L634.469 152.613C634.558 152.456 634.605 152.278 634.605 152.097V151.548C634.605 151.423 634.583 151.299 634.539 151.182Z" fill="white"/>
</g>
<circle cx="729" cy="151" r="24.5" transform="rotate(-180 729 151)" fill="black" stroke="#C4C4C4"/>
<g clip-path="url(#clip1)">
<path d="M733.838 152.562H737.054C737.298 152.563 737.535 152.481 737.725 152.328C737.915 152.176 738.047 151.963 738.099 151.725C738.756 148.797 738.777 145.763 738.162 142.827L738.097 142.517C738.046 142.277 737.915 142.061 737.724 141.906C737.533 141.751 737.295 141.666 737.05 141.665H733.838C733.554 141.665 733.282 141.778 733.082 141.979C732.881 142.179 732.768 142.451 732.768 142.735V151.492C732.768 151.776 732.881 152.048 733.082 152.249C733.282 152.449 733.554 152.562 733.838 152.562ZM734.147 143.043H736.799L736.812 143.108C737.37 145.771 737.368 148.521 736.805 151.184H734.147V143.043Z" fill="white"/>
<path d="M717.991 149.348L718.942 151.885C719.017 152.084 719.151 152.255 719.325 152.376C719.5 152.496 719.707 152.561 719.919 152.562H724.99V153.835L724.577 154.748C724.371 155.205 724.257 155.699 724.243 156.2C724.228 156.701 724.313 157.201 724.492 157.669C724.672 158.137 724.942 158.565 725.288 158.929C725.634 159.292 726.049 159.583 726.508 159.785C726.759 159.894 727.042 159.901 727.298 159.804C727.554 159.706 727.762 159.512 727.876 159.264L731.336 151.689V150.609H730.314L726.769 158.369C726.269 158.061 725.898 157.581 725.726 157.019C725.554 156.457 725.592 155.851 725.834 155.315L726.307 154.267L726.369 153.983V151.873L725.679 151.183H720.152L719.303 148.92V148.521L722.232 143.373H727.615L731.336 145.556V143.957L728.234 142.138C728.074 142.044 727.892 141.994 727.706 141.994H722.037C721.852 141.994 721.672 142.043 721.512 142.136C721.353 142.228 721.221 142.361 721.13 142.521L718.061 147.917C717.971 148.074 717.924 148.251 717.924 148.432V148.981C717.924 149.106 717.947 149.231 717.991 149.348Z" fill="white"/>
</g>
<circle cx="831" cy="151" r="24.5" fill="black" stroke="#C4C4C4"/>
<g clip-path="url(#clip2)">
<path d="M837.619 150.265C837.619 147.206 835.749 144.586 833.095 143.479L832.389 145.177C834.379 146.008 835.779 147.973 835.779 150.265C835.779 152.561 834.379 154.521 832.384 155.353L833.091 157.05C835.749 155.943 837.619 153.324 837.619 150.265ZM833.94 150.265C833.94 148.735 833.005 147.426 831.678 146.874L830.971 148.572C831.635 148.847 832.1 149.502 832.1 150.269C832.1 151.032 831.635 151.687 830.971 151.967L831.678 153.664C833.005 153.104 833.94 151.794 833.94 150.265ZM834.509 140.084L833.798 141.782C837.119 143.165 839.455 146.439 839.455 150.265C839.455 154.086 837.119 157.365 833.798 158.748L834.504 160.445C838.494 158.782 841.294 154.853 841.294 150.265C841.294 145.676 838.494 141.747 834.509 140.084ZM819.235 145.668V154.857H822.91L829.347 161.294V139.235L822.91 145.668H819.235Z" fill="white"/>
</g>
<circle cx="933" cy="151" r="24.5" fill="black" stroke="#C4C4C4"/>
<g clip-path="url(#clip3)">
<path fill-rule="evenodd" clip-rule="evenodd" d="M938.917 144.819L927.851 150.353L927.192 149.037L938.259 143.504L938.917 144.819ZM938.259 158.496L927.192 152.963L927.853 151.647L938.919 157.181L938.26 158.496H938.259Z" fill="white"/>
<path fill-rule="evenodd" clip-rule="evenodd" d="M941.088 146.588C942.063 146.588 942.998 146.201 943.688 145.511C944.377 144.822 944.765 143.887 944.765 142.912C944.765 141.937 944.377 141.002 943.688 140.312C942.998 139.623 942.063 139.235 941.088 139.235C940.113 139.235 939.178 139.623 938.489 140.312C937.799 141.002 937.412 141.937 937.412 142.912C937.412 143.887 937.799 144.822 938.489 145.511C939.178 146.201 940.113 146.588 941.088 146.588ZM941.088 162.765C942.063 162.765 942.998 162.377 943.688 161.688C944.377 160.998 944.765 160.063 944.765 159.088C944.765 158.113 944.377 157.178 943.688 156.489C942.998 155.799 942.063 155.412 941.088 155.412C940.113 155.412 939.178 155.799 938.489 156.489C937.799 157.178 937.412 158.113 937.412 159.088C937.412 160.063 937.799 160.998 938.489 161.688C939.178 162.377 940.113 162.765 941.088 162.765ZM924.912 154.677C925.887 154.677 926.822 154.289 927.511 153.6C928.201 152.91 928.588 151.975 928.588 151C928.588 150.025 928.201 149.09 927.511 148.4C926.822 147.711 925.887 147.324 924.912 147.324C923.937 147.324 923.002 147.711 922.312 148.4C921.623 149.09 921.235 150.025 921.235 151C921.235 151.975 921.623 152.91 922.312 153.6C923.002 154.289 923.937 154.677 924.912 154.677Z" fill="white"/>
</g>
<circle cx="523" cy="151" r="24.5" fill="black" stroke="#C4C4C4"/>
<path d="M532.829 143.647H530.539C530.041 143.647 529.568 143.886 529.275 144.296L521.599 154.941L518.122 150.117C517.829 149.711 517.36 149.467 516.858 149.467H514.568C514.25 149.467 514.065 149.829 514.25 150.087L520.334 158.525C520.478 158.726 520.667 158.889 520.887 159.002C521.106 159.114 521.35 159.173 521.596 159.173C521.843 159.173 522.086 159.114 522.306 159.002C522.525 158.889 522.715 158.726 522.859 158.525L533.142 144.267C533.332 144.008 533.147 143.647 532.829 143.647Z" fill="white"/>
<circle cx="1037" cy="151" r="24.5" fill="black" stroke="#C4C4C4"/>
<path d="M1026.67 151.261C1024.12 147.427 1024.97 141.675 1029.21 139.758C1033.45 137.841 1036 141.675 1036.85 143.592C1037.7 141.675 1041.09 137.841 1045.33 139.758C1049.57 141.675 1049.57 147.427 1047.03 151.261C1044.48 155.096 1036.85 162.765 1036.85 162.765C1036.85 162.765 1029.21 155.096 1026.67 151.261Z" stroke="white" stroke-width="2" stroke-linecap="round" stroke-linejoin="round"/>
<circle cx="1141" cy="151" r="24.5" fill="black" stroke="#C4C4C4"/>
<path d="M1152.03 142.556C1151.05 140.314 1148.21 138.48 1144.9 139.548C1143.33 140.053 1141.95 141.136 1141 142.621C1140.05 141.136 1138.67 140.053 1137.09 139.548C1133.79 138.496 1130.95 140.314 1129.97 142.556C1128.59 145.694 1129.16 149.224 1131.67 153.047C1133.65 156.038 1136.46 159.071 1140.55 162.592C1140.68 162.704 1140.84 162.765 1141 162.765C1141.17 162.765 1141.33 162.704 1141.46 162.592C1145.54 159.079 1148.36 156.071 1150.33 153.047C1152.84 149.224 1153.41 145.694 1152.03 142.556Z" fill="white"/>
<defs>
<clipPath id="clip0">
<rect width="22.0588" height="22.0588" fill="white" transform="translate(613.235 139.235)"/>
</clipPath>
<clipPath id="clip1">
<rect width="22.0588" height="22.0588" fill="white" transform="translate(739.294 161.294) rotate(-180)"/>
</clipPath>
<clipPath id="clip2">
<rect width="22.0588" height="22.0588" fill="white" transform="translate(819.235 139.235)"/>
</clipPath>
<clipPath id="clip3">
<rect width="23.5294" height="23.5294" fill="white" transform="translate(921.235 139.235)"/>
</clipPath>
</defs>
</svg>
