<svg width="1005" height="186" viewBox="0 0 1005 186" fill="none" xmlns="http://www.w3.org/2000/svg">
<circle cx="65" cy="65" r="65" fill="#349EFF"/>
<circle cx="240" cy="65" r="65" fill="#A532FF"/>
<circle cx="415" cy="65" r="65" fill="#0E2248"/>
<circle cx="590" cy="65" r="65" fill="#E9E9E9"/>
<circle cx="765" cy="65" r="65" fill="#F9F9F9"/>
<circle cx="940" cy="65" r="64.75" fill="white" stroke="black" stroke-width="0.5"/>
<path d="M34.58 168.8L33.82 172.4H36.58V174H33.48L32.62 178H30.88L31.74 174H27.54L26.68 178H24.94L25.8 174H22.66V172.4H26.14L26.9 168.8H23.8V167.2H27.24L28.1 163.2H29.84L28.98 167.2H33.18L34.04 163.2H35.78L34.92 167.2H37.7V168.8H34.58ZM32.84 168.8H28.64L27.88 172.4H32.08L32.84 168.8ZM39.9969 167.18C40.0902 165.953 40.5635 164.993 41.4169 164.3C42.2702 163.607 43.3769 163.26 44.7369 163.26C45.6435 163.26 46.4235 163.427 47.0769 163.76C47.7435 164.08 48.2435 164.52 48.5769 165.08C48.9235 165.64 49.0969 166.273 49.0969 166.98C49.0969 167.807 48.8569 168.52 48.3769 169.12C47.9102 169.72 47.2969 170.107 46.5369 170.28V170.38C47.4035 170.593 48.0902 171.013 48.5969 171.64C49.1035 172.267 49.3569 173.087 49.3569 174.1C49.3569 174.86 49.1835 175.547 48.8369 176.16C48.4902 176.76 47.9702 177.233 47.2769 177.58C46.5835 177.927 45.7502 178.1 44.7769 178.1C43.3635 178.1 42.2035 177.733 41.2969 177C40.3902 176.253 39.8835 175.2 39.7769 173.84H41.5369C41.6302 174.64 41.9569 175.293 42.5169 175.8C43.0769 176.307 43.8235 176.56 44.7569 176.56C45.6902 176.56 46.3969 176.32 46.8769 175.84C47.3702 175.347 47.6169 174.713 47.6169 173.94C47.6169 172.94 47.2835 172.22 46.6169 171.78C45.9502 171.34 44.9435 171.12 43.5969 171.12H43.1369V169.6H43.6169C44.8435 169.587 45.7702 169.387 46.3969 169C47.0235 168.6 47.3369 167.987 47.3369 167.16C47.3369 166.453 47.1035 165.887 46.6369 165.46C46.1835 165.033 45.5302 164.82 44.6769 164.82C43.8502 164.82 43.1835 165.033 42.6769 165.46C42.1702 165.887 41.8702 166.46 41.7769 167.18H39.9969ZM51.3742 174.78V173.4L58.3942 163.68H60.5742V173.2H62.5742V174.78H60.5742V178H58.7742V174.78H51.3742ZM58.8542 165.58L53.4742 173.2H58.8542V165.58ZM66.7323 174.12C66.8657 174.88 67.1723 175.467 67.6523 175.88C68.1457 176.293 68.8057 176.5 69.6323 176.5C70.739 176.5 71.5523 176.067 72.0723 175.2C72.6057 174.333 72.859 172.873 72.8323 170.82C72.5523 171.42 72.0857 171.893 71.4323 172.24C70.779 172.573 70.0523 172.74 69.2523 172.74C68.359 172.74 67.559 172.56 66.8523 172.2C66.159 171.827 65.6123 171.287 65.2123 170.58C64.8123 169.873 64.6123 169.02 64.6123 168.02C64.6123 166.593 65.0257 165.447 65.8523 164.58C66.679 163.7 67.8523 163.26 69.3723 163.26C71.239 163.26 72.5457 163.867 73.2923 165.08C74.0523 166.293 74.4323 168.1 74.4323 170.5C74.4323 172.18 74.279 173.567 73.9723 174.66C73.679 175.753 73.1723 176.587 72.4523 177.16C71.7457 177.733 70.7723 178.02 69.5323 178.02C68.1723 178.02 67.1123 177.653 66.3523 176.92C65.5923 176.187 65.159 175.253 65.0523 174.12H66.7323ZM69.5523 171.2C70.4457 171.2 71.179 170.927 71.7523 170.38C72.3257 169.82 72.6123 169.067 72.6123 168.12C72.6123 167.12 72.3323 166.313 71.7723 165.7C71.2123 165.087 70.4257 164.78 69.4123 164.78C68.479 164.78 67.7323 165.073 67.1723 165.66C66.6257 166.247 66.3523 167.02 66.3523 167.98C66.3523 168.953 66.6257 169.733 67.1723 170.32C67.719 170.907 68.5123 171.2 69.5523 171.2ZM79.11 165.54V170.2H84.19V171.7H79.11V176.5H84.79V178H77.29V164.04H84.79V165.54H79.11ZM95.4239 164.06V165.54H89.3639V170.24H94.2839V171.72H89.3639V178H87.5439V164.06H95.4239ZM105.502 164.06V165.54H99.442V170.24H104.362V171.72H99.442V178H97.622V164.06H105.502Z" fill="black"/>
<path d="M206.58 168.8L205.82 172.4H208.58V174H205.48L204.62 178H202.88L203.74 174H199.54L198.68 178H196.94L197.8 174H194.66V172.4H198.14L198.9 168.8H195.8V167.2H199.24L200.1 163.2H201.84L200.98 167.2H205.18L206.04 163.2H207.78L206.92 167.2H209.7V168.8H206.58ZM204.84 168.8H200.64L199.88 172.4H204.08L204.84 168.8ZM220.577 174.9H214.497L213.377 178H211.457L216.497 164.14H218.597L223.617 178H221.697L220.577 174.9ZM220.057 173.42L217.537 166.38L215.017 173.42H220.057ZM234.733 165.12H227.713V169.68C228.02 169.253 228.473 168.907 229.073 168.64C229.673 168.36 230.32 168.22 231.013 168.22C232.12 168.22 233.02 168.453 233.713 168.92C234.407 169.373 234.9 169.967 235.193 170.7C235.5 171.42 235.653 172.187 235.653 173C235.653 173.96 235.473 174.82 235.113 175.58C234.753 176.34 234.2 176.94 233.453 177.38C232.72 177.82 231.807 178.04 230.713 178.04C229.313 178.04 228.18 177.68 227.313 176.96C226.447 176.24 225.92 175.28 225.733 174.08H227.513C227.687 174.84 228.053 175.433 228.613 175.86C229.173 176.287 229.88 176.5 230.733 176.5C231.787 176.5 232.58 176.187 233.113 175.56C233.647 174.92 233.913 174.08 233.913 173.04C233.913 172 233.647 171.2 233.113 170.64C232.58 170.067 231.793 169.78 230.753 169.78C230.047 169.78 229.427 169.953 228.893 170.3C228.373 170.633 227.993 171.093 227.753 171.68H226.033V163.52H234.733V165.12ZM238.032 167.18C238.125 165.953 238.599 164.993 239.452 164.3C240.305 163.607 241.412 163.26 242.772 163.26C243.679 163.26 244.459 163.427 245.112 163.76C245.779 164.08 246.279 164.52 246.612 165.08C246.959 165.64 247.132 166.273 247.132 166.98C247.132 167.807 246.892 168.52 246.412 169.12C245.945 169.72 245.332 170.107 244.572 170.28V170.38C245.439 170.593 246.125 171.013 246.632 171.64C247.139 172.267 247.392 173.087 247.392 174.1C247.392 174.86 247.219 175.547 246.872 176.16C246.525 176.76 246.005 177.233 245.312 177.58C244.619 177.927 243.785 178.1 242.812 178.1C241.399 178.1 240.239 177.733 239.332 177C238.425 176.253 237.919 175.2 237.812 173.84H239.572C239.665 174.64 239.992 175.293 240.552 175.8C241.112 176.307 241.859 176.56 242.792 176.56C243.725 176.56 244.432 176.32 244.912 175.84C245.405 175.347 245.652 174.713 245.652 173.94C245.652 172.94 245.319 172.22 244.652 171.78C243.985 171.34 242.979 171.12 241.632 171.12H241.172V169.6H241.652C242.879 169.587 243.805 169.387 244.432 169C245.059 168.6 245.372 167.987 245.372 167.16C245.372 166.453 245.139 165.887 244.672 165.46C244.219 165.033 243.565 164.82 242.712 164.82C241.885 164.82 241.219 165.033 240.712 165.46C240.205 165.887 239.905 166.46 239.812 167.18H238.032ZM249.629 176.54C251.323 175.18 252.649 174.067 253.609 173.2C254.569 172.32 255.376 171.407 256.029 170.46C256.696 169.5 257.029 168.56 257.029 167.64C257.029 166.773 256.816 166.093 256.389 165.6C255.976 165.093 255.303 164.84 254.369 164.84C253.463 164.84 252.756 165.127 252.249 165.7C251.756 166.26 251.489 167.013 251.449 167.96H249.689C249.743 166.467 250.196 165.313 251.049 164.5C251.903 163.687 253.003 163.28 254.349 163.28C255.723 163.28 256.809 163.66 257.609 164.42C258.423 165.18 258.829 166.227 258.829 167.56C258.829 168.667 258.496 169.747 257.829 170.8C257.176 171.84 256.429 172.76 255.589 173.56C254.749 174.347 253.676 175.267 252.369 176.32H259.249V177.84H249.629V176.54ZM269.533 164.06V165.54H263.473V170.24H268.393V171.72H263.473V178H261.653V164.06H269.533ZM279.611 164.06V165.54H273.551V170.24H278.471V171.72H273.551V178H271.731V164.06H279.611Z" fill="black"/>
<path d="M381.58 168.8L380.82 172.4H383.58V174H380.48L379.62 178H377.88L378.74 174H374.54L373.68 178H371.94L372.8 174H369.66V172.4H373.14L373.9 168.8H370.8V167.2H374.24L375.1 163.2H376.84L375.98 167.2H380.18L381.04 163.2H382.78L381.92 167.2H384.7V168.8H381.58ZM379.84 168.8H375.64L374.88 172.4H379.08L379.84 168.8ZM387.037 170.62C387.037 168.327 387.41 166.54 388.157 165.26C388.904 163.967 390.21 163.32 392.077 163.32C393.93 163.32 395.23 163.967 395.977 165.26C396.724 166.54 397.097 168.327 397.097 170.62C397.097 172.953 396.724 174.767 395.977 176.06C395.23 177.353 393.93 178 392.077 178C390.21 178 388.904 177.353 388.157 176.06C387.41 174.767 387.037 172.953 387.037 170.62ZM395.297 170.62C395.297 169.46 395.217 168.48 395.057 167.68C394.91 166.867 394.597 166.213 394.117 165.72C393.65 165.227 392.97 164.98 392.077 164.98C391.17 164.98 390.477 165.227 389.997 165.72C389.53 166.213 389.217 166.867 389.057 167.68C388.91 168.48 388.837 169.46 388.837 170.62C388.837 171.82 388.91 172.827 389.057 173.64C389.217 174.453 389.53 175.107 389.997 175.6C390.477 176.093 391.17 176.34 392.077 176.34C392.97 176.34 393.65 176.093 394.117 175.6C394.597 175.107 394.91 174.453 395.057 173.64C395.217 172.827 395.297 171.82 395.297 170.62ZM401.715 165.54V170.2H406.795V171.7H401.715V176.5H407.395V178H399.895V164.04H407.395V165.54H401.715ZM409.629 176.54C411.323 175.18 412.649 174.067 413.609 173.2C414.569 172.32 415.376 171.407 416.029 170.46C416.696 169.5 417.029 168.56 417.029 167.64C417.029 166.773 416.816 166.093 416.389 165.6C415.976 165.093 415.303 164.84 414.369 164.84C413.463 164.84 412.756 165.127 412.249 165.7C411.756 166.26 411.489 167.013 411.449 167.96H409.689C409.743 166.467 410.196 165.313 411.049 164.5C411.903 163.687 413.003 163.28 414.349 163.28C415.723 163.28 416.809 163.66 417.609 164.42C418.423 165.18 418.829 166.227 418.829 167.56C418.829 168.667 418.496 169.747 417.829 170.8C417.176 171.84 416.429 172.76 415.589 173.56C414.749 174.347 413.676 175.267 412.369 176.32H419.249V177.84H409.629V176.54ZM421.133 176.54C422.827 175.18 424.153 174.067 425.113 173.2C426.073 172.32 426.88 171.407 427.533 170.46C428.2 169.5 428.533 168.56 428.533 167.64C428.533 166.773 428.32 166.093 427.893 165.6C427.48 165.093 426.807 164.84 425.873 164.84C424.967 164.84 424.26 165.127 423.753 165.7C423.26 166.26 422.993 167.013 422.953 167.96H421.193C421.247 166.467 421.7 165.313 422.553 164.5C423.407 163.687 424.507 163.28 425.853 163.28C427.227 163.28 428.313 163.66 429.113 164.42C429.927 165.18 430.333 166.227 430.333 167.56C430.333 168.667 430 169.747 429.333 170.8C428.68 171.84 427.933 172.76 427.093 173.56C426.253 174.347 425.18 175.267 423.873 176.32H430.753V177.84H421.133V176.54ZM432.417 174.78V173.4L439.437 163.68H441.617V173.2H443.617V174.78H441.617V178H439.817V174.78H432.417ZM439.897 165.58L434.517 173.2H439.897V165.58ZM448.075 170.48C447.329 170.187 446.755 169.76 446.355 169.2C445.955 168.64 445.755 167.96 445.755 167.16C445.755 166.44 445.935 165.793 446.295 165.22C446.655 164.633 447.189 164.173 447.895 163.84C448.615 163.493 449.482 163.32 450.495 163.32C451.509 163.32 452.369 163.493 453.075 163.84C453.795 164.173 454.335 164.633 454.695 165.22C455.069 165.793 455.255 166.44 455.255 167.16C455.255 167.933 455.049 168.613 454.635 169.2C454.222 169.773 453.655 170.2 452.935 170.48C453.762 170.733 454.415 171.18 454.895 171.82C455.389 172.447 455.635 173.207 455.635 174.1C455.635 174.967 455.422 175.727 454.995 176.38C454.569 177.02 453.962 177.52 453.175 177.88C452.402 178.227 451.509 178.4 450.495 178.4C449.482 178.4 448.589 178.227 447.815 177.88C447.055 177.52 446.462 177.02 446.035 176.38C445.609 175.727 445.395 174.967 445.395 174.1C445.395 173.207 445.635 172.44 446.115 171.8C446.595 171.16 447.249 170.72 448.075 170.48ZM453.495 167.38C453.495 166.567 453.229 165.94 452.695 165.5C452.162 165.06 451.429 164.84 450.495 164.84C449.575 164.84 448.849 165.06 448.315 165.5C447.782 165.94 447.515 166.573 447.515 167.4C447.515 168.147 447.789 168.747 448.335 169.2C448.895 169.653 449.615 169.88 450.495 169.88C451.389 169.88 452.109 169.653 452.655 169.2C453.215 168.733 453.495 168.127 453.495 167.38ZM450.495 171.28C449.509 171.28 448.702 171.513 448.075 171.98C447.449 172.433 447.135 173.12 447.135 174.04C447.135 174.893 447.435 175.58 448.035 176.1C448.649 176.62 449.469 176.88 450.495 176.88C451.522 176.88 452.335 176.62 452.935 176.1C453.535 175.58 453.835 174.893 453.835 174.04C453.835 173.147 453.529 172.467 452.915 172C452.302 171.52 451.495 171.28 450.495 171.28Z" fill="black"/>
<path d="M559.58 168.8L558.82 172.4H561.58V174H558.48L557.62 178H555.88L556.74 174H552.54L551.68 178H549.94L550.8 174H547.66V172.4H551.14L551.9 168.8H548.8V167.2H552.24L553.1 163.2H554.84L553.98 167.2H558.18L559.04 163.2H560.78L559.92 167.2H562.7V168.8H559.58ZM557.84 168.8H553.64L552.88 172.4H557.08L557.84 168.8ZM567.157 165.54V170.2H572.237V171.7H567.157V176.5H572.837V178H565.337V164.04H572.837V165.54H567.157ZM577.631 174.12C577.764 174.88 578.071 175.467 578.551 175.88C579.044 176.293 579.704 176.5 580.531 176.5C581.637 176.5 582.451 176.067 582.971 175.2C583.504 174.333 583.757 172.873 583.731 170.82C583.451 171.42 582.984 171.893 582.331 172.24C581.677 172.573 580.951 172.74 580.151 172.74C579.257 172.74 578.457 172.56 577.751 172.2C577.057 171.827 576.511 171.287 576.111 170.58C575.711 169.873 575.511 169.02 575.511 168.02C575.511 166.593 575.924 165.447 576.751 164.58C577.577 163.7 578.751 163.26 580.271 163.26C582.137 163.26 583.444 163.867 584.191 165.08C584.951 166.293 585.331 168.1 585.331 170.5C585.331 172.18 585.177 173.567 584.871 174.66C584.577 175.753 584.071 176.587 583.351 177.16C582.644 177.733 581.671 178.02 580.431 178.02C579.071 178.02 578.011 177.653 577.251 176.92C576.491 176.187 576.057 175.253 575.951 174.12H577.631ZM580.451 171.2C581.344 171.2 582.077 170.927 582.651 170.38C583.224 169.82 583.511 169.067 583.511 168.12C583.511 167.12 583.231 166.313 582.671 165.7C582.111 165.087 581.324 164.78 580.311 164.78C579.377 164.78 578.631 165.073 578.071 165.66C577.524 166.247 577.251 167.02 577.251 167.98C577.251 168.953 577.524 169.733 578.071 170.32C578.617 170.907 579.411 171.2 580.451 171.2ZM590.008 165.54V170.2H595.088V171.7H590.008V176.5H595.688V178H588.188V164.04H595.688V165.54H590.008ZM600.482 174.12C600.616 174.88 600.922 175.467 601.402 175.88C601.896 176.293 602.556 176.5 603.382 176.5C604.489 176.5 605.302 176.067 605.822 175.2C606.356 174.333 606.609 172.873 606.582 170.82C606.302 171.42 605.836 171.893 605.182 172.24C604.529 172.573 603.802 172.74 603.002 172.74C602.109 172.74 601.309 172.56 600.602 172.2C599.909 171.827 599.362 171.287 598.962 170.58C598.562 169.873 598.362 169.02 598.362 168.02C598.362 166.593 598.776 165.447 599.602 164.58C600.429 163.7 601.602 163.26 603.122 163.26C604.989 163.26 606.296 163.867 607.042 165.08C607.802 166.293 608.182 168.1 608.182 170.5C608.182 172.18 608.029 173.567 607.722 174.66C607.429 175.753 606.922 176.587 606.202 177.16C605.496 177.733 604.522 178.02 603.282 178.02C601.922 178.02 600.862 177.653 600.102 176.92C599.342 176.187 598.909 175.253 598.802 174.12H600.482ZM603.302 171.2C604.196 171.2 604.929 170.927 605.502 170.38C606.076 169.82 606.362 169.067 606.362 168.12C606.362 167.12 606.082 166.313 605.522 165.7C604.962 165.087 604.176 164.78 603.162 164.78C602.229 164.78 601.482 165.073 600.922 165.66C600.376 166.247 600.102 167.02 600.102 167.98C600.102 168.953 600.376 169.733 600.922 170.32C601.469 170.907 602.262 171.2 603.302 171.2ZM612.86 165.54V170.2H617.94V171.7H612.86V176.5H618.54V178H611.04V164.04H618.54V165.54H612.86ZM623.334 174.12C623.467 174.88 623.774 175.467 624.254 175.88C624.747 176.293 625.407 176.5 626.234 176.5C627.341 176.5 628.154 176.067 628.674 175.2C629.207 174.333 629.461 172.873 629.434 170.82C629.154 171.42 628.687 171.893 628.034 172.24C627.381 172.573 626.654 172.74 625.854 172.74C624.961 172.74 624.161 172.56 623.454 172.2C622.761 171.827 622.214 171.287 621.814 170.58C621.414 169.873 621.214 169.02 621.214 168.02C621.214 166.593 621.627 165.447 622.454 164.58C623.281 163.7 624.454 163.26 625.974 163.26C627.841 163.26 629.147 163.867 629.894 165.08C630.654 166.293 631.034 168.1 631.034 170.5C631.034 172.18 630.881 173.567 630.574 174.66C630.281 175.753 629.774 176.587 629.054 177.16C628.347 177.733 627.374 178.02 626.134 178.02C624.774 178.02 623.714 177.653 622.954 176.92C622.194 176.187 621.761 175.253 621.654 174.12H623.334ZM626.154 171.2C627.047 171.2 627.781 170.927 628.354 170.38C628.927 169.82 629.214 169.067 629.214 168.12C629.214 167.12 628.934 166.313 628.374 165.7C627.814 165.087 627.027 164.78 626.014 164.78C625.081 164.78 624.334 165.073 623.774 165.66C623.227 166.247 622.954 167.02 622.954 167.98C622.954 168.953 623.227 169.733 623.774 170.32C624.321 170.907 625.114 171.2 626.154 171.2Z" fill="black"/>
<path d="M734.58 168.8L733.82 172.4H736.58V174H733.48L732.62 178H730.88L731.74 174H727.54L726.68 178H724.94L725.8 174H722.66V172.4H726.14L726.9 168.8H723.8V167.2H727.24L728.1 163.2H729.84L728.98 167.2H733.18L734.04 163.2H735.78L734.92 167.2H737.7V168.8H734.58ZM732.84 168.8H728.64L727.88 172.4H732.08L732.84 168.8ZM748.217 164.06V165.54H742.157V170.24H747.077V171.72H742.157V178H740.337V164.06H748.217ZM752.455 174.12C752.588 174.88 752.895 175.467 753.375 175.88C753.868 176.293 754.528 176.5 755.355 176.5C756.462 176.5 757.275 176.067 757.795 175.2C758.328 174.333 758.582 172.873 758.555 170.82C758.275 171.42 757.808 171.893 757.155 172.24C756.502 172.573 755.775 172.74 754.975 172.74C754.082 172.74 753.282 172.56 752.575 172.2C751.882 171.827 751.335 171.287 750.935 170.58C750.535 169.873 750.335 169.02 750.335 168.02C750.335 166.593 750.748 165.447 751.575 164.58C752.402 163.7 753.575 163.26 755.095 163.26C756.962 163.26 758.268 163.867 759.015 165.08C759.775 166.293 760.155 168.1 760.155 170.5C760.155 172.18 760.002 173.567 759.695 174.66C759.402 175.753 758.895 176.587 758.175 177.16C757.468 177.733 756.495 178.02 755.255 178.02C753.895 178.02 752.835 177.653 752.075 176.92C751.315 176.187 750.882 175.253 750.775 174.12H752.455ZM755.275 171.2C756.168 171.2 756.902 170.927 757.475 170.38C758.048 169.82 758.335 169.067 758.335 168.12C758.335 167.12 758.055 166.313 757.495 165.7C756.935 165.087 756.148 164.78 755.135 164.78C754.202 164.78 753.455 165.073 752.895 165.66C752.348 166.247 752.075 167.02 752.075 167.98C752.075 168.953 752.348 169.733 752.895 170.32C753.442 170.907 754.235 171.2 755.275 171.2ZM770.893 164.06V165.54H764.833V170.24H769.753V171.72H764.833V178H763.013V164.06H770.893ZM775.131 174.12C775.264 174.88 775.571 175.467 776.051 175.88C776.544 176.293 777.204 176.5 778.031 176.5C779.137 176.5 779.951 176.067 780.471 175.2C781.004 174.333 781.257 172.873 781.231 170.82C780.951 171.42 780.484 171.893 779.831 172.24C779.177 172.573 778.451 172.74 777.651 172.74C776.757 172.74 775.957 172.56 775.251 172.2C774.557 171.827 774.011 171.287 773.611 170.58C773.211 169.873 773.011 169.02 773.011 168.02C773.011 166.593 773.424 165.447 774.251 164.58C775.077 163.7 776.251 163.26 777.771 163.26C779.637 163.26 780.944 163.867 781.691 165.08C782.451 166.293 782.831 168.1 782.831 170.5C782.831 172.18 782.677 173.567 782.371 174.66C782.077 175.753 781.571 176.587 780.851 177.16C780.144 177.733 779.171 178.02 777.931 178.02C776.571 178.02 775.511 177.653 774.751 176.92C773.991 176.187 773.557 175.253 773.451 174.12H775.131ZM777.951 171.2C778.844 171.2 779.577 170.927 780.151 170.38C780.724 169.82 781.011 169.067 781.011 168.12C781.011 167.12 780.731 166.313 780.171 165.7C779.611 165.087 778.824 164.78 777.811 164.78C776.877 164.78 776.131 165.073 775.571 165.66C775.024 166.247 774.751 167.02 774.751 167.98C774.751 168.953 775.024 169.733 775.571 170.32C776.117 170.907 776.911 171.2 777.951 171.2ZM793.568 164.06V165.54H787.508V170.24H792.428V171.72H787.508V178H785.688V164.06H793.568ZM797.807 174.12C797.94 174.88 798.247 175.467 798.727 175.88C799.22 176.293 799.88 176.5 800.707 176.5C801.813 176.5 802.627 176.067 803.147 175.2C803.68 174.333 803.933 172.873 803.907 170.82C803.627 171.42 803.16 171.893 802.507 172.24C801.853 172.573 801.127 172.74 800.327 172.74C799.433 172.74 798.633 172.56 797.927 172.2C797.233 171.827 796.687 171.287 796.287 170.58C795.887 169.873 795.687 169.02 795.687 168.02C795.687 166.593 796.1 165.447 796.927 164.58C797.753 163.7 798.927 163.26 800.447 163.26C802.313 163.26 803.62 163.867 804.367 165.08C805.127 166.293 805.507 168.1 805.507 170.5C805.507 172.18 805.353 173.567 805.047 174.66C804.753 175.753 804.247 176.587 803.527 177.16C802.82 177.733 801.847 178.02 800.607 178.02C799.247 178.02 798.187 177.653 797.427 176.92C796.667 176.187 796.233 175.253 796.127 174.12H797.807ZM800.627 171.2C801.52 171.2 802.253 170.927 802.827 170.38C803.4 169.82 803.687 169.067 803.687 168.12C803.687 167.12 803.407 166.313 802.847 165.7C802.287 165.087 801.5 164.78 800.487 164.78C799.553 164.78 798.807 165.073 798.247 165.66C797.7 166.247 797.427 167.02 797.427 167.98C797.427 168.953 797.7 169.733 798.247 170.32C798.793 170.907 799.587 171.2 800.627 171.2Z" fill="black"/>
<path d="M909.58 168.8L908.82 172.4H911.58V174H908.48L907.62 178H905.88L906.74 174H902.54L901.68 178H899.94L900.8 174H897.66V172.4H901.14L901.9 168.8H898.8V167.2H902.24L903.1 163.2H904.84L903.98 167.2H908.18L909.04 163.2H910.78L909.92 167.2H912.7V168.8H909.58ZM907.84 168.8H903.64L902.88 172.4H907.08L907.84 168.8ZM923.217 164.06V165.54H917.157V170.24H922.077V171.72H917.157V178H915.337V164.06H923.217ZM933.295 164.06V165.54H927.235V170.24H932.155V171.72H927.235V178H925.415V164.06H933.295ZM943.373 164.06V165.54H937.313V170.24H942.233V171.72H937.313V178H935.493V164.06H943.373ZM953.451 164.06V165.54H947.391V170.24H952.311V171.72H947.391V178H945.571V164.06H953.451ZM963.529 164.06V165.54H957.469V170.24H962.389V171.72H957.469V178H955.649V164.06H963.529ZM973.608 164.06V165.54H967.548V170.24H972.468V171.72H967.548V178H965.728V164.06H973.608Z" fill="black"/>
</svg>
